{
.appVersion = "1342";
DisplayStrings = (
"/Doubledanda.bn"
);
customParameters = (
{
name = panose;
value = (
3,
8,
9,
2,
4,
3,
2,
2,
2,
0
);
},
{
name = unicodeRanges;
value = (
0,
1,
2,
3,
4,
5,
6,
16,
29,
31,
32,
33,
35,
36,
37,
38,
45,
62
);
},
{
name = fsType;
value = (
);
},
{
name = blueScale;
value = 0.03333;
},
{
name = blueShift;
value = 15;
},
{
name = licenseURL;
value = "http://scripts.sil.org/OFL";
},
{
name = license;
value = "This Font Software is licensed under the SIL Open Font License, Version 1.1. This license is available with a FAQ at: http://scripts.sil.org/OFL";
},
{
name = vendorID;
value = SUBY;
},
{
name = Axes;
value = (
{
Name = Weight;
Tag = wght;
}
);
}
);
date = "2022-01-18 14:02:11 +0000";
designer = "Suman Bhandary";
designerURL = "http://reg-it-bold.com/";
disablesNiceNames = 1;
familyName = Alkatra;
fontMaster = (
{
alignmentZones = (
"{1095, 15}",
"{607, 15}",
"{485, 15}",
"{0, -15}",
"{-589, -15}"
);
ascender = 1095;
capHeight = 607;
descender = -589;
guideLines = (
{
position = "{-114, 85}";
}
);
id = "EC1E6058-8D86-4671-8808-9A08B2A725FC";
weightValue = 400;
xHeight = 485;
},
{
alignmentZones = (
"{1095, 15}",
"{607, 15}",
"{485, 15}",
"{0, -18}",
"{-589, -15}"
);
ascender = 1095;
capHeight = 607;
descender = -589;
guideLines = (
{
position = "{-114, 49}";
}
);
horizontalStems = (
109,
114,
122
);
id = "959F729E-ED2F-45C2-951D-81A6BBE10EFE";
verticalStems = (
104,
141,
150,
156,
160,
165
);
weight = Bold;
weightValue = 700;
xHeight = 485;
}
);
glyphs = (
{
glyphname = VowelA.bn;
lastChange = "2022-01-18 14:03:00 +0000";
layers = (
{
background = {
paths = (
{
closed = 1;
nodes = (
"31 137 OFFCURVE",
"124 24 OFFCURVE",
"267 24 CURVE SMOOTH",
"382 24 OFFCURVE",
"529 136 OFFCURVE",
"529 252.01 CURVE SMOOTH",
"529 345 OFFCURVE",
"484 494 OFFCURVE",
"407 494.01 CURVE SMOOTH",
"376.15 494.01 OFFCURVE",
"308.55 467.58 OFFCURVE",
"276.05 443.23 CURVE SMOOTH",
"254 426 OFFCURVE",
"223 391 OFFCURVE",
"223.14 372.18 CURVE SMOOTH",
"223.14 368.65 OFFCURVE",
"223.89 362.52 OFFCURVE",
"232.42 362.52 CURVE SMOOTH",
"244.73 362.52 OFFCURVE",
"297.49 384.38 OFFCURVE",
"311.2 384.38 CURVE SMOOTH",
"337 384.38 OFFCURVE",
"400.87 247.69 OFFCURVE",
"371.45 198.31 CURVE SMOOTH",
"353.99 169 OFFCURVE",
"305.95 130.63 OFFCURVE",
"265.34 130.63 CURVE SMOOTH",
"200 131 OFFCURVE",
"162 225 OFFCURVE",
"161.69 311.08 CURVE SMOOTH",
"162 384 OFFCURVE",
"179 424 OFFCURVE",
"178.83 464.52 CURVE SMOOTH",
"178.83 470.38 OFFCURVE",
"178.56 477.4 OFFCURVE",
"166.26 477.4 CURVE SMOOTH",
"115 477 OFFCURVE",
"31 340 OFFCURVE",
"31 244 CURVE SMOOTH"
);
},
{
closed = 1;
nodes = (
"486 176 LINE",
"517 176 OFFCURVE",
"579 115 OFFCURVE",
"578.99 79 CURVE",
"592 188 LINE",
"592 237 OFFCURVE",
"525 312 OFFCURVE",
"486 312 CURVE"
);
},
{
closed = 1;
nodes = (
"611.99 541.14 LINE",
"589 295 OFFCURVE",
"572 117 OFFCURVE",
"564.99 63 CURVE SMOOTH",
"560.17 26.82 OFFCURVE",
"547.7 -21 OFFCURVE",
"583.99 -21 CURVE SMOOTH",
"647 -21 OFFCURVE",
"711 94 OFFCURVE",
"715.99 174 CURVE SMOOTH",
"727.92 360.94 OFFCURVE",
"748.99 538 OFFCURVE",
"748.99 538 CURVE"
);
},
{
closed = 1;
nodes = (
"-0.01 630 LINE",
"-32 630 OFFCURVE",
"-42 632 OFFCURVE",
"-49.01 611 CURVE SMOOTH",
"-74.01 533 LINE SMOOTH",
"-79.34 518.33 OFFCURVE",
"-72.34 511 OFFCURVE",
"-53.01 511 CURVE SMOOTH",
"795.13 511 LINE",
"827 511 OFFCURVE",
"837 509 OFFCURVE",
"844.13 530 CURVE SMOOTH",
"869.13 608 LINE SMOOTH",
"874.37 622.67 OFFCURVE",
"867.32 630 OFFCURVE",
"847.99 630 CURVE SMOOTH"
);
},
{
closed = 1;
nodes = (
"31 137 OFFCURVE",
"124 24 OFFCURVE",
"267 24 CURVE SMOOTH",
"382 24 OFFCURVE",
"529 136 OFFCURVE",
"529 252.01 CURVE SMOOTH",
"529 345 OFFCURVE",
"484 494 OFFCURVE",
"407 494.01 CURVE SMOOTH",
"376.15 494.01 OFFCURVE",
"308.55 467.58 OFFCURVE",
"276.05 443.23 CURVE SMOOTH",
"254 426 OFFCURVE",
"223 391 OFFCURVE",
"223.14 372.18 CURVE SMOOTH",
"223.14 368.65 OFFCURVE",
"223.89 362.52 OFFCURVE",
"232.42 362.52 CURVE SMOOTH",
"244.73 362.52 OFFCURVE",
"297.49 384.38 OFFCURVE",
"311.2 384.38 CURVE SMOOTH",
"337 384.38 OFFCURVE",
"400.87 247.69 OFFCURVE",
"371.45 198.31 CURVE SMOOTH",
"353.99 169 OFFCURVE",
"305.95 130.63 OFFCURVE",
"265.34 130.63 CURVE SMOOTH",
"200 131 OFFCURVE",
"162 225 OFFCURVE",
"161.69 311.08 CURVE SMOOTH",
"162 384 OFFCURVE",
"179 424 OFFCURVE",
"178.83 464.52 CURVE SMOOTH",
"178.83 470.38 OFFCURVE",
"178.56 477.4 OFFCURVE",
"166.26 477.4 CURVE SMOOTH",
"115 477 OFFCURVE",
"31 340 OFFCURVE",
"31 244 CURVE SMOOTH"
);
},
{
closed = 1;
nodes = (
"486 176 LINE",
"517 176 OFFCURVE",
"579 115 OFFCURVE",
"578.99 79 CURVE",
"592 188 LINE",
"592 237 OFFCURVE",
"525 312 OFFCURVE",
"486 312 CURVE"
);
},
{
closed = 1;
nodes = (
"611.99 541.14 LINE",
"589 295 OFFCURVE",
"572 117 OFFCURVE",
"564.99 63 CURVE SMOOTH",
"560.17 26.82 OFFCURVE",
"547.7 -21 OFFCURVE",
"583.99 -21 CURVE SMOOTH",
"647 -21 OFFCURVE",
"711 94 OFFCURVE",
"715.99 174 CURVE SMOOTH",
"727.92 360.94 OFFCURVE",
"748.99 538 OFFCURVE",
"748.99 538 CURVE"
);
},
{
closed = 1;
nodes = (
"-0.01 630 LINE",
"-32 630 OFFCURVE",
"-42 632 OFFCURVE",
"-49.01 611 CURVE SMOOTH",
"-74.01 533 LINE SMOOTH",
"-79.34 518.33 OFFCURVE",
"-72.34 511 OFFCURVE",
"-53.01 511 CURVE SMOOTH",
"795.13 511 LINE",
"827 511 OFFCURVE",
"837 509 OFFCURVE",
"844.13 530 CURVE SMOOTH",
"869.13 608 LINE SMOOTH",
"874.37 622.67 OFFCURVE",
"867.32 630 OFFCURVE",
"847.99 630 CURVE SMOOTH"
);
},
{
closed = 1;
nodes = (
"45 139 OFFCURVE",
"142 37 OFFCURVE",
"257 37 CURVE SMOOTH",
"394 37 OFFCURVE",
"510 150 OFFCURVE",
"510 253 CURVE SMOOTH",
"510 343 OFFCURVE",
"459 489 OFFCURVE",
"393 489 CURVE SMOOTH",
"369 489 OFFCURVE",
"330 475 OFFCURVE",
"296 449 CURVE SMOOTH",
"271 430 OFFCURVE",
"254 402 OFFCURVE",
"254 392 CURVE SMOOTH",
"254 389 OFFCURVE",
"255 384 OFFCURVE",
"261 384 CURVE SMOOTH",
"275 384 OFFCURVE",
"307 401 OFFCURVE",
"321 401 CURVE SMOOTH",
"357 401 OFFCURVE",
"393 290 OFFCURVE",
"393 231 CURVE SMOOTH",
"393 178 OFFCURVE",
"324 121 OFFCURVE",
"263 121 CURVE SMOOTH",
"189 121 OFFCURVE",
"149 223 OFFCURVE",
"149 311 CURVE SMOOTH",
"149 396 OFFCURVE",
"179 438 OFFCURVE",
"179 466 CURVE SMOOTH",
"179 470 OFFCURVE",
"177 474 OFFCURVE",
"171 474 CURVE SMOOTH",
"149 474 OFFCURVE",
"45 366 OFFCURVE",
"45 249 CURVE SMOOTH"
);
},
{
closed = 1;
nodes = (
"611 541 LINE",
"611 541 OFFCURVE",
"581 176 OFFCURVE",
"564 56 CURVE SMOOTH",
"559 20 OFFCURVE",
"549 -21 OFFCURVE",
"575 -21 CURVE SMOOTH",
"621 -21 OFFCURVE",
"686 107 OFFCURVE",
"690 174 CURVE SMOOTH",
"701 361 OFFCURVE",
"724 538 OFFCURVE",
"724 538 CURVE"
);
},
{
closed = 1;
nodes = (
"0 606 LINE",
"-29 606 OFFCURVE",
"-42 609 OFFCURVE",
"-49 587 CURVE SMOOTH",
"-65 534 LINE SMOOTH",
"-70 519 OFFCURVE",
"-63 512 OFFCURVE",
"-44 512 CURVE SMOOTH",
"778 512 LINE",
"807 512 OFFCURVE",
"820 509 OFFCURVE",
"827 531 CURVE SMOOTH",
"844 584 LINE SMOOTH",
"849 599 OFFCURVE",
"842 606 OFFCURVE",
"823 606 CURVE SMOOTH"
);
},
{
closed = 1;
nodes = (
"487 189 LINE",
"517 189 OFFCURVE",
"559 150 OFFCURVE",
"576 111 CURVE",
"579 111 OFFCURVE",
"581 111 OFFCURVE",
"583 111 CURVE",
"594 206 LINE",
"588 206 OFFCURVE",
"581 206 OFFCURVE",
"576 206 CURVE",
"557 252 OFFCURVE",
"514 303 OFFCURVE",
"487 303 CURVE"
);
}
);
};
layerId = "EC1E6058-8D86-4671-8808-9A08B2A725FC";
paths = (
{
closed = 1;
nodes = (
"-70 519 OFFCURVE",
"-63 512 OFFCURVE",
"-44 512 CURVE SMOOTH",
"609 512 LINE",
"604 454 OFFCURVE",
"592 320 OFFCURVE",
"581 206 CURVE",
"576 206 LINE",
"561 242 OFFCURVE",
"532 281 OFFCURVE",
"507 296 CURVE",
"495 383 OFFCURVE",
"449 489 OFFCURVE",
"393 489 CURVE SMOOTH",
"369 489 OFFCURVE",
"330 475 OFFCURVE",
"296 449 CURVE SMOOTH",
"271 430 OFFCURVE",
"254 402 OFFCURVE",
"254 392 CURVE SMOOTH",
"254 389 OFFCURVE",
"255 384 OFFCURVE",
"261 384 CURVE SMOOTH",
"275 384 OFFCURVE",
"307 401 OFFCURVE",
"321 401 CURVE SMOOTH",
"357 401 OFFCURVE",
"393 290 OFFCURVE",
"393 231 CURVE SMOOTH",
"393 178 OFFCURVE",
"324 121 OFFCURVE",
"263 121 CURVE SMOOTH",
"189 121 OFFCURVE",
"149 223 OFFCURVE",
"149 311 CURVE SMOOTH",
"149 396 OFFCURVE",
"179 438 OFFCURVE",
"179 466 CURVE SMOOTH",
"179 470 OFFCURVE",
"177 474 OFFCURVE",
"171 474 CURVE SMOOTH",
"149 474 OFFCURVE",
"45 366 OFFCURVE",
"45 249 CURVE SMOOTH",
"45 139 OFFCURVE",
"142 37 OFFCURVE",
"257 37 CURVE SMOOTH",
"365 37 OFFCURVE",
"460 108 OFFCURVE",
"496 188 CURVE",
"522 182 OFFCURVE",
"555 152 OFFCURVE",
"572 120 CURVE",
"553 5 OFFCURVE",
"552 -21 OFFCURVE",
"575 -21 CURVE SMOOTH",
"621 -21 OFFCURVE",
"686 107 OFFCURVE",
"690 174 CURVE SMOOTH",
"698 318 OFFCURVE",
"714 456 OFFCURVE",
"721 512 CURVE",
"778 512 LINE SMOOTH",
"807 512 OFFCURVE",
"820 509 OFFCURVE",
"827 531 CURVE SMOOTH",
"844 584 LINE SMOOTH",
"849 599 OFFCURVE",
"842 606 OFFCURVE",
"823 606 CURVE SMOOTH",
"0 606 LINE SMOOTH",
"-29 606 OFFCURVE",
"-42 609 OFFCURVE",
"-49 587 CURVE SMOOTH",
"-65 534 LINE SMOOTH"
);
}
);
width = 778;
},
{
hints = (
{
horizontal = 1;
place = "{22, 98}";
type = Stem;
},
{
horizontal = 1;
place = "{352, 100}";
type = Stem;
},
{
horizontal = 1;
place = "{468, 109}";
type = Stem;
},
{
place = "{28, 120}";
type = Stem;
}
);
layerId = "959F729E-ED2F-45C2-951D-81A6BBE10EFE";
paths = (
{
closed = 1;
nodes = (
"-78 518 OFFCURVE",
"-71 511 OFFCURVE",
"-52 511 CURVE SMOOTH",
"609 511 LINE",
"599 408 OFFCURVE",
"590 312 OFFCURVE",
"583 234 CURVE",
"576 234 LINE",
"565 262 OFFCURVE",
"544 286 OFFCURVE",
"524 299 CURVE",
"512 388 OFFCURVE",
"470 494 OFFCURVE",
"406 494 CURVE SMOOTH",
"375 494 OFFCURVE",
"311 469 OFFCURVE",
"278 444 CURVE SMOOTH",
"255 426 OFFCURVE",
"226 392 OFFCURVE",
"226 374 CURVE SMOOTH",
"226 371 OFFCURVE",
"227 365 OFFCURVE",
"234 365 CURVE SMOOTH",
"248 365 OFFCURVE",
"298 385 OFFCURVE",
"312 385 CURVE SMOOTH",
"339 385 OFFCURVE",
"400 252 OFFCURVE",
"373 201 CURVE SMOOTH",
"357 170 OFFCURVE",
"308 130 OFFCURVE",
"265 130 CURVE SMOOTH",
"199 130 OFFCURVE",
"161 225 OFFCURVE",
"161 311 CURVE SMOOTH",
"161 385 OFFCURVE",
"179 425 OFFCURVE",
"179 465 CURVE SMOOTH",
"179 470 OFFCURVE",
"179 477 OFFCURVE",
"166 477 CURVE SMOOTH",
"118 477 OFFCURVE",
"32 342 OFFCURVE",
"32 244 CURVE SMOOTH",
"32 137 OFFCURVE",
"126 25 OFFCURVE",
"266 25 CURVE SMOOTH",
"356 25 OFFCURVE",
"461 91 OFFCURVE",
"505 172 CURVE",
"529 163 OFFCURVE",
"555 136 OFFCURVE",
"570 108 CURVE",
"553 7 OFFCURVE",
"554 -21 OFFCURVE",
"583 -21 CURVE SMOOTH",
"645 -21 OFFCURVE",
"709 95 OFFCURVE",
"714 174 CURVE SMOOTH",
"723 317 OFFCURVE",
"738 455 OFFCURVE",
"744 511 CURVE",
"794 511 LINE SMOOTH",
"825 511 OFFCURVE",
"836 509 OFFCURVE",
"843 530 CURVE SMOOTH",
"867 606 LINE SMOOTH",
"872 621 OFFCURVE",
"865 628 OFFCURVE",
"846 628 CURVE SMOOTH",
"0 628 LINE SMOOTH",
"-32 628 OFFCURVE",
"-42 630 OFFCURVE",
"-49 609 CURVE SMOOTH",
"-73 533 LINE SMOOTH"
);
}
);
width = 793.58333;
}
);
leftKerningGroup = VowelA.bn;
note = VowelA.bn;
rightKerningGroup = VowelA.bn;
unicode = 0985;
},
{
glyphname = VowelAa.bn;
lastChange = "2022-01-18 14:03:00 +0000";
layers = (
{
background = {
paths = (
{
closed = 1;
nodes = (
"1019.99 630 LINE",
"991 630 OFFCURVE",
"979 631 OFFCURVE",
"974 615 CURVE SMOOTH",
"966 592 OFFCURVE",
"962 572 OFFCURVE",
"954 572 CURVE SMOOTH",
"948 572 OFFCURVE",
"938 584 OFFCURVE",
"915.99 610 CURVE SMOOTH",
"900 629 OFFCURVE",
"879 630 OFFCURVE",
"853 630 CURVE SMOOTH",
"769.99 630 LINE",
"738 630 OFFCURVE",
"728 632 OFFCURVE",
"720.99 611 CURVE SMOOTH",
"695.99 533 LINE SMOOTH",
"690.66 518.33 OFFCURVE",
"697.99 511 OFFCURVE",
"716.99 511 CURVE SMOOTH",
"833.99 511 LINE",
"812 262 OFFCURVE",
"802 138 OFFCURVE",
"790.99 53 CURVE SMOOTH",
"786.17 16.82 OFFCURVE",
"773.7 -31 OFFCURVE",
"809.99 -31 CURVE SMOOTH",
"873 -31 OFFCURVE",
"937 84 OFFCURVE",
"941.99 164 CURVE SMOOTH",
"953.92 350.94 OFFCURVE",
"971.99 511 OFFCURVE",
"971.99 511 CURVE",
"1019.99 511 LINE",
"1060 511 OFFCURVE",
"1063 513 OFFCURVE",
"1071 537 CURVE SMOOTH",
"1093.99 608 LINE SMOOTH",
"1099.23 622.67 OFFCURVE",
"1091.99 630 OFFCURVE",
"1072.85 630 CURVE SMOOTH"
);
},
{
closed = 1;
nodes = (
"-0.01 630 LINE",
"-32 630 OFFCURVE",
"-42 632 OFFCURVE",
"-49.01 611 CURVE SMOOTH",
"-74.01 533 LINE SMOOTH",
"-79.34 518.33 OFFCURVE",
"-72.34 511 OFFCURVE",
"-53.01 511 CURVE SMOOTH",
"775.13 511 LINE",
"807 511 OFFCURVE",
"817 509 OFFCURVE",
"824.13 530 CURVE SMOOTH",
"849.13 608 LINE SMOOTH",
"854.37 622.67 OFFCURVE",
"847.32 630 OFFCURVE",
"827.99 630 CURVE SMOOTH"
);
},
{
closed = 1;
nodes = (
"31 137 OFFCURVE",
"124 24 OFFCURVE",
"267 24 CURVE SMOOTH",
"382 24 OFFCURVE",
"529 136 OFFCURVE",
"529 252.01 CURVE SMOOTH",
"529 345 OFFCURVE",
"484 494 OFFCURVE",
"407 494.01 CURVE SMOOTH",
"376.15 494.01 OFFCURVE",
"308.55 467.58 OFFCURVE",
"276.05 443.23 CURVE SMOOTH",
"254 426 OFFCURVE",
"223 391 OFFCURVE",
"223.14 372.18 CURVE SMOOTH",
"223.14 368.65 OFFCURVE",
"223.89 362.52 OFFCURVE",
"232.42 362.52 CURVE SMOOTH",
"244.73 362.52 OFFCURVE",
"297.49 384.38 OFFCURVE",
"311.2 384.38 CURVE SMOOTH",
"337 384.38 OFFCURVE",
"400.87 247.69 OFFCURVE",
"371.45 198.31 CURVE SMOOTH",
"353.99 169 OFFCURVE",
"305.95 130.63 OFFCURVE",
"265.34 130.63 CURVE SMOOTH",
"200 131 OFFCURVE",
"162 225 OFFCURVE",
"161.69 311.08 CURVE SMOOTH",
"162 384 OFFCURVE",
"179 424 OFFCURVE",
"178.83 464.52 CURVE SMOOTH",
"178.83 470.38 OFFCURVE",
"178.56 477.4 OFFCURVE",
"166.26 477.4 CURVE SMOOTH",
"115 477 OFFCURVE",
"31 340 OFFCURVE",
"31 244 CURVE SMOOTH"
);
},
{
closed = 1;
nodes = (
"486 176 LINE",
"517 176 OFFCURVE",
"579 115 OFFCURVE",
"579 79 CURVE",
"592 188 LINE",
"592 237 OFFCURVE",
"525 312 OFFCURVE",
"486 312 CURVE"
);
},
{
closed = 1;
nodes = (
"611.99 541.14 LINE",
"589 295 OFFCURVE",
"572 117 OFFCURVE",
"564.99 63 CURVE SMOOTH",
"560.17 26.82 OFFCURVE",
"547.7 -21 OFFCURVE",
"583.99 -21 CURVE SMOOTH",
"647 -21 OFFCURVE",
"711 94 OFFCURVE",
"715.99 174 CURVE SMOOTH",
"727.92 360.94 OFFCURVE",
"748.99 538 OFFCURVE",
"748.99 538 CURVE"
);
},
{
closed = 1;
nodes = (
"45 139 OFFCURVE",
"142 37 OFFCURVE",
"257 37 CURVE SMOOTH",
"394 37 OFFCURVE",
"510 150 OFFCURVE",
"510 253 CURVE SMOOTH",
"510 343 OFFCURVE",
"459 489 OFFCURVE",
"393 489 CURVE SMOOTH",
"369 489 OFFCURVE",
"330 475 OFFCURVE",
"296 449 CURVE SMOOTH",
"271 430 OFFCURVE",
"254 402 OFFCURVE",
"254 392 CURVE SMOOTH",
"254 389 OFFCURVE",
"255 384 OFFCURVE",
"261 384 CURVE SMOOTH",
"275 384 OFFCURVE",
"307 401 OFFCURVE",
"321 401 CURVE SMOOTH",
"357 401 OFFCURVE",
"393 290 OFFCURVE",
"393 231 CURVE SMOOTH",
"393 178 OFFCURVE",
"324 121 OFFCURVE",
"263 121 CURVE SMOOTH",
"189 121 OFFCURVE",
"149 223 OFFCURVE",
"149 311 CURVE SMOOTH",
"149 396 OFFCURVE",
"179 438 OFFCURVE",
"179 466 CURVE SMOOTH",
"179 470 OFFCURVE",
"177 474 OFFCURVE",
"171 474 CURVE SMOOTH",
"149 474 OFFCURVE",
"45 366 OFFCURVE",
"45 249 CURVE SMOOTH"
);
},
{
closed = 1;
nodes = (
"0 606 LINE",
"-29 606 OFFCURVE",
"-42 609 OFFCURVE",
"-49 587 CURVE SMOOTH",
"-65 534 LINE SMOOTH",
"-70 519 OFFCURVE",
"-63 512 OFFCURVE",
"-44 512 CURVE SMOOTH",
"760 512 LINE",
"789 512 OFFCURVE",
"802 509 OFFCURVE",
"809 531 CURVE SMOOTH",
"826 584 LINE SMOOTH",
"831 599 OFFCURVE",
"824 606 OFFCURVE",
"805 606 CURVE SMOOTH"
);
},
{
closed = 1;
nodes = (
"611 541 LINE",
"611 541 OFFCURVE",
"581 176 OFFCURVE",
"564 56 CURVE SMOOTH",
"559 20 OFFCURVE",
"549 -21 OFFCURVE",
"575 -21 CURVE SMOOTH",
"621 -21 OFFCURVE",
"686 107 OFFCURVE",
"690 174 CURVE SMOOTH",
"701 361 OFFCURVE",
"724 538 OFFCURVE",
"724 538 CURVE"
);
},
{
closed = 1;
nodes = (
"1024 606 LINE",
"976 606 OFFCURVE",
"966 608 OFFCURVE",
"959 587 CURVE SMOOTH",
"951 563 OFFCURVE",
"948 551 OFFCURVE",
"939 551 CURVE SMOOTH",
"929 551 OFFCURVE",
"919 566 OFFCURVE",
"902 586 CURVE SMOOTH",
"888 602 OFFCURVE",
"871 606 OFFCURVE",
"849 606 CURVE",
"779 606 LINE",
"750 606 OFFCURVE",
"737 608 OFFCURVE",
"730 587 CURVE SMOOTH",
"713 534 LINE SMOOTH",
"708 520 OFFCURVE",
"715 512 OFFCURVE",
"734 512 CURVE SMOOTH",
"834 512 LINE",
"834 478 OFFCURVE",
"796 91 OFFCURVE",
"790 46 CURVE SMOOTH",
"785 10 OFFCURVE",
"775 -31 OFFCURVE",
"802 -31 CURVE SMOOTH",
"848 -31 OFFCURVE",
"913 98 OFFCURVE",
"917 164 CURVE SMOOTH",
"928 351 OFFCURVE",
"948 512 OFFCURVE",
"948 512 CURVE",
"1026 512 LINE",
"1055 512 OFFCURVE",
"1068 509 OFFCURVE",
"1075 531 CURVE SMOOTH",
"1092 584 LINE SMOOTH",
"1097 599 OFFCURVE",
"1090 606 OFFCURVE",
"1071 606 CURVE SMOOTH"
);
},
{
closed = 1;
nodes = (
"487 189 LINE",
"517 189 OFFCURVE",
"559 150 OFFCURVE",
"576 111 CURVE",
"579 111 OFFCURVE",
"581 111 OFFCURVE",
"583 111 CURVE",
"594 206 LINE",
"588 206 OFFCURVE",
"581 206 OFFCURVE",
"576 206 CURVE",
"557 252 OFFCURVE",
"514 303 OFFCURVE",
"487 303 CURVE"
);
}
);
};
layerId = "EC1E6058-8D86-4671-8808-9A08B2A725FC";
paths = (
{
closed = 1;
nodes = (
"-70 519 OFFCURVE",
"-63 512 OFFCURVE",
"-44 512 CURVE SMOOTH",
"609 512 LINE",
"604 454 OFFCURVE",
"592 320 OFFCURVE",
"581 206 CURVE",
"576 206 LINE",
"561 242 OFFCURVE",
"532 281 OFFCURVE",
"507 296 CURVE",
"495 383 OFFCURVE",
"449 489 OFFCURVE",
"393 489 CURVE SMOOTH",
"369 489 OFFCURVE",
"330 475 OFFCURVE",
"296 449 CURVE SMOOTH",
"271 430 OFFCURVE",
"254 402 OFFCURVE",
"254 392 CURVE SMOOTH",
"254 389 OFFCURVE",
"255 384 OFFCURVE",
"261 384 CURVE SMOOTH",
"275 384 OFFCURVE",
"307 401 OFFCURVE",
"321 401 CURVE SMOOTH",
"357 401 OFFCURVE",
"393 290 OFFCURVE",
"393 231 CURVE SMOOTH",
"393 178 OFFCURVE",
"324 121 OFFCURVE",
"263 121 CURVE SMOOTH",
"189 121 OFFCURVE",
"149 223 OFFCURVE",
"149 311 CURVE SMOOTH",
"149 396 OFFCURVE",
"179 438 OFFCURVE",
"179 466 CURVE SMOOTH",
"179 470 OFFCURVE",
"177 474 OFFCURVE",
"171 474 CURVE SMOOTH",
"149 474 OFFCURVE",
"45 366 OFFCURVE",
"45 249 CURVE SMOOTH",
"45 139 OFFCURVE",
"142 37 OFFCURVE",
"257 37 CURVE SMOOTH",
"365 37 OFFCURVE",
"460 108 OFFCURVE",
"496 188 CURVE",
"522 182 OFFCURVE",
"555 152 OFFCURVE",
"572 120 CURVE",
"558 19 OFFCURVE",
"548 -21 OFFCURVE",
"575 -21 CURVE SMOOTH",
"621 -21 OFFCURVE",
"686 107 OFFCURVE",
"690 174 CURVE SMOOTH",
"698 318 OFFCURVE",
"714 456 OFFCURVE",
"721 512 CURVE",
"834 512 LINE",
"832 478 OFFCURVE",
"796 91 OFFCURVE",
"790 46 CURVE SMOOTH",
"785 10 OFFCURVE",
"775 -31 OFFCURVE",
"802 -31 CURVE SMOOTH",
"848 -31 OFFCURVE",
"913 98 OFFCURVE",
"917 164 CURVE SMOOTH",
"928 351 OFFCURVE",
"948 512 OFFCURVE",
"948 512 CURVE",
"1026 512 LINE SMOOTH",
"1055 512 OFFCURVE",
"1068 509 OFFCURVE",
"1075 531 CURVE SMOOTH",
"1092 584 LINE SMOOTH",
"1097 599 OFFCURVE",
"1090 606 OFFCURVE",
"1071 606 CURVE SMOOTH",
"973 606 OFFCURVE",
"966 609 OFFCURVE",
"959 587 CURVE SMOOTH",
"951 563 OFFCURVE",
"948 551 OFFCURVE",
"939 551 CURVE SMOOTH",
"929 551 OFFCURVE",
"919 566 OFFCURVE",
"902 586 CURVE SMOOTH",
"888 602 OFFCURVE",
"871 606 OFFCURVE",
"849 606 CURVE",
"0 606 LINE",
"-29 606 OFFCURVE",
"-42 609 OFFCURVE",
"-49 587 CURVE SMOOTH",
"-65 534 LINE SMOOTH"
);
}
);
width = 1026;
},
{
hints = (
{
horizontal = 1;
place = "{22, 98}";
type = Stem;
},
{
horizontal = 1;
place = "{352, 100}";
type = Stem;
},
{
place = "{28, 120}";
type = Stem;
},
{
horizontal = 1;
place = "{468, 28}";
type = Stem;
},
{
horizontal = 1;
place = "{468, 109}";
type = Stem;
}
);
layerId = "959F729E-ED2F-45C2-951D-81A6BBE10EFE";
paths = (
{
closed = 1;
nodes = (
"-78 518 OFFCURVE",
"-71 511 OFFCURVE",
"-52 511 CURVE SMOOTH",
"609 511 LINE",
"599 408 OFFCURVE",
"590 312 OFFCURVE",
"583 234 CURVE",
"576 234 LINE",
"565 262 OFFCURVE",
"544 286 OFFCURVE",
"524 299 CURVE",
"512 388 OFFCURVE",
"470 494 OFFCURVE",
"406 494 CURVE SMOOTH",
"375 494 OFFCURVE",
"311 469 OFFCURVE",
"278 444 CURVE SMOOTH",
"255 426 OFFCURVE",
"226 392 OFFCURVE",
"226 374 CURVE SMOOTH",
"226 371 OFFCURVE",
"227 365 OFFCURVE",
"234 365 CURVE SMOOTH",
"248 365 OFFCURVE",
"298 385 OFFCURVE",
"312 385 CURVE SMOOTH",
"339 385 OFFCURVE",
"400 252 OFFCURVE",
"373 201 CURVE SMOOTH",
"357 170 OFFCURVE",
"308 130 OFFCURVE",
"265 130 CURVE SMOOTH",
"199 130 OFFCURVE",
"161 225 OFFCURVE",
"161 311 CURVE SMOOTH",
"161 385 OFFCURVE",
"179 425 OFFCURVE",
"179 465 CURVE SMOOTH",
"179 470 OFFCURVE",
"179 477 OFFCURVE",
"166 477 CURVE SMOOTH",
"118 477 OFFCURVE",
"32 342 OFFCURVE",
"32 244 CURVE SMOOTH",
"32 137 OFFCURVE",
"126 25 OFFCURVE",
"266 25 CURVE SMOOTH",
"356 25 OFFCURVE",
"461 91 OFFCURVE",
"505 172 CURVE",
"529 163 OFFCURVE",
"555 136 OFFCURVE",
"570 108 CURVE",
"553 7 OFFCURVE",
"554 -21 OFFCURVE",
"583 -21 CURVE SMOOTH",
"645 -21 OFFCURVE",
"709 95 OFFCURVE",
"714 174 CURVE SMOOTH",
"723 317 OFFCURVE",
"738 455 OFFCURVE",
"744 511 CURVE",
"834 511 LINE",
"814 280 OFFCURVE",
"802 134 OFFCURVE",
"791 52 CURVE SMOOTH",
"786 16 OFFCURVE",
"774 -31 OFFCURVE",
"809 -31 CURVE SMOOTH",
"871 -31 OFFCURVE",
"935 85 OFFCURVE",
"940 164 CURVE SMOOTH",
"952 351 OFFCURVE",
"970 511 OFFCURVE",
"970 511 CURVE",
"1021 511 LINE SMOOTH",
"1060 511 OFFCURVE",
"1063 513 OFFCURVE",
"1071 537 CURVE SMOOTH",
"1094 606 LINE SMOOTH",
"1099 621 OFFCURVE",
"1092 628 OFFCURVE",
"1073 628 CURVE SMOOTH",
"985 628 OFFCURVE",
"979 631 OFFCURVE",
"973 613 CURVE SMOOTH",
"965 590 OFFCURVE",
"961 570 OFFCURVE",
"953 570 CURVE SMOOTH",
"946 570 OFFCURVE",
"936 583 OFFCURVE",
"915 608 CURVE SMOOTH",
"899 627 OFFCURVE",
"878 628 OFFCURVE",
"853 628 CURVE",
"0 628 LINE",
"-32 628 OFFCURVE",
"-42 630 OFFCURVE",
"-49 609 CURVE SMOOTH",
"-73 533 LINE SMOOTH"
);
}
);
width = 1020.5;
}
);
leftKerningGroup = VowelA.bn;
note = VowelAa.bn;
rightKerningGroup = VowelA.bn;
unicode = 0986;
},
{
glyphname = VowelI.bn;
lastChange = "2022-01-18 14:03:00 +0000";
layers = (
{
background = {
paths = (
{
closed = 1;
nodes = (
"477 650 OFFCURVE",
"501 685 OFFCURVE",
"500.52 734.69 CURVE SMOOTH",
"500 784 OFFCURVE",
"464 818 OFFCURVE",
"404.07 817.82 CURVE SMOOTH",
"348 818 OFFCURVE",
"219 788 OFFCURVE",
"195.01 788 CURVE SMOOTH",
"179.12 788 OFFCURVE",
"158.01 807.1 OFFCURVE",
"158.01 821 CURVE SMOOTH",
"158.01 832.7 OFFCURVE",
"191.01 853.13 OFFCURVE",
"191.01 860 CURVE SMOOTH",
"191.01 866.13 OFFCURVE",
"170.68 867.13 OFFCURVE",
"159.52 867.13 CURVE SMOOTH",
"113 867 OFFCURVE",
"67 817 OFFCURVE",
"66.76 775.3 CURVE SMOOTH",
"67 712 OFFCURVE",
"131 677 OFFCURVE",
"203.83 677.02 CURVE SMOOTH",
"237.24 677.02 OFFCURVE",
"327 688 OFFCURVE",
"352 688 CURVE SMOOTH",
"380 688 OFFCURVE",
"385.09 673.35 OFFCURVE",
"385 665 CURVE SMOOTH",
"385.09 655.32 OFFCURVE",
"373 634 OFFCURVE",
"351 620 CURVE",
"448 620 LINE"
);
},
{
closed = 1;
nodes = (
"0 629.99 LINE",
"-15 630 OFFCURVE",
"-25 628 OFFCURVE",
"-30 610.99 CURVE SMOOTH",
"-55 532.99 LINE SMOOTH",
"-60.33 518.32 OFFCURVE",
"-53.33 510.99 OFFCURVE",
"-34 510.99 CURVE SMOOTH",
"530.14 510.99 LINE",
"562 511 OFFCURVE",
"572 509 OFFCURVE",
"579.14 529.99 CURVE SMOOTH",
"604.14 607.99 LINE SMOOTH",
"609.38 622.66 OFFCURVE",
"602.33 629.99 OFFCURVE",
"583 629.99 CURVE SMOOTH"
);
},
{
closed = 1;
nodes = (
"295 85 OFFCURVE",
"490 141 OFFCURVE",
"490 302 CURVE SMOOTH",
"490 390 OFFCURVE",
"403 492 OFFCURVE",
"322 492 CURVE SMOOTH",
"286 492 OFFCURVE",
"216 458 OFFCURVE",
"194 442 CURVE SMOOTH",
"170 424 OFFCURVE",
"141 389 OFFCURVE",
"141 371 CURVE SMOOTH",
"141 364 OFFCURVE",
"144 357 OFFCURVE",
"154 357 CURVE SMOOTH",
"167 357 OFFCURVE",
"220 376 OFFCURVE",
"234 376 CURVE SMOOTH",
"260 376 OFFCURVE",
"326 316 OFFCURVE",
"326 255 CURVE SMOOTH",
"326 214 OFFCURVE",
"239 189 OFFCURVE",
"202 189 CURVE SMOOTH",
"157 189 OFFCURVE",
"111 278 OFFCURVE",
"75 278 CURVE SMOOTH",
"60 278 OFFCURVE",
"50 266 OFFCURVE",
"35 237 CURVE SMOOTH",
"30 227 OFFCURVE",
"7 179 OFFCURVE",
"7 165 CURVE SMOOTH",
"7 153 OFFCURVE",
"11 144 OFFCURVE",
"24 138 CURVE SMOOTH",
"40 131 OFFCURVE",
"48 127 OFFCURVE",
"58 110 CURVE SMOOTH",
"131 -14 OFFCURVE",
"252 -121 OFFCURVE",
"319 -121 CURVE SMOOTH",
"376 -121 OFFCURVE",
"473 -16 OFFCURVE",
"473 53 CURVE SMOOTH",
"473 77 OFFCURVE",
"472 113 OFFCURVE",
"461 113 CURVE SMOOTH",
"443 113 OFFCURVE",
"403 22 OFFCURVE",
"371 22 CURVE SMOOTH",
"346 22 OFFCURVE",
"280 65 OFFCURVE",
"257 85 CURVE"
);
},
{
closed = 1;
nodes = (
"312 102 OFFCURVE",
"469 150 OFFCURVE",
"469 289 CURVE SMOOTH",
"469 391 OFFCURVE",
"382 489 OFFCURVE",
"311 489 CURVE SMOOTH",
"277 489 OFFCURVE",
"226 457 OFFCURVE",
"202 438 CURVE SMOOTH",
"174 416 OFFCURVE",
"161 386 OFFCURVE",
"161 375 CURVE SMOOTH",
"161 369 OFFCURVE",
"163 362 OFFCURVE",
"173 362 CURVE SMOOTH",
"186 362 OFFCURVE",
"225 386 OFFCURVE",
"245 386 CURVE SMOOTH",
"277 386 OFFCURVE",
"349 333 OFFCURVE",
"349 258 CURVE SMOOTH",
"349 217 OFFCURVE",
"288 175 OFFCURVE",
"197 175 CURVE SMOOTH",
"151 175 OFFCURVE",
"108 254 OFFCURVE",
"79 254 CURVE SMOOTH",
"70 254 OFFCURVE",
"65 249 OFFCURVE",
"54 230 CURVE SMOOTH",
"46 217 OFFCURVE",
"26 180 OFFCURVE",
"26 167 CURVE SMOOTH",
"26 159 OFFCURVE",
"29 156 OFFCURVE",
"41 149 CURVE SMOOTH",
"53 142 OFFCURVE",
"61 136 OFFCURVE",
"76 112 CURVE SMOOTH",
"133 20 OFFCURVE",
"255 -108 OFFCURVE",
"331 -108 CURVE SMOOTH",
"383 -108 OFFCURVE",
"467 -10 OFFCURVE",
"467 38 CURVE SMOOTH",
"467 54 OFFCURVE",
"465 77 OFFCURVE",
"456 77 CURVE SMOOTH",
"441 77 OFFCURVE",
"405 5 OFFCURVE",
"372 5 CURVE SMOOTH",
"346 5 OFFCURVE",
"258 55 OFFCURVE",
"230 96 CURVE"
);
},
{
closed = 1;
nodes = (
"0 606 LINE",
"-17 606 OFFCURVE",
"-25 602 OFFCURVE",
"-30 587 CURVE SMOOTH",
"-47 534 LINE SMOOTH",
"-53 517 OFFCURVE",
"-46 512 OFFCURVE",
"-26 512 CURVE SMOOTH",
"523 512 LINE",
"552 512 OFFCURVE",
"565 509 OFFCURVE",
"572 531 CURVE SMOOTH",
"589 584 LINE SMOOTH",
"594 599 OFFCURVE",
"587 606 OFFCURVE",
"568 606 CURVE SMOOTH"
);
},
{
closed = 1;
nodes = (
"439 615 OFFCURVE",
"492 672 OFFCURVE",
"492 729 CURVE SMOOTH",
"492 771 OFFCURVE",
"469 803 OFFCURVE",
"412 803 CURVE SMOOTH",
"345 803 OFFCURVE",
"234 774 OFFCURVE",
"197 774 CURVE SMOOTH",
"171 774 OFFCURVE",
"148 799 OFFCURVE",
"148 817 CURVE SMOOTH",
"148 836 OFFCURVE",
"192 855 OFFCURVE",
"192 862 CURVE SMOOTH",
"192 866 OFFCURVE",
"179 867 OFFCURVE",
"169 867 CURVE SMOOTH",
"121 867 OFFCURVE",
"83 826 OFFCURVE",
"83 782 CURVE SMOOTH",
"83 740 OFFCURVE",
"129 690 OFFCURVE",
"198 690 CURVE SMOOTH",
"245 690 OFFCURVE",
"339 701 OFFCURVE",
"364 701 CURVE SMOOTH",
"392 701 OFFCURVE",
"399 685 OFFCURVE",
"399 674 CURVE SMOOTH",
"399 651 OFFCURVE",
"364 613 OFFCURVE",
"342 599 CURVE",
"423 600 LINE"
);
}
);
};
layerId = "EC1E6058-8D86-4671-8808-9A08B2A725FC";
paths = (
{
closed = 1;
nodes = (
"-53 517 OFFCURVE",
"-46 512 OFFCURVE",
"-26 512 CURVE SMOOTH",
"523 512 LINE SMOOTH",
"552 512 OFFCURVE",
"565 509 OFFCURVE",
"572 531 CURVE SMOOTH",
"589 584 LINE SMOOTH",
"594 599 OFFCURVE",
"587 606 OFFCURVE",
"568 606 CURVE SMOOTH",
"429 606 LINE",
"449 627 OFFCURVE",
"492 678 OFFCURVE",
"492 729 CURVE SMOOTH",
"492 771 OFFCURVE",
"469 803 OFFCURVE",
"412 803 CURVE SMOOTH",
"345 803 OFFCURVE",
"234 774 OFFCURVE",
"197 774 CURVE SMOOTH",
"171 774 OFFCURVE",
"148 799 OFFCURVE",
"148 817 CURVE SMOOTH",
"148 836 OFFCURVE",
"192 855 OFFCURVE",
"192 862 CURVE SMOOTH",
"192 866 OFFCURVE",
"179 867 OFFCURVE",
"169 867 CURVE SMOOTH",
"121 867 OFFCURVE",
"83 826 OFFCURVE",
"83 782 CURVE SMOOTH",
"83 740 OFFCURVE",
"129 690 OFFCURVE",
"198 690 CURVE SMOOTH",
"245 690 OFFCURVE",
"339 701 OFFCURVE",
"364 701 CURVE SMOOTH",
"392 701 OFFCURVE",
"399 685 OFFCURVE",
"399 674 CURVE SMOOTH",
"399 654 OFFCURVE",
"373 623 OFFCURVE",
"352 606 CURVE",
"0 606 LINE SMOOTH",
"-17 606 OFFCURVE",
"-25 602 OFFCURVE",
"-30 587 CURVE SMOOTH",
"-47 534 LINE SMOOTH"
);
},
{
closed = 1;
nodes = (
"26 159 OFFCURVE",
"29 156 OFFCURVE",
"41 149 CURVE SMOOTH",
"53 142 OFFCURVE",
"61 136 OFFCURVE",
"76 112 CURVE SMOOTH",
"133 20 OFFCURVE",
"255 -108 OFFCURVE",
"331 -108 CURVE SMOOTH",
"383 -108 OFFCURVE",
"467 -10 OFFCURVE",
"467 38 CURVE SMOOTH",
"467 54 OFFCURVE",
"465 77 OFFCURVE",
"456 77 CURVE SMOOTH",
"441 77 OFFCURVE",
"405 5 OFFCURVE",
"372 5 CURVE SMOOTH",
"346 5 OFFCURVE",
"258 55 OFFCURVE",
"230 96 CURVE",
"312 102 OFFCURVE",
"469 150 OFFCURVE",
"469 289 CURVE SMOOTH",
"469 391 OFFCURVE",
"382 489 OFFCURVE",
"311 489 CURVE SMOOTH",
"277 489 OFFCURVE",
"226 457 OFFCURVE",
"202 438 CURVE SMOOTH",
"174 416 OFFCURVE",
"161 386 OFFCURVE",
"161 375 CURVE SMOOTH",
"161 369 OFFCURVE",
"163 362 OFFCURVE",
"173 362 CURVE SMOOTH",
"186 362 OFFCURVE",
"225 386 OFFCURVE",
"245 386 CURVE SMOOTH",
"277 386 OFFCURVE",
"349 333 OFFCURVE",
"349 258 CURVE SMOOTH",
"349 217 OFFCURVE",
"288 175 OFFCURVE",
"197 175 CURVE SMOOTH",
"151 175 OFFCURVE",
"108 254 OFFCURVE",
"79 254 CURVE SMOOTH",
"70 254 OFFCURVE",
"65 249 OFFCURVE",
"54 230 CURVE SMOOTH",
"46 217 OFFCURVE",
"26 180 OFFCURVE",
"26 167 CURVE SMOOTH"
);
}
);
width = 523;
},
{
hints = (
{
horizontal = 1;
place = "{-111, 131}";
type = Stem;
},
{
horizontal = 1;
place = "{345, 107}";
type = Stem;
},
{
horizontal = 1;
place = "{630, 120}";
type = Stem;
},
{
place = "{61, 84}";
type = Stem;
},
{
place = "{353, 106}";
type = Stem;
},
{
horizontal = 1;
place = "{621, 102}";
type = Stem;
},
{
horizontal = 1;
place = "{568, 9}";
type = Stem;
},
{
place = "{289, 151}";
type = Stem;
},
{
horizontal = 1;
place = "{468, 109}";
type = Stem;
}
);
layerId = "959F729E-ED2F-45C2-951D-81A6BBE10EFE";
paths = (
{
closed = 1;
nodes = (
"-59 518 OFFCURVE",
"-52 511 OFFCURVE",
"-33 511 CURVE SMOOTH",
"529 511 LINE SMOOTH",
"561 511 OFFCURVE",
"571 509 OFFCURVE",
"578 530 CURVE SMOOTH",
"603 606 LINE SMOOTH",
"608 621 OFFCURVE",
"601 628 OFFCURVE",
"582 628 CURVE SMOOTH",
"455 628 LINE",
"479 655 OFFCURVE",
"500 689 OFFCURVE",
"500 735 CURVE SMOOTH",
"499 783 OFFCURVE",
"464 817 OFFCURVE",
"405 817 CURVE SMOOTH",
"348 817 OFFCURVE",
"220 787 OFFCURVE",
"195 787 CURVE SMOOTH",
"178 787 OFFCURVE",
"157 806 OFFCURVE",
"157 821 CURVE SMOOTH",
"157 833 OFFCURVE",
"191 853 OFFCURVE",
"191 860 CURVE SMOOTH",
"191 866 OFFCURVE",
"172 867 OFFCURVE",
"161 867 CURVE SMOOTH",
"114 867 OFFCURVE",
"68 818 OFFCURVE",
"68 776 CURVE SMOOTH",
"68 714 OFFCURVE",
"131 678 OFFCURVE",
"204 678 CURVE SMOOTH",
"238 678 OFFCURVE",
"328 689 OFFCURVE",
"353 689 CURVE SMOOTH",
"381 689 OFFCURVE",
"386 674 OFFCURVE",
"386 666 CURVE SMOOTH",
"386 657 OFFCURVE",
"378 641 OFFCURVE",
"363 628 CURVE",
"0 628 LINE SMOOTH",
"-15 628 OFFCURVE",
"-25 626 OFFCURVE",
"-30 609 CURVE SMOOTH",
"-54 533 LINE SMOOTH"
);
},
{
closed = 1;
nodes = (
"9 154 OFFCURVE",
"13 145 OFFCURVE",
"25 139 CURVE SMOOTH",
"41 132 OFFCURVE",
"49 128 OFFCURVE",
"60 110 CURVE SMOOTH",
"131 -11 OFFCURVE",
"252 -120 OFFCURVE",
"320 -120 CURVE SMOOTH",
"377 -120 OFFCURVE",
"473 -16 OFFCURVE",
"473 52 CURVE SMOOTH",
"473 75 OFFCURVE",
"471 110 OFFCURVE",
"461 110 CURVE SMOOTH",
"443 110 OFFCURVE",
"403 21 OFFCURVE",
"371 21 CURVE SMOOTH",
"346 21 OFFCURVE",
"278 64 OFFCURVE",
"255 86 CURVE",
"296 86 OFFCURVE",
"488 142 OFFCURVE",
"488 301 CURVE SMOOTH",
"488 390 OFFCURVE",
"401 492 OFFCURVE",
"321 492 CURVE SMOOTH",
"285 492 OFFCURVE",
"217 458 OFFCURVE",
"195 442 CURVE SMOOTH",
"170 423 OFFCURVE",
"143 389 OFFCURVE",
"143 371 CURVE SMOOTH",
"143 364 OFFCURVE",
"146 357 OFFCURVE",
"156 357 CURVE SMOOTH",
"169 357 OFFCURVE",
"220 377 OFFCURVE",
"235 377 CURVE SMOOTH",
"261 377 OFFCURVE",
"328 317 OFFCURVE",
"328 255 CURVE SMOOTH",
"328 214 OFFCURVE",
"243 188 OFFCURVE",
"202 188 CURVE SMOOTH",
"157 188 OFFCURVE",
"111 276 OFFCURVE",
"75 276 CURVE SMOOTH",
"61 276 OFFCURVE",
"51 265 OFFCURVE",
"37 236 CURVE SMOOTH",
"31 226 OFFCURVE",
"9 179 OFFCURVE",
"9 165 CURVE SMOOTH"
);
}
);
width = 529.41667;
}
);
leftKerningGroup = VowelA.bn;
note = VowelI.bn;
rightKerningGroup = VowelA.bn;
unicode = 0987;
},
{
glyphname = VowelIi.bn;
lastChange = "2022-01-18 14:03:00 +0000";
layers = (
{
background = {
paths = (
{
closed = 1;
nodes = (
"314.4 338.23 OFFCURVE",
"314.24 391.95 OFFCURVE",
"291.99 424.84 CURVE SMOOTH",
"263 468 OFFCURVE",
"223 494 OFFCURVE",
"175.63 494.08 CURVE SMOOTH",
"139.6 494.08 OFFCURVE",
"91.31 462.63 OFFCURVE",
"61.35 431.74 CURVE SMOOTH",
"45 415 OFFCURVE",
"22 373 OFFCURVE",
"21.83 354.57 CURVE SMOOTH",
"21.83 346.02 OFFCURVE",
"26.51 340.94 OFFCURVE",
"34.72 340.94 CURVE SMOOTH",
"51.42 340.94 OFFCURVE",
"102.71 371.39 OFFCURVE",
"121.52 371.39 CURVE SMOOTH",
"143.93 371.39 OFFCURVE",
"179.67 316.92 OFFCURVE",
"179.67 288.14 CURVE SMOOTH",
"179.67 257.05 OFFCURVE",
"141 210 OFFCURVE",
"122 196 CURVE SMOOTH",
"101 181 OFFCURVE",
"75.28 178.1 OFFCURVE",
"43.25 178.1 CURVE SMOOTH",
"14 178 OFFCURVE",
"0 176 OFFCURVE",
"0 153 CURVE SMOOTH",
"0 124 OFFCURVE",
"31 36 OFFCURVE",
"58 36 CURVE SMOOTH",
"121 36 OFFCURVE",
"248 111 OFFCURVE",
"318.8 163.61 CURVE SMOOTH",
"359.91 194.23 OFFCURVE",
"396.73 223.39 OFFCURVE",
"396.73 223.39 CURVE",
"396.73 223.39 OFFCURVE",
"350.23 129.78 OFFCURVE",
"350.23 11.42 CURVE SMOOTH",
"350.23 -28.08 OFFCURVE",
"444.17 -119.88 OFFCURVE",
"478.33 -119.88 CURVE SMOOTH",
"531 -120 OFFCURVE",
"600 -56 OFFCURVE",
"600 2 CURVE SMOOTH",
"600 11 OFFCURVE",
"600 28 OFFCURVE",
"590.94 27.74 CURVE SMOOTH",
"578 28 OFFCURVE",
"553 -7 OFFCURVE",
"540.22 -6.72 CURVE SMOOTH",
"525.21 -6.72 OFFCURVE",
"482.59 28.5 OFFCURVE",
"482.59 44.51 CURVE SMOOTH",
"482.59 77.62 OFFCURVE",
"506.59 176.42 OFFCURVE",
"530.16 244.74 CURVE SMOOTH",
"539.69 271.43 OFFCURVE",
"588.87 288.29 OFFCURVE",
"588.87 303.45 CURVE SMOOTH",
"588.87 331.2 OFFCURVE",
"537.5 419.35 OFFCURVE",
"515.08 419.35 CURVE SMOOTH",
"492.66 419.35 OFFCURVE",
"384.84 367.04 OFFCURVE",
"309.45 307.12 CURVE"
);
},
{
closed = 1;
nodes = (
"585 689 OFFCURVE",
"584 731 CURVE SMOOTH",
"583 783 OFFCURVE",
"550 818 OFFCURVE",
"488 818 CURVE SMOOTH",
"432 818 OFFCURVE",
"263 788 OFFCURVE",
"239 788 CURVE SMOOTH",
"223 788 OFFCURVE",
"202 807 OFFCURVE",
"202 821 CURVE SMOOTH",
"202 833 OFFCURVE",
"235 853 OFFCURVE",
"235 860 CURVE SMOOTH",
"235 866 OFFCURVE",
"215 867 OFFCURVE",
"204 867 CURVE SMOOTH",
"157 867 OFFCURVE",
"111 817 OFFCURVE",
"111 775 CURVE SMOOTH",
"111 712 OFFCURVE",
"175 677 OFFCURVE",
"248 677 CURVE SMOOTH",
"281 677 OFFCURVE",
"411 687 OFFCURVE",
"436 687 CURVE SMOOTH",
"464 687 OFFCURVE",
"469 673 OFFCURVE",
"469 668 CURVE SMOOTH",
"469 655 OFFCURVE",
"457 634 OFFCURVE",
"435 620 CURVE",
"532 620 LINE",
"564 653 OFFCURVE"
);
},
{
closed = 1;
nodes = (
"0 629.99 LINE",
"-32 630 OFFCURVE",
"-42 632 OFFCURVE",
"-49 610.99 CURVE SMOOTH",
"-74 532.99 LINE SMOOTH",
"-79.33 518.32 OFFCURVE",
"-72.33 510.99 OFFCURVE",
"-53 510.99 CURVE SMOOTH",
"630.14 510.99 LINE",
"662 511 OFFCURVE",
"672 509 OFFCURVE",
"679.14 529.99 CURVE SMOOTH",
"704.14 607.99 LINE SMOOTH",
"709.38 622.66 OFFCURVE",
"702.33 629.99 OFFCURVE",
"683 629.99 CURVE SMOOTH"
);
},
{
closed = 1;
nodes = (
"0 606 LINE",
"-17 606 OFFCURVE",
"-25 602 OFFCURVE",
"-30 587 CURVE SMOOTH",
"-47 534 LINE SMOOTH",
"-53 517 OFFCURVE",
"-46 512 OFFCURVE",
"-26 512 CURVE SMOOTH",
"600 512 LINE",
"629 512 OFFCURVE",
"642 509 OFFCURVE",
"649 531 CURVE SMOOTH",
"666 584 LINE SMOOTH",
"671 599 OFFCURVE",
"664 606 OFFCURVE",
"645 606 CURVE SMOOTH"
);
},
{
closed = 1;
nodes = (
"312 310 OFFCURVE",
"317 375 OFFCURVE",
"289 422 CURVE SMOOTH",
"268 458 OFFCURVE",
"219 489 OFFCURVE",
"185 489 CURVE SMOOTH",
"148 489 OFFCURVE",
"92 445 OFFCURVE",
"69 418 CURVE SMOOTH",
"53 400 OFFCURVE",
"40 370 OFFCURVE",
"40 356 CURVE SMOOTH",
"40 348 OFFCURVE",
"44 344 OFFCURVE",
"50 344 CURVE SMOOTH",
"68 344 OFFCURVE",
"109 377 OFFCURVE",
"128 377 CURVE SMOOTH",
"157 377 OFFCURVE",
"200 317 OFFCURVE",
"200 288 CURVE SMOOTH",
"200 250 OFFCURVE",
"158 195 OFFCURVE",
"133 178 CURVE SMOOTH",
"112 163 OFFCURVE",
"87 160 OFFCURVE",
"55 160 CURVE SMOOTH",
"26 160 OFFCURVE",
"21 156 OFFCURVE",
"21 138 CURVE SMOOTH",
"21 119 OFFCURVE",
"45 53 OFFCURVE",
"67 53 CURVE SMOOTH",
"119 53 OFFCURVE",
"258 132 OFFCURVE",
"333 188 CURVE SMOOTH",
"366 212 OFFCURVE",
"403 243 OFFCURVE",
"416 252 CURVE",
"420 248 LINE",
"420 248 OFFCURVE",
"359 112 OFFCURVE",
"359 8 CURVE SMOOTH",
"359 -37 OFFCURVE",
"446 -120 OFFCURVE",
"480 -120 CURVE SMOOTH",
"514 -120 OFFCURVE",
"598 -56 OFFCURVE",
"598 2 CURVE SMOOTH",
"598 11 OFFCURVE",
"597 28 OFFCURVE",
"590 28 CURVE SMOOTH",
"579 28 OFFCURVE",
"549 -18 OFFCURVE",
"532 -18 CURVE SMOOTH",
"514 -18 OFFCURVE",
"469 23 OFFCURVE",
"469 39 CURVE SMOOTH",
"469 79 OFFCURVE",
"493 184 OFFCURVE",
"516 253 CURVE SMOOTH",
"526 279 OFFCURVE",
"570 293 OFFCURVE",
"570 308 CURVE SMOOTH",
"570 326 OFFCURVE",
"530 399 OFFCURVE",
"513 399 CURVE SMOOTH",
"491 399 OFFCURVE",
"383 343 OFFCURVE",
"307 286 CURVE"
);
},
{
closed = 1;
nodes = (
"521 615 OFFCURVE",
"574 672 OFFCURVE",
"574 729 CURVE SMOOTH",
"574 771 OFFCURVE",
"551 803 OFFCURVE",
"494 803 CURVE SMOOTH",
"427 803 OFFCURVE",
"276 774 OFFCURVE",
"239 774 CURVE SMOOTH",
"213 774 OFFCURVE",
"190 799 OFFCURVE",
"190 817 CURVE SMOOTH",
"190 836 OFFCURVE",
"234 855 OFFCURVE",
"234 862 CURVE SMOOTH",
"234 866 OFFCURVE",
"221 867 OFFCURVE",
"211 867 CURVE SMOOTH",
"163 867 OFFCURVE",
"125 826 OFFCURVE",
"125 782 CURVE SMOOTH",
"125 740 OFFCURVE",
"171 690 OFFCURVE",
"240 690 CURVE SMOOTH",
"287 690 OFFCURVE",
"421 701 OFFCURVE",
"446 701 CURVE SMOOTH",
"474 701 OFFCURVE",
"481 685 OFFCURVE",
"481 674 CURVE SMOOTH",
"481 651 OFFCURVE",
"446 613 OFFCURVE",
"424 599 CURVE",
"505 600 LINE"
);
}
);
};
layerId = "EC1E6058-8D86-4671-8808-9A08B2A725FC";
paths = (
{
closed = 1;
nodes = (
"-53 517 OFFCURVE",
"-46 512 OFFCURVE",
"-26 512 CURVE SMOOTH",
"600 512 LINE SMOOTH",
"629 512 OFFCURVE",
"642 509 OFFCURVE",
"649 531 CURVE SMOOTH",
"666 584 LINE SMOOTH",
"671 599 OFFCURVE",
"664 606 OFFCURVE",
"645 606 CURVE SMOOTH",
"511 606 LINE",
"531 627 OFFCURVE",
"574 678 OFFCURVE",
"574 729 CURVE SMOOTH",
"574 771 OFFCURVE",
"551 803 OFFCURVE",
"494 803 CURVE SMOOTH",
"427 803 OFFCURVE",
"276 774 OFFCURVE",
"239 774 CURVE SMOOTH",
"213 774 OFFCURVE",
"190 799 OFFCURVE",
"190 817 CURVE SMOOTH",
"190 836 OFFCURVE",
"234 855 OFFCURVE",
"234 862 CURVE SMOOTH",
"234 866 OFFCURVE",
"221 867 OFFCURVE",
"211 867 CURVE SMOOTH",
"163 867 OFFCURVE",
"125 826 OFFCURVE",
"125 782 CURVE SMOOTH",
"125 740 OFFCURVE",
"171 690 OFFCURVE",
"240 690 CURVE SMOOTH",
"287 690 OFFCURVE",
"421 701 OFFCURVE",
"446 701 CURVE SMOOTH",
"474 701 OFFCURVE",
"481 685 OFFCURVE",
"481 674 CURVE SMOOTH",
"481 654 OFFCURVE",
"455 623 OFFCURVE",
"434 606 CURVE",
"0 606 LINE SMOOTH",
"-17 606 OFFCURVE",
"-25 602 OFFCURVE",
"-30 587 CURVE SMOOTH",
"-47 534 LINE SMOOTH"
);
},
{
closed = 1;
nodes = (
"21 119 OFFCURVE",
"45 53 OFFCURVE",
"67 53 CURVE SMOOTH",
"119 53 OFFCURVE",
"258 132 OFFCURVE",
"333 188 CURVE SMOOTH",
"366 212 OFFCURVE",
"403 243 OFFCURVE",
"416 252 CURVE",
"420 248 LINE",
"420 248 OFFCURVE",
"359 112 OFFCURVE",
"359 8 CURVE SMOOTH",
"359 -37 OFFCURVE",
"446 -120 OFFCURVE",
"480 -120 CURVE SMOOTH",
"514 -120 OFFCURVE",
"598 -56 OFFCURVE",
"598 2 CURVE SMOOTH",
"598 11 OFFCURVE",
"597 28 OFFCURVE",
"590 28 CURVE SMOOTH",
"579 28 OFFCURVE",
"549 -18 OFFCURVE",
"532 -18 CURVE SMOOTH",
"514 -18 OFFCURVE",
"469 23 OFFCURVE",
"469 39 CURVE SMOOTH",
"469 79 OFFCURVE",
"493 184 OFFCURVE",
"516 253 CURVE SMOOTH",
"526 279 OFFCURVE",
"570 293 OFFCURVE",
"570 308 CURVE SMOOTH",
"570 326 OFFCURVE",
"530 399 OFFCURVE",
"513 399 CURVE SMOOTH",
"491 399 OFFCURVE",
"383 343 OFFCURVE",
"307 286 CURVE",
"312 310 OFFCURVE",
"317 375 OFFCURVE",
"289 422 CURVE SMOOTH",
"268 458 OFFCURVE",
"219 489 OFFCURVE",
"185 489 CURVE SMOOTH",
"148 489 OFFCURVE",
"92 445 OFFCURVE",
"69 418 CURVE SMOOTH",
"53 400 OFFCURVE",
"40 370 OFFCURVE",
"40 356 CURVE SMOOTH",
"40 348 OFFCURVE",
"44 344 OFFCURVE",
"50 344 CURVE SMOOTH",
"68 344 OFFCURVE",
"109 377 OFFCURVE",
"128 377 CURVE SMOOTH",
"157 377 OFFCURVE",
"200 317 OFFCURVE",
"200 288 CURVE SMOOTH",
"200 250 OFFCURVE",
"158 195 OFFCURVE",
"133 178 CURVE SMOOTH",
"112 163 OFFCURVE",
"87 160 OFFCURVE",
"55 160 CURVE SMOOTH",
"26 160 OFFCURVE",
"21 156 OFFCURVE",
"21 138 CURVE SMOOTH"
);
}
);
width = 600;
},
{
hints = (
{
horizontal = 1;
place = "{-110, 104}";
type = Stem;
},
{
horizontal = 1;
place = "{34, 130}";
type = Stem;
},
{
horizontal = 1;
place = "{340, 112}";
type = Stem;
},
{
place = "{111, 84}";
type = Stem;
},
{
place = "{321, 121}";
type = Stem;
},
{
horizontal = 1;
place = "{630, 120}";
type = Stem;
},
{
place = "{402, 106}";
type = Stem;
},
{
horizontal = 1;
place = "{621, 102}";
type = Stem;
},
{
horizontal = 1;
place = "{568, 9}";
type = Stem;
},
{
horizontal = 1;
place = "{468, 109}";
type = Stem;
}
);
layerId = "959F729E-ED2F-45C2-951D-81A6BBE10EFE";
paths = (
{
closed = 1;
nodes = (
"-77 518 OFFCURVE",
"-70 511 OFFCURVE",
"-51 511 CURVE SMOOTH",
"628 511 LINE SMOOTH",
"659 511 OFFCURVE",
"670 509 OFFCURVE",
"677 530 CURVE SMOOTH",
"701 606 LINE SMOOTH",
"706 621 OFFCURVE",
"699 628 OFFCURVE",
"680 628 CURVE SMOOTH",
"539 628 LINE",
"565 657 OFFCURVE",
"584 692 OFFCURVE",
"583 731 CURVE SMOOTH",
"582 782 OFFCURVE",
"550 817 OFFCURVE",
"489 817 CURVE SMOOTH",
"432 817 OFFCURVE",
"264 787 OFFCURVE",
"239 787 CURVE SMOOTH",
"222 787 OFFCURVE",
"201 806 OFFCURVE",
"201 821 CURVE SMOOTH",
"201 833 OFFCURVE",
"235 853 OFFCURVE",
"235 860 CURVE SMOOTH",
"235 866 OFFCURVE",
"216 867 OFFCURVE",
"205 867 CURVE SMOOTH",
"158 867 OFFCURVE",
"112 818 OFFCURVE",
"112 776 CURVE SMOOTH",
"112 714 OFFCURVE",
"175 678 OFFCURVE",
"247 678 CURVE SMOOTH",
"282 678 OFFCURVE",
"412 688 OFFCURVE",
"437 688 CURVE SMOOTH",
"465 688 OFFCURVE",
"470 674 OFFCURVE",
"470 669 CURVE SMOOTH",
"470 658 OFFCURVE",
"461 641 OFFCURVE",
"447 628 CURVE",
"0 628 LINE SMOOTH",
"-31 628 OFFCURVE",
"-41 630 OFFCURVE",
"-47 609 CURVE SMOOTH",
"-72 533 LINE SMOOTH"
);
},
{
closed = 1;
nodes = (
"2 124 OFFCURVE",
"32 37 OFFCURVE",
"59 37 CURVE SMOOTH",
"121 37 OFFCURVE",
"249 113 OFFCURVE",
"320 166 CURVE SMOOTH",
"361 196 OFFCURVE",
"398 225 OFFCURVE",
"399 225 CURVE",
"404 221 LINE",
"397 208 OFFCURVE",
"351 119 OFFCURVE",
"351 11 CURVE SMOOTH",
"351 -29 OFFCURVE",
"444 -120 OFFCURVE",
"478 -120 CURVE SMOOTH",
"530 -120 OFFCURVE",
"600 -56 OFFCURVE",
"600 2 CURVE SMOOTH",
"600 11 OFFCURVE",
"600 28 OFFCURVE",
"591 28 CURVE SMOOTH",
"578 28 OFFCURVE",
"553 -8 OFFCURVE",
"539 -8 CURVE SMOOTH",
"524 -8 OFFCURVE",
"482 29 OFFCURVE",
"482 45 CURVE SMOOTH",
"482 78 OFFCURVE",
"506 177 OFFCURVE",
"529 246 CURVE SMOOTH",
"539 272 OFFCURVE",
"587 288 OFFCURVE",
"587 303 CURVE SMOOTH",
"587 331 OFFCURVE",
"537 417 OFFCURVE",
"515 417 CURVE SMOOTH",
"493 417 OFFCURVE",
"385 365 OFFCURVE",
"309 305 CURVE",
"314 336 OFFCURVE",
"314 391 OFFCURVE",
"292 425 CURVE SMOOTH",
"263 467 OFFCURVE",
"223 494 OFFCURVE",
"177 494 CURVE SMOOTH",
"141 494 OFFCURVE",
"91 462 OFFCURVE",
"62 431 CURVE SMOOTH",
"46 414 OFFCURVE",
"24 373 OFFCURVE",
"24 355 CURVE SMOOTH",
"24 346 OFFCURVE",
"28 341 OFFCURVE",
"36 341 CURVE SMOOTH",
"52 341 OFFCURVE",
"104 372 OFFCURVE",
"123 372 CURVE SMOOTH",
"145 372 OFFCURVE",
"182 317 OFFCURVE",
"182 288 CURVE SMOOTH",
"182 256 OFFCURVE",
"142 209 OFFCURVE",
"123 195 CURVE SMOOTH",
"102 180 OFFCURVE",
"76 177 OFFCURVE",
"44 177 CURVE SMOOTH",
"15 177 OFFCURVE",
"2 174 OFFCURVE",
"2 152 CURVE SMOOTH"
);
}
);
width = 627.5;
}
);
leftKerningGroup = VowelA.bn;
note = VowelIi.bn;
rightKerningGroup = VowelA.bn;
unicode = 0988;
},
{
glyphname = VowelU.bn;
lastChange = "2022-01-18 14:03:00 +0000";
layers = (
{
background = {
paths = (
{
closed = 1;
nodes = (
"0.01 630 LINE",
"-32 630 OFFCURVE",
"-42 632 OFFCURVE",
"-48.99 611 CURVE SMOOTH",
"-73.99 533 LINE SMOOTH",
"-79.32 518.33 OFFCURVE",
"-72.32 511 OFFCURVE",
"-52.99 511 CURVE SMOOTH",
"650.15 511 LINE",
"682 511 OFFCURVE",
"692 509 OFFCURVE",
"699.15 530 CURVE SMOOTH",
"724.15 608 LINE SMOOTH",
"729.39 622.67 OFFCURVE",
"722.34 630 OFFCURVE",
"703.01 630 CURVE SMOOTH"
);
},
{
closed = 1;
nodes = (
"585 689 OFFCURVE",
"585 735 CURVE SMOOTH",
"585 784 OFFCURVE",
"548 818 OFFCURVE",
"488 818 CURVE SMOOTH",
"432 818 OFFCURVE",
"283 788 OFFCURVE",
"259 788 CURVE SMOOTH",
"243 788 OFFCURVE",
"222 807 OFFCURVE",
"222 821 CURVE SMOOTH",
"222 833 OFFCURVE",
"255 853 OFFCURVE",
"255 860 CURVE SMOOTH",
"255 866 OFFCURVE",
"235 867 OFFCURVE",
"224 867 CURVE SMOOTH",
"177 867 OFFCURVE",
"131 817 OFFCURVE",
"131 775 CURVE SMOOTH",
"131 712 OFFCURVE",
"195 677 OFFCURVE",
"268 677 CURVE SMOOTH",
"301 677 OFFCURVE",
"411 688 OFFCURVE",
"436 688 CURVE SMOOTH",
"464 688 OFFCURVE",
"469 673 OFFCURVE",
"469 668 CURVE SMOOTH",
"469 655 OFFCURVE",
"457 633 OFFCURVE",
"435 619 CURVE",
"532 620 LINE",
"561 651 OFFCURVE"
);
},
{
closed = 1;
nodes = (
"409.41 534.2 LINE",
"271.04 537.43 LINE",
"271.04 537.43 OFFCURVE",
"257.74 433.26 OFFCURVE",
"247.64 308.63 CURVE SMOOTH",
"248 283 OFFCURVE",
"288 234 OFFCURVE",
"306.39 233.82 CURVE SMOOTH",
"323 234 OFFCURVE",
"314 270 OFFCURVE",
"329.62 276.7 CURVE SMOOTH",
"337 280 OFFCURVE",
"368.63 290.94 OFFCURVE",
"383.46 290.94 CURVE SMOOTH",
"403.2 290.94 OFFCURVE",
"420.51 230.35 OFFCURVE",
"420.51 193.27 CURVE SMOOTH",
"421 143 OFFCURVE",
"329 95 OFFCURVE",
"279 94.76 CURVE SMOOTH",
"209 95 OFFCURVE",
"173 198 OFFCURVE",
"173.21 291.6 CURVE SMOOTH",
"173 374 OFFCURVE",
"192 419 OFFCURVE",
"191.76 464.15 CURVE SMOOTH",
"191.76 470.74 OFFCURVE",
"191 479 OFFCURVE",
"178.16 478.64 CURVE SMOOTH",
"135 479 OFFCURVE",
"31 329 OFFCURVE",
"31 225 CURVE SMOOTH",
"32 91 OFFCURVE",
"128 -25 OFFCURVE",
"272.75 -25.04 CURVE SMOOTH",
"439 -25 OFFCURVE",
"585 95 OFFCURVE",
"584.59 266.26 CURVE SMOOTH",
"585 321 OFFCURVE",
"536 423 OFFCURVE",
"483.2 423.49 CURVE SMOOTH",
"443.12 423.49 OFFCURVE",
"394.09 395.15 OFFCURVE",
"394.09 395.15 CURVE"
);
},
{
closed = 1;
nodes = (
"0 606 LINE",
"-17 606 OFFCURVE",
"-25 602 OFFCURVE",
"-30 587 CURVE SMOOTH",
"-47 534 LINE SMOOTH",
"-53 517 OFFCURVE",
"-46 512 OFFCURVE",
"-26 512 CURVE SMOOTH",
"600 512 LINE",
"629 512 OFFCURVE",
"642 509 OFFCURVE",
"649 531 CURVE SMOOTH",
"666 584 LINE SMOOTH",
"671 599 OFFCURVE",
"664 606 OFFCURVE",
"645 606 CURVE SMOOTH"
);
},
{
closed = 1;
nodes = (
"396 534 LINE",
"283 537 LINE",
"283 537 OFFCURVE",
"270 433 OFFCURVE",
"260 309 CURVE SMOOTH",
"258 283 OFFCURVE",
"296 244 OFFCURVE",
"306 244 CURVE SMOOTH",
"316 244 OFFCURVE",
"314 285 OFFCURVE",
"330 292 CURVE SMOOTH",
"337 295 OFFCURVE",
"375 306 OFFCURVE",
"389 306 CURVE SMOOTH",
"420 306 OFFCURVE",
"439 230 OFFCURVE",
"439 191 CURVE SMOOTH",
"439 139 OFFCURVE",
"359 79 OFFCURVE",
"279 79 CURVE SMOOTH",
"199 79 OFFCURVE",
"161 163 OFFCURVE",
"161 271 CURVE SMOOTH",
"161 344 OFFCURVE",
"192 432 OFFCURVE",
"192 464 CURVE SMOOTH",
"192 473 OFFCURVE",
"189 479 OFFCURVE",
"181 479 CURVE SMOOTH",
"155 479 OFFCURVE",
"46 335 OFFCURVE",
"46 225 CURVE SMOOTH",
"46 110 OFFCURVE",
"128 -10 OFFCURVE",
"273 -10 CURVE SMOOTH",
"439 -10 OFFCURVE",
"570 119 OFFCURVE",
"570 257 CURVE SMOOTH",
"570 325 OFFCURVE",
"519 408 OFFCURVE",
"482 408 CURVE SMOOTH",
"441 408 OFFCURVE",
"378 369 OFFCURVE",
"378 369 CURVE"
);
},
{
closed = 1;
nodes = (
"520 615 OFFCURVE",
"573 672 OFFCURVE",
"573 729 CURVE SMOOTH",
"573 771 OFFCURVE",
"550 803 OFFCURVE",
"493 803 CURVE SMOOTH",
"426 803 OFFCURVE",
"295 774 OFFCURVE",
"258 774 CURVE SMOOTH",
"232 774 OFFCURVE",
"209 799 OFFCURVE",
"209 817 CURVE SMOOTH",
"209 836 OFFCURVE",
"253 855 OFFCURVE",
"253 862 CURVE SMOOTH",
"253 866 OFFCURVE",
"240 867 OFFCURVE",
"230 867 CURVE SMOOTH",
"182 867 OFFCURVE",
"144 826 OFFCURVE",
"144 782 CURVE SMOOTH",
"144 740 OFFCURVE",
"190 690 OFFCURVE",
"259 690 CURVE SMOOTH",
"306 690 OFFCURVE",
"420 701 OFFCURVE",
"445 701 CURVE SMOOTH",
"473 701 OFFCURVE",
"480 685 OFFCURVE",
"480 674 CURVE SMOOTH",
"480 651 OFFCURVE",
"445 613 OFFCURVE",
"423 599 CURVE",
"504 600 LINE"
);
}
);
};
layerId = "EC1E6058-8D86-4671-8808-9A08B2A725FC";
paths = (
{
closed = 1;
nodes = (
"-53 517 OFFCURVE",
"-46 512 OFFCURVE",
"-26 512 CURVE SMOOTH",
"280 512 LINE",
"276 474 OFFCURVE",
"267 396 OFFCURVE",
"260 309 CURVE SMOOTH",
"258 283 OFFCURVE",
"296 244 OFFCURVE",
"306 244 CURVE SMOOTH",
"316 244 OFFCURVE",
"314 285 OFFCURVE",
"330 292 CURVE SMOOTH",
"337 295 OFFCURVE",
"375 306 OFFCURVE",
"389 306 CURVE SMOOTH",
"420 306 OFFCURVE",
"439 230 OFFCURVE",
"439 191 CURVE SMOOTH",
"439 139 OFFCURVE",
"359 79 OFFCURVE",
"279 79 CURVE SMOOTH",
"199 79 OFFCURVE",
"161 163 OFFCURVE",
"161 271 CURVE SMOOTH",
"161 344 OFFCURVE",
"192 432 OFFCURVE",
"192 464 CURVE SMOOTH",
"192 473 OFFCURVE",
"189 479 OFFCURVE",
"181 479 CURVE SMOOTH",
"155 479 OFFCURVE",
"46 335 OFFCURVE",
"46 225 CURVE SMOOTH",
"46 110 OFFCURVE",
"128 -10 OFFCURVE",
"273 -10 CURVE SMOOTH",
"439 -10 OFFCURVE",
"570 119 OFFCURVE",
"570 257 CURVE SMOOTH",
"570 325 OFFCURVE",
"519 408 OFFCURVE",
"482 408 CURVE SMOOTH",
"441 408 OFFCURVE",
"378 369 OFFCURVE",
"378 369 CURVE",
"394 512 LINE",
"600 512 LINE SMOOTH",
"629 512 OFFCURVE",
"642 509 OFFCURVE",
"649 531 CURVE SMOOTH",
"666 584 LINE SMOOTH",
"671 599 OFFCURVE",
"664 606 OFFCURVE",
"645 606 CURVE SMOOTH",
"510 606 LINE",
"530 627 OFFCURVE",
"573 678 OFFCURVE",
"573 729 CURVE SMOOTH",
"573 771 OFFCURVE",
"550 803 OFFCURVE",
"493 803 CURVE SMOOTH",
"426 803 OFFCURVE",
"295 774 OFFCURVE",
"258 774 CURVE SMOOTH",
"232 774 OFFCURVE",
"209 799 OFFCURVE",
"209 817 CURVE SMOOTH",
"209 836 OFFCURVE",
"253 855 OFFCURVE",
"253 862 CURVE SMOOTH",
"253 866 OFFCURVE",
"240 867 OFFCURVE",
"230 867 CURVE SMOOTH",
"182 867 OFFCURVE",
"144 826 OFFCURVE",
"144 782 CURVE SMOOTH",
"144 740 OFFCURVE",
"190 690 OFFCURVE",
"259 690 CURVE SMOOTH",
"306 690 OFFCURVE",
"420 701 OFFCURVE",
"445 701 CURVE SMOOTH",
"473 701 OFFCURVE",
"480 685 OFFCURVE",
"480 674 CURVE SMOOTH",
"480 654 OFFCURVE",
"454 623 OFFCURVE",
"433 606 CURVE",
"0 606 LINE SMOOTH",
"-17 606 OFFCURVE",
"-25 602 OFFCURVE",
"-30 587 CURVE SMOOTH",
"-47 534 LINE SMOOTH"
);
}
);
width = 600;
},
{
hints = (
{
horizontal = 1;
place = "{-23, 110}";
type = Stem;
},
{
place = "{29, 130}";
type = Stem;
},
{
place = "{385, 150}";
type = Stem;
},
{
horizontal = 1;
place = "{630, 120}";
type = Stem;
},
{
place = "{129, 84}";
type = Stem;
},
{
place = "{421, 106}";
type = Stem;
},
{
horizontal = 1;
place = "{621, 102}";
type = Stem;
},
{
horizontal = 1;
place = "{568, 9}";
type = Stem;
},
{
horizontal = 1;
place = "{468, 109}";
type = Stem;
}
);
layerId = "959F729E-ED2F-45C2-951D-81A6BBE10EFE";
paths = (
{
closed = 1;
nodes = (
"-77 518 OFFCURVE",
"-70 511 OFFCURVE",
"-51 511 CURVE SMOOTH",
"269 511 LINE",
"264 472 OFFCURVE",
"256 395 OFFCURVE",
"249 309 CURVE SMOOTH",
"249 283 OFFCURVE",
"289 235 OFFCURVE",
"306 235 CURVE SMOOTH",
"322 235 OFFCURVE",
"314 271 OFFCURVE",
"330 278 CURVE SMOOTH",
"337 281 OFFCURVE",
"370 292 OFFCURVE",
"384 292 CURVE SMOOTH",
"404 292 OFFCURVE",
"423 230 OFFCURVE",
"423 193 CURVE SMOOTH",
"423 143 OFFCURVE",
"332 94 OFFCURVE",
"279 94 CURVE SMOOTH",
"208 94 OFFCURVE",
"172 195 OFFCURVE",
"172 290 CURVE SMOOTH",
"172 372 OFFCURVE",
"192 420 OFFCURVE",
"192 464 CURVE SMOOTH",
"192 471 OFFCURVE",
"191 479 OFFCURVE",
"178 479 CURVE SMOOTH",
"137 479 OFFCURVE",
"32 330 OFFCURVE",
"32 225 CURVE SMOOTH",
"33 93 OFFCURVE",
"128 -24 OFFCURVE",
"273 -24 CURVE SMOOTH",
"439 -24 OFFCURVE",
"584 97 OFFCURVE",
"584 265 CURVE SMOOTH",
"584 321 OFFCURVE",
"535 422 OFFCURVE",
"483 422 CURVE SMOOTH",
"443 422 OFFCURVE",
"393 393 OFFCURVE",
"393 393 CURVE",
"406 511 LINE",
"646 511 LINE SMOOTH",
"678 511 OFFCURVE",
"688 509 OFFCURVE",
"695 530 CURVE SMOOTH",
"719 606 LINE SMOOTH",
"724 621 OFFCURVE",
"717 628 OFFCURVE",
"698 628 CURVE SMOOTH",
"538 628 LINE",
"563 656 OFFCURVE",
"584 693 OFFCURVE",
"584 735 CURVE SMOOTH",
"584 783 OFFCURVE",
"548 817 OFFCURVE",
"488 817 CURVE SMOOTH",
"432 817 OFFCURVE",
"284 787 OFFCURVE",
"259 787 CURVE SMOOTH",
"242 787 OFFCURVE",
"221 806 OFFCURVE",
"221 821 CURVE SMOOTH",
"221 833 OFFCURVE",
"255 853 OFFCURVE",
"255 860 CURVE SMOOTH",
"255 866 OFFCURVE",
"235 867 OFFCURVE",
"225 867 CURVE SMOOTH",
"177 867 OFFCURVE",
"132 818 OFFCURVE",
"132 776 CURVE SMOOTH",
"132 714 OFFCURVE",
"195 678 OFFCURVE",
"267 678 CURVE SMOOTH",
"301 678 OFFCURVE",
"412 689 OFFCURVE",
"437 689 CURVE SMOOTH",
"465 689 OFFCURVE",
"470 674 OFFCURVE",
"470 669 CURVE SMOOTH",
"470 658 OFFCURVE",
"461 641 OFFCURVE",
"448 628 CURVE",
"0 628 LINE SMOOTH",
"-31 628 OFFCURVE",
"-41 630 OFFCURVE",
"-47 609 CURVE SMOOTH",
"-72 533 LINE SMOOTH"
);
}
);
width = 645.83333;
}
);
leftKerningGroup = VowelA.bn;
note = VowelU.bn;
rightKerningGroup = VowelA.bn;
unicode = 0989;
},
{
glyphname = VowelUu.bn;
lastChange = "2022-01-18 14:03:00 +0000";
layers = (
{
background = {
paths = (
{
closed = 1;
nodes = (
"0 630 LINE",
"-32 630 OFFCURVE",
"-42 632 OFFCURVE",
"-49 611 CURVE SMOOTH",
"-74 533 LINE SMOOTH",
"-79 518 OFFCURVE",
"-72 511 OFFCURVE",
"-53 511 CURVE SMOOTH",
"670 511 LINE",
"702 511 OFFCURVE",
"712 509 OFFCURVE",
"719 530 CURVE SMOOTH",
"744 608 LINE SMOOTH",
"749 623 OFFCURVE",
"742 630 OFFCURVE",
"723 630 CURVE SMOOTH"
);
},
{
closed = 1;
nodes = (
"561 651 OFFCURVE",
"585 689 OFFCURVE",
"585 735 CURVE SMOOTH",
"585 784 OFFCURVE",
"548 818 OFFCURVE",
"488 818 CURVE SMOOTH",
"432 818 OFFCURVE",
"283 788 OFFCURVE",
"259 788 CURVE SMOOTH",
"243 788 OFFCURVE",
"222 807 OFFCURVE",
"222 821 CURVE SMOOTH",
"222 833 OFFCURVE",
"255 853 OFFCURVE",
"255 860 CURVE SMOOTH",
"255 866 OFFCURVE",
"235 867 OFFCURVE",
"224 867 CURVE SMOOTH",
"177 867 OFFCURVE",
"131 817 OFFCURVE",
"131 775 CURVE SMOOTH",
"131 712 OFFCURVE",
"195 677 OFFCURVE",
"268 677 CURVE SMOOTH",
"301 677 OFFCURVE",
"411 688 OFFCURVE",
"436 688 CURVE SMOOTH",
"464 688 OFFCURVE",
"469 673 OFFCURVE",
"469 668 CURVE SMOOTH",
"469 655 OFFCURVE",
"457 633 OFFCURVE",
"435 619 CURVE",
"532 620 LINE"
);
},
{
closed = 1;
nodes = (
"445 -25 OFFCURVE",
"590 95 OFFCURVE",
"590 266 CURVE SMOOTH",
"590 321 OFFCURVE",
"540 423 OFFCURVE",
"488 423 CURVE SMOOTH",
"449 423 OFFCURVE",
"399 395 OFFCURVE",
"399 395 CURVE",
"414 534 LINE",
"276 537 LINE",
"276 537 OFFCURVE",
"263 433 OFFCURVE",
"253 309 CURVE SMOOTH",
"251 285 OFFCURVE",
"293 234 OFFCURVE",
"311 234 CURVE SMOOTH",
"328 234 OFFCURVE",
"323 265 OFFCURVE",
"335 277 CURVE SMOOTH",
"343 281 OFFCURVE",
"374 291 OFFCURVE",
"388 291 CURVE SMOOTH",
"408 291 OFFCURVE",
"426 230 OFFCURVE",
"426 193 CURVE SMOOTH",
"426 144 OFFCURVE",
"333 94 OFFCURVE",
"284 94 CURVE SMOOTH",
"217 94 OFFCURVE",
"178 193 OFFCURVE",
"178 292 CURVE SMOOTH",
"178 374 OFFCURVE",
"197 419 OFFCURVE",
"197 464 CURVE SMOOTH",
"197 471 OFFCURVE",
"196 479 OFFCURVE",
"183 479 CURVE SMOOTH",
"170 479 OFFCURVE",
"147 449 OFFCURVE",
"121 399 CURVE SMOOTH",
"96 353 OFFCURVE",
"84 297 OFFCURVE",
"84 213 CURVE",
"80 211 LINE",
"74 230 OFFCURVE",
"69 275 OFFCURVE",
"67 289 CURVE SMOOTH",
"60 349 OFFCURVE",
"72 420 OFFCURVE",
"46 420 CURVE SMOOTH",
"29 420 OFFCURVE",
"-15 319 OFFCURVE",
"-15 240 CURVE SMOOTH",
"-15 67 OFFCURVE",
"101 -25 OFFCURVE",
"278 -25 CURVE SMOOTH"
);
},
{
closed = 0;
nodes = (
"84 213 LINE",
"80 211 LINE"
);
},
{
closed = 1;
nodes = (
"0 606 LINE",
"-17 606 OFFCURVE",
"-25 602 OFFCURVE",
"-30 587 CURVE SMOOTH",
"-47 534 LINE SMOOTH",
"-53 517 OFFCURVE",
"-46 512 OFFCURVE",
"-26 512 CURVE SMOOTH",
"600 512 LINE",
"629 512 OFFCURVE",
"642 509 OFFCURVE",
"649 531 CURVE SMOOTH",
"666 584 LINE SMOOTH",
"671 599 OFFCURVE",
"664 606 OFFCURVE",
"645 606 CURVE SMOOTH"
);
},
{
closed = 1;
nodes = (
"440 -10 OFFCURVE",
"570 86 OFFCURVE",
"570 257 CURVE SMOOTH",
"570 312 OFFCURVE",
"534 408 OFFCURVE",
"482 408 CURVE SMOOTH",
"442 408 OFFCURVE",
"378 369 OFFCURVE",
"378 369 CURVE",
"396 534 LINE",
"283 537 LINE",
"283 537 OFFCURVE",
"270 433 OFFCURVE",
"260 309 CURVE SMOOTH",
"258 285 OFFCURVE",
"294 244 OFFCURVE",
"306 244 CURVE SMOOTH",
"316 244 OFFCURVE",
"314 285 OFFCURVE",
"330 292 CURVE SMOOTH",
"339 296 OFFCURVE",
"374 306 OFFCURVE",
"389 306 CURVE SMOOTH",
"420 306 OFFCURVE",
"439 228 OFFCURVE",
"439 191 CURVE SMOOTH",
"439 132 OFFCURVE",
"347 79 OFFCURVE",
"279 79 CURVE SMOOTH",
"194 79 OFFCURVE",
"169 172 OFFCURVE",
"169 271 CURVE SMOOTH",
"169 365 OFFCURVE",
"197 437 OFFCURVE",
"197 466 CURVE SMOOTH",
"197 473 OFFCURVE",
"195 479 OFFCURVE",
"189 479 CURVE SMOOTH",
"161 479 OFFCURVE",
"93 364 OFFCURVE",
"93 239 CURVE SMOOTH",
"93 197 OFFCURVE",
"100 165 OFFCURVE",
"105 138 CURVE",
"101 136 LINE",
"85 162 OFFCURVE",
"62 223 OFFCURVE",
"61 286 CURVE SMOOTH",
"60 363 OFFCURVE",
"67 420 OFFCURVE",
"52 420 CURVE SMOOTH",
"34 420 OFFCURVE",
"-6 327 OFFCURVE",
"-6 240 CURVE SMOOTH",
"-6 111 OFFCURVE",
"96 -10 OFFCURVE",
"273 -10 CURVE SMOOTH"
);
},
{
closed = 1;
nodes = (
"521 615 OFFCURVE",
"574 672 OFFCURVE",
"574 729 CURVE SMOOTH",
"574 771 OFFCURVE",
"551 803 OFFCURVE",
"494 803 CURVE SMOOTH",
"427 803 OFFCURVE",
"296 774 OFFCURVE",
"259 774 CURVE SMOOTH",
"233 774 OFFCURVE",
"210 799 OFFCURVE",
"210 817 CURVE SMOOTH",
"210 836 OFFCURVE",
"254 855 OFFCURVE",
"254 862 CURVE SMOOTH",
"254 866 OFFCURVE",
"241 867 OFFCURVE",
"231 867 CURVE SMOOTH",
"183 867 OFFCURVE",
"145 826 OFFCURVE",
"145 782 CURVE SMOOTH",
"145 740 OFFCURVE",
"191 690 OFFCURVE",
"260 690 CURVE SMOOTH",
"307 690 OFFCURVE",
"421 701 OFFCURVE",
"446 701 CURVE SMOOTH",
"474 701 OFFCURVE",
"481 685 OFFCURVE",
"481 674 CURVE SMOOTH",
"481 651 OFFCURVE",
"446 613 OFFCURVE",
"424 599 CURVE",
"505 600 LINE"
);
}
);
};
layerId = "EC1E6058-8D86-4671-8808-9A08B2A725FC";
paths = (
{
closed = 1;
nodes = (
"-53 517 OFFCURVE",
"-46 512 OFFCURVE",
"-26 512 CURVE SMOOTH",
"280 512 LINE",
"276 474 OFFCURVE",
"267 396 OFFCURVE",
"260 309 CURVE SMOOTH",
"258 285 OFFCURVE",
"294 244 OFFCURVE",
"306 244 CURVE SMOOTH",
"316 244 OFFCURVE",
"314 285 OFFCURVE",
"330 292 CURVE SMOOTH",
"339 296 OFFCURVE",
"374 306 OFFCURVE",
"389 306 CURVE SMOOTH",
"420 306 OFFCURVE",
"439 228 OFFCURVE",
"439 191 CURVE SMOOTH",
"439 132 OFFCURVE",
"347 79 OFFCURVE",
"279 79 CURVE SMOOTH",
"194 79 OFFCURVE",
"169 172 OFFCURVE",
"169 271 CURVE SMOOTH",
"169 365 OFFCURVE",
"197 437 OFFCURVE",
"197 466 CURVE SMOOTH",
"197 473 OFFCURVE",
"195 479 OFFCURVE",
"189 479 CURVE SMOOTH",
"161 479 OFFCURVE",
"93 364 OFFCURVE",
"93 239 CURVE SMOOTH",
"93 197 OFFCURVE",
"100 165 OFFCURVE",
"105 138 CURVE",
"101 136 LINE",
"85 162 OFFCURVE",
"62 223 OFFCURVE",
"61 286 CURVE SMOOTH",
"60 363 OFFCURVE",
"67 420 OFFCURVE",
"52 420 CURVE SMOOTH",
"34 420 OFFCURVE",
"-6 327 OFFCURVE",
"-6 240 CURVE SMOOTH",
"-6 111 OFFCURVE",
"96 -10 OFFCURVE",
"273 -10 CURVE SMOOTH",
"440 -10 OFFCURVE",
"570 86 OFFCURVE",
"570 257 CURVE SMOOTH",
"570 312 OFFCURVE",
"534 408 OFFCURVE",
"482 408 CURVE SMOOTH",
"442 408 OFFCURVE",
"378 369 OFFCURVE",
"378 369 CURVE",
"394 512 LINE",
"600 512 LINE SMOOTH",
"629 512 OFFCURVE",
"642 509 OFFCURVE",
"649 531 CURVE SMOOTH",
"666 584 LINE SMOOTH",
"671 599 OFFCURVE",
"664 606 OFFCURVE",
"645 606 CURVE SMOOTH",
"511 606 LINE",
"531 627 OFFCURVE",
"574 678 OFFCURVE",
"574 729 CURVE SMOOTH",
"574 771 OFFCURVE",
"551 803 OFFCURVE",
"494 803 CURVE SMOOTH",
"427 803 OFFCURVE",
"296 774 OFFCURVE",
"259 774 CURVE SMOOTH",
"233 774 OFFCURVE",
"210 799 OFFCURVE",
"210 817 CURVE SMOOTH",
"210 836 OFFCURVE",
"254 855 OFFCURVE",
"254 862 CURVE SMOOTH",
"254 866 OFFCURVE",
"241 867 OFFCURVE",
"231 867 CURVE SMOOTH",
"183 867 OFFCURVE",
"145 826 OFFCURVE",
"145 782 CURVE SMOOTH",
"145 740 OFFCURVE",
"191 690 OFFCURVE",
"260 690 CURVE SMOOTH",
"307 690 OFFCURVE",
"421 701 OFFCURVE",
"446 701 CURVE SMOOTH",
"474 701 OFFCURVE",
"481 685 OFFCURVE",
"481 674 CURVE SMOOTH",
"481 654 OFFCURVE",
"455 623 OFFCURVE",
"434 606 CURVE",
"0 606 LINE SMOOTH",
"-17 606 OFFCURVE",
"-25 602 OFFCURVE",
"-30 587 CURVE SMOOTH",
"-47 534 LINE SMOOTH"
);
}
);
width = 600;
},
{
hints = (
{
horizontal = 1;
place = "{-23, 109}";
type = Stem;
},
{
horizontal = 1;
place = "{630, 120}";
type = Stem;
},
{
place = "{-14, 68}";
type = Stem;
},
{
place = "{111, 84}";
type = Stem;
},
{
place = "{402, 106}";
type = Stem;
},
{
horizontal = 1;
place = "{621, 102}";
type = Stem;
},
{
horizontal = 1;
place = "{568, 9}";
type = Stem;
},
{
place = "{73, 90}";
type = Stem;
},
{
place = "{390, 150}";
type = Stem;
},
{
horizontal = 1;
place = "{468, 109}";
type = Stem;
}
);
layerId = "959F729E-ED2F-45C2-951D-81A6BBE10EFE";
paths = (
{
closed = 1;
nodes = (
"-77 518 OFFCURVE",
"-70 511 OFFCURVE",
"-51 511 CURVE SMOOTH",
"274 511 LINE",
"269 472 OFFCURVE",
"261 395 OFFCURVE",
"254 309 CURVE SMOOTH",
"252 285 OFFCURVE",
"293 235 OFFCURVE",
"311 235 CURVE SMOOTH",
"327 235 OFFCURVE",
"322 267 OFFCURVE",
"335 278 CURVE SMOOTH",
"343 282 OFFCURVE",
"374 292 OFFCURVE",
"388 292 CURVE SMOOTH",
"409 292 OFFCURVE",
"427 230 OFFCURVE",
"427 193 CURVE SMOOTH",
"427 143 OFFCURVE",
"334 93 OFFCURVE",
"284 93 CURVE SMOOTH",
"215 93 OFFCURVE",
"177 191 OFFCURVE",
"177 290 CURVE SMOOTH",
"177 373 OFFCURVE",
"197 421 OFFCURVE",
"197 464 CURVE SMOOTH",
"197 471 OFFCURVE",
"196 479 OFFCURVE",
"186 479 CURVE SMOOTH",
"166 479 OFFCURVE",
"85 374 OFFCURVE",
"85 248 CURVE SMOOTH",
"85 232 OFFCURVE",
"86 218 OFFCURVE",
"89 202 CURVE",
"85 200 LINE",
"79 212 OFFCURVE",
"68 246 OFFCURVE",
"67 293 CURVE SMOOTH",
"67 372 OFFCURVE",
"73 420 OFFCURVE",
"50 420 CURVE SMOOTH",
"29 420 OFFCURVE",
"-14 320 OFFCURVE",
"-14 240 CURVE SMOOTH",
"-14 71 OFFCURVE",
"101 -24 OFFCURVE",
"278 -24 CURVE SMOOTH",
"445 -24 OFFCURVE",
"588 94 OFFCURVE",
"588 265 CURVE SMOOTH",
"588 320 OFFCURVE",
"540 422 OFFCURVE",
"488 422 CURVE SMOOTH",
"448 422 OFFCURVE",
"397 393 OFFCURVE",
"397 393 CURVE",
"411 511 LINE",
"664 511 LINE SMOOTH",
"696 511 OFFCURVE",
"706 509 OFFCURVE",
"713 530 CURVE SMOOTH",
"738 606 LINE SMOOTH",
"743 621 OFFCURVE",
"736 628 OFFCURVE",
"717 628 CURVE SMOOTH",
"539 628 LINE",
"563 656 OFFCURVE",
"584 693 OFFCURVE",
"584 735 CURVE SMOOTH",
"584 783 OFFCURVE",
"548 817 OFFCURVE",
"489 817 CURVE SMOOTH",
"432 817 OFFCURVE",
"284 787 OFFCURVE",
"259 787 CURVE SMOOTH",
"242 787 OFFCURVE",
"221 806 OFFCURVE",
"221 821 CURVE SMOOTH",
"221 833 OFFCURVE",
"255 853 OFFCURVE",
"255 860 CURVE SMOOTH",
"255 866 OFFCURVE",
"236 867 OFFCURVE",
"225 867 CURVE SMOOTH",
"178 867 OFFCURVE",
"132 818 OFFCURVE",
"132 776 CURVE SMOOTH",
"132 714 OFFCURVE",
"195 678 OFFCURVE",
"267 678 CURVE SMOOTH",
"302 678 OFFCURVE",
"412 689 OFFCURVE",
"437 689 CURVE SMOOTH",
"465 689 OFFCURVE",
"470 674 OFFCURVE",
"470 669 CURVE SMOOTH",
"470 658 OFFCURVE",
"461 641 OFFCURVE",
"448 628 CURVE",
"0 628 LINE SMOOTH",
"-31 628 OFFCURVE",
"-41 630 OFFCURVE",
"-47 609 CURVE SMOOTH",
"-72 533 LINE SMOOTH"
);
}
);
width = 664.16667;
}
);
leftKerningGroup = VowelA.bn;
note = VowelUu.bn;
rightKerningGroup = VowelA.bn;
unicode = 098A;
},
{
glyphname = VowelRu.bn;
lastChange = "2022-01-18 14:03:00 +0000";
layers = (
{
background = {
paths = (
{
closed = 1;
nodes = (
"878 511 LINE",
"910 511 OFFCURVE",
"920 509 OFFCURVE",
"927 530 CURVE SMOOTH",
"952 608 LINE SMOOTH",
"960 632 OFFCURVE",
"958 630 OFFCURVE",
"825 630 CURVE",
"749 630 OFFCURVE",
"700 588 OFFCURVE",
"690 511 CURVE SMOOTH",
"665 330 OFFCURVE",
"671 247 OFFCURVE",
"649 83 CURVE SMOOTH",
"644.18 46.82 OFFCURVE",
"631.71 -1 OFFCURVE",
"668 -1 CURVE SMOOTH",
"731 -1 OFFCURVE",
"795 114 OFFCURVE",
"800 194 CURVE SMOOTH",
"811.93 380.94 OFFCURVE",
"830 511 OFFCURVE",
"830 511 CURVE"
);
},
{
closed = 1;
nodes = (
"480 630 LINE",
"480 630 OFFCURVE",
"444 340 OFFCURVE",
"437.12 170 CURVE SMOOTH",
"436.31 149.91 OFFCURVE",
"436 112 OFFCURVE",
"436 112 CURVE",
"414 112 OFFCURVE",
"309 159 OFFCURVE",
"248 277 CURVE",
"322 271 OFFCURVE",
"430 271 OFFCURVE",
"496.14 277 CURVE",
"512 401 LINE",
"512 401 OFFCURVE",
"473 397 OFFCURVE",
"325 397 CURVE SMOOTH",
"249 397 OFFCURVE",
"202 400 OFFCURVE",
"145 400 CURVE SMOOTH",
"101.99 400 OFFCURVE",
"79 396 OFFCURVE",
"68 367 CURVE SMOOTH",
"60 345 OFFCURVE",
"46 308 OFFCURVE",
"46 294 CURVE SMOOTH",
"46 285 OFFCURVE",
"52 278 OFFCURVE",
"67 273 CURVE SMOOTH",
"91 264 OFFCURVE",
"105 258 OFFCURVE",
"111 244 CURVE SMOOTH",
"167 117 OFFCURVE",
"309 -21 OFFCURVE",
"443 -21 CURVE SMOOTH",
"500 -21 OFFCURVE",
"570 95 OFFCURVE",
"575 174 CURVE SMOOTH",
"584.84 328.14 OFFCURVE",
"615 608 OFFCURVE",
"615 608 CURVE",
"617 625 OFFCURVE",
"607.19 630 OFFCURVE",
"587.86 630 CURVE SMOOTH"
);
},
{
closed = 1;
nodes = (
"238 549 OFFCURVE",
"203 578 OFFCURVE",
"203.01 597 CURVE SMOOTH",
"203 615 OFFCURVE",
"231 641 OFFCURVE",
"231.01 653 CURVE SMOOTH",
"231.01 658.06 OFFCURVE",
"228.01 660 OFFCURVE",
"223.01 660 CURVE SMOOTH",
"176 660 OFFCURVE",
"111 596 OFFCURVE",
"111 539 CURVE SMOOTH",
"111 481 OFFCURVE",
"182 438 OFFCURVE",
"258 438 CURVE SMOOTH",
"321 438 OFFCURVE",
"370.02 478 OFFCURVE",
"370.02 478 CURVE",
"413.02 444 OFFCURVE",
"448.71 374.7 OFFCURVE",
"448.71 374.7 CURVE",
"471 375 LINE",
"471 529 LINE",
"469 529 OFFCURVE",
"465 529 OFFCURVE",
"463 529 CURVE",
"439 568 OFFCURVE",
"406 617 OFFCURVE",
"385 617 CURVE SMOOTH",
"365 617 OFFCURVE",
"300 549 OFFCURVE",
"263 549 CURVE SMOOTH"
);
},
{
closed = 1;
nodes = (
"575 209 LINE",
"606 188 OFFCURVE",
"642 146 OFFCURVE",
"653 102 CURVE",
"671 102 LINE",
"671 273 LINE",
"661 273 LINE",
"607 326 OFFCURVE",
"560 340 OFFCURVE",
"560 340 CURVE"
);
},
{
closed = 1;
nodes = (
"848 516 LINE",
"880 516 OFFCURVE",
"886 514 OFFCURVE",
"894 535 CURVE SMOOTH",
"914 588 LINE SMOOTH",
"925 616 OFFCURVE",
"895 610 OFFCURVE",
"827 610 CURVE",
"750 610 OFFCURVE",
"703 587 OFFCURVE",
"692 511 CURVE SMOOTH",
"666 328 OFFCURVE",
"670 247 OFFCURVE",
"647 83 CURVE SMOOTH",
"642 47 OFFCURVE",
"628 -1 OFFCURVE",
"659 -1 CURVE SMOOTH",
"696 -1 OFFCURVE",
"767 114 OFFCURVE",
"772 194 CURVE SMOOTH",
"784 381 OFFCURVE",
"802 516 OFFCURVE",
"802 516 CURVE"
);
},
{
closed = 1;
nodes = (
"476 610 LINE",
"479 610 OFFCURVE",
"443 334 OFFCURVE",
"436 165 CURVE SMOOTH",
"434 114 OFFCURVE",
"433 86 OFFCURVE",
"433 86 CURVE",
"355 104 OFFCURVE",
"246 200 OFFCURVE",
"226 279 CURVE",
"374 271 OFFCURVE",
"382 272 OFFCURVE",
"494 278 CURVE",
"507 378 LINE",
"507 378 OFFCURVE",
"400 374 OFFCURVE",
"302 374 CURVE SMOOTH",
"242 374 OFFCURVE",
"196 377 OFFCURVE",
"143 377 CURVE SMOOTH",
"103 377 OFFCURVE",
"87 374 OFFCURVE",
"79 351 CURVE SMOOTH",
"73 335 OFFCURVE",
"69 322 OFFCURVE",
"64 306 CURVE SMOOTH",
"60 293 OFFCURVE",
"59 283 OFFCURVE",
"76 277 CURVE SMOOTH",
"97 270 OFFCURVE",
"102 259 OFFCURVE",
"113 238 CURVE SMOOTH",
"196 72 OFFCURVE",
"340 -21 OFFCURVE",
"439 -21 CURVE SMOOTH",
"491 -21 OFFCURVE",
"539 76 OFFCURVE",
"544 154 CURVE",
"554 303 OFFCURVE",
"579 532 OFFCURVE",
"586 585 CURVE SMOOTH",
"589 609 OFFCURVE",
"581 610 OFFCURVE",
"566 610 CURVE SMOOTH"
);
},
{
closed = 1;
nodes = (
"238 534 OFFCURVE",
"191 563 OFFCURVE",
"191 593 CURVE SMOOTH",
"191 606 OFFCURVE",
"208 623 OFFCURVE",
"208 635 CURVE SMOOTH",
"208 640 OFFCURVE",
"205 642 OFFCURVE",
"200 642 CURVE SMOOTH",
"180 642 OFFCURVE",
"125 596 OFFCURVE",
"125 539 CURVE SMOOTH",
"125 494 OFFCURVE",
"182 452 OFFCURVE",
"258 452 CURVE SMOOTH",
"321 452 OFFCURVE",
"370 497 OFFCURVE",
"370 497 CURVE",
"413 463 OFFCURVE",
"448.71 374.7 OFFCURVE",
"448.71 374.7 CURVE",
"470 375 LINE",
"470 504 LINE",
"461 504 LINE",
"461 504 OFFCURVE",
"411 600 OFFCURVE",
"386 600 CURVE SMOOTH",
"366 600 OFFCURVE",
"307 534 OFFCURVE",
"263 534 CURVE SMOOTH"
);
},
{
closed = 1;
nodes = (
"546 239 LINE",
"589 224 OFFCURVE",
"651 159 OFFCURVE",
"662 111 CURVE",
"670 111 LINE",
"670 257 LINE",
"659 257 LINE",
"589 328 OFFCURVE",
"528 336 OFFCURVE",
"528 336 CURVE"
);
}
);
};
layerId = "EC1E6058-8D86-4671-8808-9A08B2A725FC";
paths = (
{
closed = 1;
nodes = (
"60 293 OFFCURVE",
"59 283 OFFCURVE",
"76 277 CURVE SMOOTH",
"97 270 OFFCURVE",
"102 259 OFFCURVE",
"113 238 CURVE SMOOTH",
"196 72 OFFCURVE",
"340 -21 OFFCURVE",
"439 -21 CURVE SMOOTH",
"491 -21 OFFCURVE",
"538 76 OFFCURVE",
"544 154 CURVE SMOOTH",
"550 237 LINE",
"586 222 OFFCURVE",
"633 176 OFFCURVE",
"654 134 CURVE",
"634 27 OFFCURVE",
"633 -1 OFFCURVE",
"659 -1 CURVE SMOOTH",
"696 -1 OFFCURVE",
"767 114 OFFCURVE",
"772 194 CURVE SMOOTH",
"784 381 OFFCURVE",
"802 516 OFFCURVE",
"802 516 CURVE",
"848 516 LINE SMOOTH",
"880 516 OFFCURVE",
"886 514 OFFCURVE",
"894 535 CURVE SMOOTH",
"914 588 LINE SMOOTH",
"925 616 OFFCURVE",
"895 610 OFFCURVE",
"827 610 CURVE SMOOTH",
"750 610 OFFCURVE",
"703 587 OFFCURVE",
"692 511 CURVE SMOOTH",
"677 404 OFFCURVE",
"672 331 OFFCURVE",
"666 257 CURVE",
"659 257 LINE",
"619 297 OFFCURVE",
"583 317 OFFCURVE",
"558 327 CURVE",
"569 440 OFFCURVE",
"581 550 OFFCURVE",
"586 585 CURVE SMOOTH",
"589 609 OFFCURVE",
"581 610 OFFCURVE",
"566 610 CURVE SMOOTH",
"476 610 LINE SMOOTH",
"475 610 OFFCURVE",
"472 567 OFFCURVE",
"465 504 CURVE",
"461 504 LINE",
"461 504 OFFCURVE",
"411 600 OFFCURVE",
"386 600 CURVE SMOOTH",
"366 600 OFFCURVE",
"307 534 OFFCURVE",
"263 534 CURVE SMOOTH",
"238 534 OFFCURVE",
"191 563 OFFCURVE",
"191 593 CURVE SMOOTH",
"191 606 OFFCURVE",
"208 623 OFFCURVE",
"208 635 CURVE SMOOTH",
"208 640 OFFCURVE",
"205 642 OFFCURVE",
"200 642 CURVE SMOOTH",
"180 642 OFFCURVE",
"125 596 OFFCURVE",
"125 539 CURVE SMOOTH",
"125 494 OFFCURVE",
"182 452 OFFCURVE",
"258 452 CURVE SMOOTH",
"321 452 OFFCURVE",
"370 497 OFFCURVE",
"370 497 CURVE",
"410 466 OFFCURVE",
"443 388 OFFCURVE",
"448 376 CURVE",
"408 375 OFFCURVE",
"354 374 OFFCURVE",
"302 374 CURVE SMOOTH",
"242 374 OFFCURVE",
"196 377 OFFCURVE",
"143 377 CURVE SMOOTH",
"103 377 OFFCURVE",
"87 374 OFFCURVE",
"79 351 CURVE SMOOTH",
"73 335 OFFCURVE",
"69 322 OFFCURVE",
"64 306 CURVE SMOOTH"
);
},
{
closed = 1;
nodes = (
"348 272 OFFCURVE",
"375 272 OFFCURVE",
"443 275 CURVE",
"439 226 OFFCURVE",
"433 158 OFFCURVE",
"433 86 CURVE",
"355 104 OFFCURVE",
"246 200 OFFCURVE",
"226 279 CURVE"
);
}
);
width = 848;
},
{
hints = (
{
horizontal = 1;
place = "{-19, 122}";
type = Stem;
},
{
horizontal = 1;
place = "{343, 20}";
type = Stem;
},
{
horizontal = 1;
place = "{468, 109}";
type = Stem;
},
{
horizontal = 1;
place = "{605, -20}";
target = down;
type = TopGhost;
},
{
place = "{102, 84}";
type = Stem;
},
{
horizontal = 1;
place = "{402, 101}";
type = Stem;
},
{
horizontal = 1;
place = "{566, -20}";
target = down;
type = TopGhost;
}
);
layerId = "959F729E-ED2F-45C2-951D-81A6BBE10EFE";
paths = (
{
closed = 1;
nodes = (
"47 286 OFFCURVE",
"53 278 OFFCURVE",
"68 273 CURVE SMOOTH",
"92 265 OFFCURVE",
"105 258 OFFCURVE",
"111 244 CURVE SMOOTH",
"169 113 OFFCURVE",
"312 -21 OFFCURVE",
"443 -21 CURVE SMOOTH",
"499 -21 OFFCURVE",
"567 93 OFFCURVE",
"572 172 CURVE SMOOTH",
"575 210 LINE",
"605 190 OFFCURVE",
"639 149 OFFCURVE",
"652 108 CURVE",
"638 29 OFFCURVE",
"638 -1 OFFCURVE",
"667 -1 CURVE SMOOTH",
"728 -1 OFFCURVE",
"793 114 OFFCURVE",
"798 194 CURVE SMOOTH",
"810 381 OFFCURVE",
"828 511 OFFCURVE",
"828 511 CURVE",
"876 511 LINE SMOOTH",
"908 511 OFFCURVE",
"917 509 OFFCURVE",
"924 530 CURVE SMOOTH",
"949 606 LINE SMOOTH",
"957 631 OFFCURVE",
"953 628 OFFCURVE",
"825 628 CURVE SMOOTH",
"749 628 OFFCURVE",
"700 588 OFFCURVE",
"690 511 CURVE SMOOTH",
"676 411 OFFCURVE",
"672 342 OFFCURVE",
"667 272 CURVE",
"661 272 LINE",
"632 301 OFFCURVE",
"604 318 OFFCURVE",
"585 328 CURVE",
"597 464 OFFCURVE",
"612 603 OFFCURVE",
"613 606 CURVE SMOOTH",
"615 624 OFFCURVE",
"605 628 OFFCURVE",
"586 628 CURVE SMOOTH",
"480 628 LINE SMOOTH",
"480 628 OFFCURVE",
"475 587 OFFCURVE",
"468 527 CURVE",
"463 527 LINE",
"441 563 OFFCURVE",
"406 616 OFFCURVE",
"385 616 CURVE SMOOTH",
"365 616 OFFCURVE",
"301 548 OFFCURVE",
"263 548 CURVE SMOOTH",
"238 548 OFFCURVE",
"202 577 OFFCURVE",
"202 597 CURVE SMOOTH",
"202 614 OFFCURVE",
"229 640 OFFCURVE",
"229 652 CURVE SMOOTH",
"229 657 OFFCURVE",
"226 659 OFFCURVE",
"221 659 CURVE SMOOTH",
"176 659 OFFCURVE",
"112 596 OFFCURVE",
"112 539 CURVE SMOOTH",
"112 482 OFFCURVE",
"182 439 OFFCURVE",
"258 439 CURVE SMOOTH",
"321 439 OFFCURVE",
"370 480 OFFCURVE",
"370 480 CURVE",
"398 458 OFFCURVE",
"423 418 OFFCURVE",
"436 396 CURVE",
"408 395 OFFCURVE",
"371 395 OFFCURVE",
"323 395 CURVE SMOOTH",
"248 395 OFFCURVE",
"202 398 OFFCURVE",
"145 398 CURVE SMOOTH",
"102 398 OFFCURVE",
"80 394 OFFCURVE",
"69 366 CURVE SMOOTH",
"61 344 OFFCURVE",
"48 309 OFFCURVE",
"48 295 CURVE SMOOTH"
);
},
{
closed = 1;
nodes = (
"309 272 OFFCURVE",
"381 271 OFFCURVE",
"443 274 CURVE",
"439 224 OFFCURVE",
"436 167 OFFCURVE",
"436 110 CURVE",
"409 111 OFFCURVE",
"304 162 OFFCURVE",
"246 277 CURVE"
);
}
);
width = 875.5;
}
);
note = VowelRu.bn;
unicode = 098B;
},
{
glyphname = VowelLru.bn;
lastChange = "2022-01-18 14:03:00 +0000";
layers = (
{
background = {
paths = (
{
closed = 1;
nodes = (
"155 40 OFFCURVE",
"215 -5 OFFCURVE",
"299 -5 CURVE SMOOTH",
"448 -5 OFFCURVE",
"591 138 OFFCURVE",
"591 275 CURVE SMOOTH",
"591 396 OFFCURVE",
"303 546 OFFCURVE",
"303.09 648.8 CURVE SMOOTH",
"303 678 OFFCURVE",
"382 710 OFFCURVE",
"381.53 725.45 CURVE SMOOTH",
"382 736 OFFCURVE",
"333 746 OFFCURVE",
"306.87 745.6 CURVE SMOOTH",
"261 746 OFFCURVE",
"161 676 OFFCURVE",
"161.4 635.24 CURVE SMOOTH",
"161 499 OFFCURVE",
"437 371 OFFCURVE",
"437.38 266.66 CURVE SMOOTH",
"437 221 OFFCURVE",
"371 130 OFFCURVE",
"319 130 CURVE SMOOTH",
"297 130 OFFCURVE",
"275 136 OFFCURVE",
"275.16 136.2 CURVE",
"275.16 136.2 OFFCURVE",
"336.68 204.98 OFFCURVE",
"336.68 281.75 CURVE SMOOTH",
"337 351 OFFCURVE",
"223 423 OFFCURVE",
"134.68 423.22 CURVE SMOOTH",
"82 423 OFFCURVE",
"24 326 OFFCURVE",
"24 273 CURVE SMOOTH",
"23.5 259 OFFCURVE",
"29.83 255.8 OFFCURVE",
"36.13 255.8 CURVE SMOOTH",
"51.99 255.8 OFFCURVE",
"96.67 300.6 OFFCURVE",
"114.4 300.6 CURVE SMOOTH",
"137.99 300.6 OFFCURVE",
"203.13 285.99 OFFCURVE",
"203.13 259.2 CURVE SMOOTH",
"203.13 227.85 OFFCURVE",
"169.99 171.37 OFFCURVE",
"135.82 171.37 CURVE SMOOTH",
"105.68 171.37 OFFCURVE",
"98.14 174.6 OFFCURVE",
"84.7 154.1 CURVE SMOOTH",
"66 125 OFFCURVE",
"48 100 OFFCURVE",
"48 85 CURVE SMOOTH",
"48 76 OFFCURVE",
"53 68 OFFCURVE",
"66.14 64.58 CURVE SMOOTH"
);
}
);
};
layerId = "EC1E6058-8D86-4671-8808-9A08B2A725FC";
paths = (
{
closed = 1;
nodes = (
"170 44 OFFCURVE",
"215 5 OFFCURVE",
"299 5 CURVE SMOOTH",
"434 5 OFFCURVE",
"576 138 OFFCURVE",
"576 275 CURVE SMOOTH",
"576 385 OFFCURVE",
"290 551 OFFCURVE",
"290 649 CURVE SMOOTH",
"290 675 OFFCURVE",
"369 710 OFFCURVE",
"369 720 CURVE SMOOTH",
"369 731 OFFCURVE",
"327 737 OFFCURVE",
"307 737 CURVE SMOOTH",
"269 737 OFFCURVE",
"176 664 OFFCURVE",
"176 635 CURVE SMOOTH",
"176 501 OFFCURVE",
"453 371 OFFCURVE",
"453 267 CURVE SMOOTH",
"453 221 OFFCURVE",
"381 119 OFFCURVE",
"319 119 CURVE SMOOTH",
"286 119 OFFCURVE",
"256 130 OFFCURVE",
"256 130 CURVE",
"256 134 LINE",
"268 148 OFFCURVE",
"327 214 OFFCURVE",
"327 282 CURVE SMOOTH",
"327 351 OFFCURVE",
"208 415 OFFCURVE",
"135 415 CURVE SMOOTH",
"92 415 OFFCURVE",
"32 321 OFFCURVE",
"32 277 CURVE SMOOTH",
"32 268 OFFCURVE",
"34 263 OFFCURVE",
"40 263 CURVE SMOOTH",
"48 263 OFFCURVE",
"101 309 OFFCURVE",
"118 309 CURVE SMOOTH",
"142 309 OFFCURVE",
"212 292 OFFCURVE",
"212 259 CURVE SMOOTH",
"212 228 OFFCURVE",
"181 163 OFFCURVE",
"138 163 CURVE SMOOTH",
"108 163 OFFCURVE",
"104 168 OFFCURVE",
"89 146 CURVE SMOOTH",
"74 125 OFFCURVE",
"57 100 OFFCURVE",
"57 85 CURVE SMOOTH",
"57 76 OFFCURVE",
"68 72 OFFCURVE",
"81 69 CURVE SMOOTH"
);
}
);
width = 600;
},
{
hints = (
{
horizontal = 1;
place = "{59, 98}";
type = Stem;
},
{
horizontal = 1;
place = "{276, 112}";
type = Stem;
},
{
place = "{148, 130}";
type = Stem;
},
{
place = "{401, 141}";
type = Stem;
},
{
place = "{186, 122}";
type = Stem;
}
);
layerId = "959F729E-ED2F-45C2-951D-81A6BBE10EFE";
paths = (
{
closed = 1;
nodes = (
"156 40 OFFCURVE",
"215 -4 OFFCURVE",
"299 -4 CURVE SMOOTH",
"447 -4 OFFCURVE",
"590 138 OFFCURVE",
"590 275 CURVE SMOOTH",
"590 395 OFFCURVE",
"302 546 OFFCURVE",
"302 649 CURVE SMOOTH",
"302 678 OFFCURVE",
"381 710 OFFCURVE",
"380 725 CURVE SMOOTH",
"381 736 OFFCURVE",
"333 745 OFFCURVE",
"307 745 CURVE SMOOTH",
"262 745 OFFCURVE",
"162 675 OFFCURVE",
"163 635 CURVE SMOOTH",
"162 499 OFFCURVE",
"438 371 OFFCURVE",
"439 267 CURVE SMOOTH",
"438 221 OFFCURVE",
"372 129 OFFCURVE",
"319 129 CURVE SMOOTH",
"296 129 OFFCURVE",
"273 136 OFFCURVE",
"273 136 CURVE",
"273 140 LINE",
"287 157 OFFCURVE",
"336 217 OFFCURVE",
"336 282 CURVE SMOOTH",
"336 351 OFFCURVE",
"222 422 OFFCURVE",
"135 423 CURVE SMOOTH",
"83 422 OFFCURVE",
"25 326 OFFCURVE",
"25 273 CURVE SMOOTH",
"24 260 OFFCURVE",
"30 256 OFFCURVE",
"36 256 CURVE SMOOTH",
"52 256 OFFCURVE",
"97 301 OFFCURVE",
"115 301 CURVE SMOOTH",
"138 301 OFFCURVE",
"204 286 OFFCURVE",
"204 259 CURVE SMOOTH",
"204 228 OFFCURVE",
"171 171 OFFCURVE",
"136 171 CURVE SMOOTH",
"106 171 OFFCURVE",
"99 174 OFFCURVE",
"85 153 CURVE SMOOTH",
"67 125 OFFCURVE",
"49 100 OFFCURVE",
"49 85 CURVE SMOOTH",
"49 76 OFFCURVE",
"54 68 OFFCURVE",
"67 65 CURVE SMOOTH"
);
}
);
width = 645.83333;
}
);
note = VowelLru.bn;
unicode = 098C;
},
{
glyphname = VowelE.bn;
lastChange = "2022-01-18 14:03:00 +0000";
layers = (
{
background = {
paths = (
{
closed = 1;
nodes = (
"575 520 OFFCURVE",
"498 633 OFFCURVE",
"401 633 CURVE SMOOTH",
"340 633 OFFCURVE",
"221 556 OFFCURVE",
"220 503 CURVE SMOOTH",
"220 497 OFFCURVE",
"222 490 OFFCURVE",
"233 490 CURVE SMOOTH",
"245 490 OFFCURVE",
"297 512 OFFCURVE",
"314 512 CURVE SMOOTH",
"346 512 OFFCURVE",
"433 435 OFFCURVE",
"426 379 CURVE SMOOTH",
"409 277 OFFCURVE",
"401 219 OFFCURVE",
"398 176 CURVE SMOOTH",
"397 155 OFFCURVE",
"401 134 OFFCURVE",
"404 127 CURVE",
"402 122 LINE",
"232 122 OFFCURVE",
"137 126 OFFCURVE",
"137 240 CURVE SMOOTH",
"137 302 OFFCURVE",
"150 378 OFFCURVE",
"150 413 CURVE SMOOTH",
"150 419 OFFCURVE",
"148 428 OFFCURVE",
"138 428 CURVE SMOOTH",
"108 428 OFFCURVE",
"0 303 OFFCURVE",
"0 214 CURVE SMOOTH",
"0 74 OFFCURVE",
"104 -17 OFFCURVE",
"241 -17 CURVE SMOOTH",
"323 -17 OFFCURVE",
"378 14 OFFCURVE",
"397 14 CURVE SMOOTH",
"421 14 OFFCURVE",
"438 -17 OFFCURVE",
"454 -17 CURVE SMOOTH",
"469 -17 OFFCURVE",
"549 65 OFFCURVE",
"549 87 CURVE SMOOTH",
"549 104 OFFCURVE",
"525 119 OFFCURVE",
"526 143 CURVE SMOOTH",
"528 226 OFFCURVE",
"544 290 OFFCURVE",
"561 417 CURVE SMOOTH"
);
}
);
};
layerId = "EC1E6058-8D86-4671-8808-9A08B2A725FC";
paths = (
{
closed = 1;
nodes = (
"561 520 OFFCURVE",
"477 623 OFFCURVE",
"398 623 CURVE SMOOTH",
"337 623 OFFCURVE",
"236 550 OFFCURVE",
"236 517 CURVE SMOOTH",
"236 510 OFFCURVE",
"239 506 OFFCURVE",
"247 506 CURVE SMOOTH",
"259 506 OFFCURVE",
"306 529 OFFCURVE",
"323 529 CURVE SMOOTH",
"355 529 OFFCURVE",
"451 450 OFFCURVE",
"442 394 CURVE SMOOTH",
"429 315 OFFCURVE",
"407 218 OFFCURVE",
"407 157 CURVE SMOOTH",
"407 139 OFFCURVE",
"411 123 OFFCURVE",
"414 112 CURVE",
"411 105 LINE",
"242 105 OFFCURVE",
"118 112 OFFCURVE",
"118 225 CURVE SMOOTH",
"118 276 OFFCURVE",
"140 368 OFFCURVE",
"140 403 CURVE SMOOTH",
"140 410 OFFCURVE",
"137 416 OFFCURVE",
"130 416 CURVE SMOOTH",
"104 416 OFFCURVE",
"15 303 OFFCURVE",
"15 203 CURVE SMOOTH",
"15 74 OFFCURVE",
"119 -8 OFFCURVE",
"238 -8 CURVE SMOOTH",
"320 -8 OFFCURVE",
"375 26 OFFCURVE",
"397 26 CURVE SMOOTH",
"418 26 OFFCURVE",
"438 -8 OFFCURVE",
"450 -8 CURVE SMOOTH",
"464 -8 OFFCURVE",
"536 70 OFFCURVE",
"536 87 CURVE SMOOTH",
"536 104 OFFCURVE",
"511 119 OFFCURVE",
"512 143 CURVE SMOOTH",
"515 226 OFFCURVE",
"530 290 OFFCURVE",
"547 417 CURVE SMOOTH"
);
}
);
width = 589;
},
{
hints = (
{
horizontal = 1;
place = "{-16, 127}";
type = Stem;
},
{
horizontal = 1;
place = "{449, 21}";
target = up;
type = BottomGhost;
},
{
horizontal = 1;
place = "{469, 112}";
type = Stem;
},
{
place = "{14, 125}";
type = Stem;
},
{
place = "{375, 121}";
type = Stem;
}
);
layerId = "959F729E-ED2F-45C2-951D-81A6BBE10EFE";
paths = (
{
closed = 1;
nodes = (
"588 520 OFFCURVE",
"510 632 OFFCURVE",
"414 633 CURVE SMOOTH",
"354 632 OFFCURVE",
"236 556 OFFCURVE",
"235 504 CURVE SMOOTH",
"235 498 OFFCURVE",
"238 491 OFFCURVE",
"248 491 CURVE SMOOTH",
"260 491 OFFCURVE",
"312 513 OFFCURVE",
"329 513 CURVE SMOOTH",
"360 513 OFFCURVE",
"449 436 OFFCURVE",
"441 380 CURVE SMOOTH",
"424 280 OFFCURVE",
"415 219 OFFCURVE",
"413 174 CURVE SMOOTH",
"412 154 OFFCURVE",
"416 133 OFFCURVE",
"419 126 CURVE",
"417 121 LINE",
"247 121 OFFCURVE",
"149 125 OFFCURVE",
"149 239 CURVE SMOOTH",
"149 300 OFFCURVE",
"163 377 OFFCURVE",
"163 412 CURVE SMOOTH",
"163 419 OFFCURVE",
"161 427 OFFCURVE",
"151 427 CURVE SMOOTH",
"121 427 OFFCURVE",
"15 303 OFFCURVE",
"15 213 CURVE SMOOTH",
"15 74 OFFCURVE",
"119 -16 OFFCURVE",
"254 -16 CURVE SMOOTH",
"336 -16 OFFCURVE",
"392 15 OFFCURVE",
"411 15 CURVE SMOOTH",
"435 15 OFFCURVE",
"452 -16 OFFCURVE",
"467 -16 CURVE SMOOTH",
"482 -16 OFFCURVE",
"562 65 OFFCURVE",
"562 87 CURVE SMOOTH",
"562 104 OFFCURVE",
"538 119 OFFCURVE",
"539 143 CURVE SMOOTH",
"541 226 OFFCURVE",
"557 290 OFFCURVE",
"574 417 CURVE SMOOTH"
);
}
);
width = 644.91667;
}
);
leftKerningGroup = VowelE.bn;
note = VowelE.bn;
unicode = 098F;
},
{
glyphname = VowelAi.bn;
lastChange = "2022-01-18 14:03:00 +0000";
layers = (
{
background = {
paths = (
{
closed = 1;
nodes = (
"494 336 LINE",
"494 336 OFFCURVE",
"557 298 OFFCURVE",
"626 298 CURVE SMOOTH",
"728 298 OFFCURVE",
"805 354 OFFCURVE",
"805 447 CURVE SMOOTH",
"806 541 OFFCURVE",
"635 661 OFFCURVE",
"635 694 CURVE SMOOTH",
"635 715 OFFCURVE",
"639 728 OFFCURVE",
"648 728 CURVE SMOOTH",
"660 728 OFFCURVE",
"690 713 OFFCURVE",
"700 713 CURVE SMOOTH",
"706 713 OFFCURVE",
"710 717 OFFCURVE",
"710 722 CURVE SMOOTH",
"710 742 OFFCURVE",
"671 790 OFFCURVE",
"602 790 CURVE SMOOTH",
"551 790 OFFCURVE",
"519 747 OFFCURVE",
"520 693 CURVE SMOOTH",
"521 616 OFFCURVE",
"656 500 OFFCURVE",
"656 458 CURVE SMOOTH",
"656 440 OFFCURVE",
"647 419 OFFCURVE",
"607 419 CURVE SMOOTH",
"579 419 OFFCURVE",
"554 426 OFFCURVE",
"554 426 CURVE"
);
},
{
closed = 1;
nodes = (
"574 520 OFFCURVE",
"497 633 OFFCURVE",
"400 633 CURVE SMOOTH",
"339 633 OFFCURVE",
"219 556 OFFCURVE",
"219 503 CURVE SMOOTH",
"219 497 OFFCURVE",
"221 490 OFFCURVE",
"232 490 CURVE SMOOTH",
"244 490 OFFCURVE",
"296 512 OFFCURVE",
"313 512 CURVE SMOOTH",
"345 512 OFFCURVE",
"432 435 OFFCURVE",
"425 379 CURVE SMOOTH",
"411 269 OFFCURVE",
"396 189 OFFCURVE",
"393 122 CURVE",
"234 122 OFFCURVE",
"136 126 OFFCURVE",
"136 240 CURVE SMOOTH",
"136 302 OFFCURVE",
"149 378 OFFCURVE",
"149 413 CURVE SMOOTH",
"149 419 OFFCURVE",
"147 428 OFFCURVE",
"137 428 CURVE SMOOTH",
"107 428 OFFCURVE",
"-1 303 OFFCURVE",
"-1 214 CURVE SMOOTH",
"-1 74 OFFCURVE",
"103 -17 OFFCURVE",
"240 -17 CURVE SMOOTH",
"322 -17 OFFCURVE",
"377 14 OFFCURVE",
"396 14 CURVE SMOOTH",
"420 14 OFFCURVE",
"437 -17 OFFCURVE",
"453 -17 CURVE SMOOTH",
"468 -17 OFFCURVE",
"548 65 OFFCURVE",
"548 87 CURVE SMOOTH",
"548 104 OFFCURVE",
"524 119 OFFCURVE",
"525 143 CURVE SMOOTH",
"528 226 OFFCURVE",
"543 290 OFFCURVE",
"560 417 CURVE SMOOTH"
);
},
{
closed = 1;
nodes = (
"492 354 LINE",
"492 354 OFFCURVE",
"567 314 OFFCURVE",
"640 314 CURVE SMOOTH",
"715 314 OFFCURVE",
"791 358 OFFCURVE",
"792 441 CURVE SMOOTH",
"793 540 OFFCURVE",
"622 654 OFFCURVE",
"622 690 CURVE SMOOTH",
"622 715 OFFCURVE",
"630 735 OFFCURVE",
"641 735 CURVE SMOOTH",
"653 735 OFFCURVE",
"685 720 OFFCURVE",
"695 720 CURVE SMOOTH",
"702 720 OFFCURVE",
"703 723 OFFCURVE",
"703 727 CURVE SMOOTH",
"703 741 OFFCURVE",
"660 782 OFFCURVE",
"602 782 CURVE SMOOTH",
"562 782 OFFCURVE",
"534 747 OFFCURVE",
"535 700 CURVE SMOOTH",
"536 616 OFFCURVE",
"670 511 OFFCURVE",
"670 451 CURVE SMOOTH",
"670 425 OFFCURVE",
"651 406 OFFCURVE",
"606 406 CURVE SMOOTH",
"578 406 OFFCURVE",
"535 415 OFFCURVE",
"535 415 CURVE"
);
},
{
closed = 1;
nodes = (
"561 520 OFFCURVE",
"477 623 OFFCURVE",
"398 623 CURVE SMOOTH",
"337 623 OFFCURVE",
"236 550 OFFCURVE",
"236 517 CURVE SMOOTH",
"236 510 OFFCURVE",
"239 506 OFFCURVE",
"247 506 CURVE SMOOTH",
"259 506 OFFCURVE",
"306 529 OFFCURVE",
"323 529 CURVE SMOOTH",
"355 529 OFFCURVE",
"451 450 OFFCURVE",
"442 394 CURVE SMOOTH",
"428 310 OFFCURVE",
"407 223 OFFCURVE",
"407 157 CURVE SMOOTH",
"407 139 OFFCURVE",
"411 123 OFFCURVE",
"414 112 CURVE",
"411 105 LINE",
"252 105 OFFCURVE",
"118 100 OFFCURVE",
"118 214 CURVE SMOOTH",
"118 276 OFFCURVE",
"140 368 OFFCURVE",
"140 403 CURVE SMOOTH",
"140 410 OFFCURVE",
"137 416 OFFCURVE",
"130 416 CURVE SMOOTH",
"104 416 OFFCURVE",
"15 303 OFFCURVE",
"15 203 CURVE SMOOTH",
"15 74 OFFCURVE",
"119 -8 OFFCURVE",
"238 -8 CURVE SMOOTH",
"320 -8 OFFCURVE",
"375 26 OFFCURVE",
"397 26 CURVE SMOOTH",
"418 26 OFFCURVE",
"438 -8 OFFCURVE",
"450 -8 CURVE SMOOTH",
"464 -8 OFFCURVE",
"536 70 OFFCURVE",
"536 87 CURVE SMOOTH",
"536 104 OFFCURVE",
"511 119 OFFCURVE",
"512 143 CURVE SMOOTH",
"515 226 OFFCURVE",
"530 290 OFFCURVE",
"547 417 CURVE SMOOTH"
);
}
);
};
layerId = "EC1E6058-8D86-4671-8808-9A08B2A725FC";
paths = (
{
closed = 1;
nodes = (
"15 74 OFFCURVE",
"119 -8 OFFCURVE",
"238 -8 CURVE SMOOTH",
"320 -8 OFFCURVE",
"375 26 OFFCURVE",
"397 26 CURVE SMOOTH",
"418 26 OFFCURVE",
"438 -8 OFFCURVE",
"450 -8 CURVE SMOOTH",
"464 -8 OFFCURVE",
"536 70 OFFCURVE",
"536 87 CURVE SMOOTH",
"536 104 OFFCURVE",
"511 119 OFFCURVE",
"512 143 CURVE SMOOTH",
"514 206 OFFCURVE",
"523 258 OFFCURVE",
"535 335 CURVE",
"563 325 OFFCURVE",
"602 314 OFFCURVE",
"640 314 CURVE SMOOTH",
"715 314 OFFCURVE",
"791 358 OFFCURVE",
"792 441 CURVE SMOOTH",
"793 540 OFFCURVE",
"622 654 OFFCURVE",
"622 690 CURVE SMOOTH",
"622 715 OFFCURVE",
"630 735 OFFCURVE",
"641 735 CURVE SMOOTH",
"653 735 OFFCURVE",
"685 720 OFFCURVE",
"695 720 CURVE SMOOTH",
"702 720 OFFCURVE",
"703 723 OFFCURVE",
"703 727 CURVE SMOOTH",
"703 741 OFFCURVE",
"660 782 OFFCURVE",
"602 782 CURVE SMOOTH",
"562 782 OFFCURVE",
"534 747 OFFCURVE",
"535 700 CURVE SMOOTH",
"536 616 OFFCURVE",
"670 511 OFFCURVE",
"670 451 CURVE SMOOTH",
"670 425 OFFCURVE",
"651 406 OFFCURVE",
"606 406 CURVE SMOOTH",
"587 406 OFFCURVE",
"561 410 OFFCURVE",
"546 413 CURVE",
"561 516 OFFCURVE",
"482 623 OFFCURVE",
"398 623 CURVE SMOOTH",
"337 623 OFFCURVE",
"236 550 OFFCURVE",
"236 517 CURVE SMOOTH",
"236 510 OFFCURVE",
"239 506 OFFCURVE",
"247 506 CURVE SMOOTH",
"259 506 OFFCURVE",
"306 529 OFFCURVE",
"323 529 CURVE SMOOTH",
"355 529 OFFCURVE",
"451 450 OFFCURVE",
"442 394 CURVE SMOOTH",
"428 310 OFFCURVE",
"407 223 OFFCURVE",
"407 157 CURVE SMOOTH",
"407 139 OFFCURVE",
"411 123 OFFCURVE",
"414 112 CURVE",
"411 105 LINE",
"252 105 OFFCURVE",
"118 100 OFFCURVE",
"118 214 CURVE SMOOTH",
"118 276 OFFCURVE",
"140 368 OFFCURVE",
"140 403 CURVE SMOOTH",
"140 410 OFFCURVE",
"137 416 OFFCURVE",
"130 416 CURVE SMOOTH",
"104 416 OFFCURVE",
"15 303 OFFCURVE",
"15 203 CURVE SMOOTH"
);
}
);
width = 827;
},
{
hints = (
{
horizontal = 1;
place = "{-16, 127}";
type = Stem;
},
{
horizontal = 1;
place = "{273, 111}";
type = Stem;
},
{
horizontal = 1;
place = "{449, 21}";
target = up;
type = BottomGhost;
},
{
horizontal = 1;
place = "{469, 112}";
type = Stem;
},
{
horizontal = 1;
place = "{668, 55}";
type = Stem;
},
{
place = "{10, 125}";
type = Stem;
},
{
place = "{370, 121}";
type = Stem;
},
{
place = "{610, 136}";
type = Stem;
}
);
layerId = "959F729E-ED2F-45C2-951D-81A6BBE10EFE";
paths = (
{
closed = 1;
nodes = (
"10 74 OFFCURVE",
"114 -16 OFFCURVE",
"249 -16 CURVE SMOOTH",
"331 -16 OFFCURVE",
"386 15 OFFCURVE",
"405 15 CURVE SMOOTH",
"429 15 OFFCURVE",
"446 -16 OFFCURVE",
"462 -16 CURVE SMOOTH",
"477 -16 OFFCURVE",
"556 65 OFFCURVE",
"556 87 CURVE SMOOTH",
"556 104 OFFCURVE",
"532 119 OFFCURVE",
"533 143 CURVE SMOOTH",
"534 201 OFFCURVE",
"542 249 OFFCURVE",
"553 315 CURVE",
"577 307 OFFCURVE",
"606 299 OFFCURVE",
"636 299 CURVE SMOOTH",
"736 299 OFFCURVE",
"813 354 OFFCURVE",
"813 447 CURVE SMOOTH",
"814 541 OFFCURVE",
"643 660 OFFCURVE",
"643 694 CURVE SMOOTH",
"643 715 OFFCURVE",
"647 729 OFFCURVE",
"657 729 CURVE SMOOTH",
"669 729 OFFCURVE",
"699 714 OFFCURVE",
"709 714 CURVE SMOOTH",
"715 714 OFFCURVE",
"719 718 OFFCURVE",
"719 722 CURVE SMOOTH",
"719 742 OFFCURVE",
"679 789 OFFCURVE",
"611 789 CURVE SMOOTH",
"561 789 OFFCURVE",
"529 747 OFFCURVE",
"530 694 CURVE SMOOTH",
"531 616 OFFCURVE",
"666 501 OFFCURVE",
"666 457 CURVE SMOOTH",
"666 439 OFFCURVE",
"657 418 OFFCURVE",
"616 418 CURVE SMOOTH",
"597 418 OFFCURVE",
"578 421 OFFCURVE",
"569 423 CURVE",
"578 525 OFFCURVE",
"503 632 OFFCURVE",
"409 632 CURVE SMOOTH",
"348 632 OFFCURVE",
"231 556 OFFCURVE",
"230 504 CURVE SMOOTH",
"230 498 OFFCURVE",
"232 491 OFFCURVE",
"242 491 CURVE SMOOTH",
"254 491 OFFCURVE",
"306 513 OFFCURVE",
"323 513 CURVE SMOOTH",
"355 513 OFFCURVE",
"443 436 OFFCURVE",
"436 380 CURVE SMOOTH",
"419 280 OFFCURVE",
"410 219 OFFCURVE",
"407 174 CURVE SMOOTH",
"406 154 OFFCURVE",
"410 133 OFFCURVE",
"413 126 CURVE",
"411 121 LINE",
"242 121 OFFCURVE",
"144 124 OFFCURVE",
"144 238 CURVE SMOOTH",
"144 300 OFFCURVE",
"157 377 OFFCURVE",
"157 412 CURVE SMOOTH",
"157 418 OFFCURVE",
"155 427 OFFCURVE",
"146 427 CURVE SMOOTH",
"116 427 OFFCURVE",
"10 303 OFFCURVE",
"10 213 CURVE SMOOTH"
);
}
);
width = 848.08333;
}
);
leftKerningGroup = VowelE.bn;
note = VowelAi.bn;
unicode = 0990;
},
{
glyphname = VowelO.bn;
lastChange = "2022-01-18 14:03:00 +0000";
layers = (
{
background = {
paths = (
{
closed = 1;
nodes = (
"437 -27 OFFCURVE",
"576 70 OFFCURVE",
"576 225 CURVE SMOOTH",
"576 314 OFFCURVE",
"520 344 OFFCURVE",
"506 350 CURVE",
"551 383 OFFCURVE",
"571 426 OFFCURVE",
"571 458 CURVE SMOOTH",
"571 544 OFFCURVE",
"491 637 OFFCURVE",
"411 637 CURVE SMOOTH",
"354 637 OFFCURVE",
"269 559 OFFCURVE",
"269 508 CURVE SMOOTH",
"269 500 OFFCURVE",
"273 495 OFFCURVE",
"281 495 CURVE SMOOTH",
"297 495 OFFCURVE",
"351 525 OFFCURVE",
"369 525 CURVE SMOOTH",
"390 525 OFFCURVE",
"430 474 OFFCURVE",
"430 447 CURVE SMOOTH",
"430 418 OFFCURVE",
"397 401 OFFCURVE",
"355 390 CURVE SMOOTH",
"307 377 OFFCURVE",
"280 379 OFFCURVE",
"280 358 CURVE SMOOTH",
"280 332 OFFCURVE",
"298 258 OFFCURVE",
"324 258 CURVE SMOOTH",
"341 258 OFFCURVE",
"365 276 OFFCURVE",
"387 276 CURVE SMOOTH",
"408 276 OFFCURVE",
"428 233 OFFCURVE",
"428 189 CURVE SMOOTH",
"428 127 OFFCURVE",
"334 100 OFFCURVE",
"280 100 CURVE SMOOTH",
"201 100 OFFCURVE",
"169 199 OFFCURVE",
"169 293 CURVE SMOOTH",
"169 375 OFFCURVE",
"188 420 OFFCURVE",
"188 457 CURVE SMOOTH",
"188 470 OFFCURVE",
"187 480 OFFCURVE",
"174 480 CURVE SMOOTH",
"146 480 OFFCURVE",
"27 362 OFFCURVE",
"27 227 CURVE SMOOTH",
"27 93 OFFCURVE",
"121 -18 OFFCURVE",
"275 -23 CURVE SMOOTH"
);
}
);
};
layerId = "EC1E6058-8D86-4671-8808-9A08B2A725FC";
paths = (
{
closed = 1;
nodes = (
"428 -23 OFFCURVE",
"560 70 OFFCURVE",
"560 225 CURVE SMOOTH",
"560 308 OFFCURVE",
"498 344 OFFCURVE",
"484 350 CURVE",
"529 383 OFFCURVE",
"557 426 OFFCURVE",
"557 458 CURVE SMOOTH",
"557 544 OFFCURVE",
"479 623 OFFCURVE",
"422 623 CURVE SMOOTH",
"363 623 OFFCURVE",
"282 549 OFFCURVE",
"282 516 CURVE SMOOTH",
"282 510 OFFCURVE",
"286 507 OFFCURVE",
"292 507 CURVE SMOOTH",
"310 507 OFFCURVE",
"347 536 OFFCURVE",
"365 536 CURVE SMOOTH",
"397 536 OFFCURVE",
"452 474 OFFCURVE",
"452 447 CURVE SMOOTH",
"452 404 OFFCURVE",
"399 384 OFFCURVE",
"357 373 CURVE SMOOTH",
"309 360 OFFCURVE",
"293 360 OFFCURVE",
"293 341 CURVE SMOOTH",
"293 325 OFFCURVE",
"312 273 OFFCURVE",
"327 273 CURVE SMOOTH",
"341 273 OFFCURVE",
"371 292 OFFCURVE",
"393 292 CURVE SMOOTH",
"418 292 OFFCURVE",
"444 241 OFFCURVE",
"444 189 CURVE SMOOTH",
"444 127 OFFCURVE",
"379 84 OFFCURVE",
"286 84 CURVE SMOOTH",
"184 84 OFFCURVE",
"151 181 OFFCURVE",
"151 279 CURVE SMOOTH",
"151 375 OFFCURVE",
"183 420 OFFCURVE",
"183 460 CURVE SMOOTH",
"183 469 OFFCURVE",
"179 473 OFFCURVE",
"173 473 CURVE SMOOTH",
"145 473 OFFCURVE",
"45 362 OFFCURVE",
"45 227 CURVE SMOOTH",
"45 100 OFFCURVE",
"146 -12 OFFCURVE",
"278 -17 CURVE SMOOTH"
);
}
);
width = 645;
},
{
hints = (
{
horizontal = 1;
place = "{-21, 112}";
type = Stem;
},
{
horizontal = 1;
place = "{239, 105}";
type = Stem;
},
{
horizontal = 1;
place = "{454, 21}";
target = up;
type = BottomGhost;
},
{
horizontal = 1;
place = "{482, 102}";
type = Stem;
},
{
place = "{41, 130}";
type = Stem;
},
{
place = "{410, 130}";
type = Stem;
}
);
layerId = "959F729E-ED2F-45C2-951D-81A6BBE10EFE";
paths = (
{
closed = 1;
nodes = (
"453 -27 OFFCURVE",
"591 70 OFFCURVE",
"591 225 CURVE SMOOTH",
"591 314 OFFCURVE",
"535 344 OFFCURVE",
"521 350 CURVE",
"566 383 OFFCURVE",
"586 426 OFFCURVE",
"586 458 CURVE SMOOTH",
"586 544 OFFCURVE",
"507 636 OFFCURVE",
"428 636 CURVE SMOOTH",
"371 636 OFFCURVE",
"287 558 OFFCURVE",
"287 509 CURVE SMOOTH",
"287 501 OFFCURVE",
"291 496 OFFCURVE",
"298 496 CURVE SMOOTH",
"315 496 OFFCURVE",
"367 526 OFFCURVE",
"385 526 CURVE SMOOTH",
"407 526 OFFCURVE",
"448 474 OFFCURVE",
"448 447 CURVE SMOOTH",
"448 417 OFFCURVE",
"414 400 OFFCURVE",
"372 389 CURVE SMOOTH",
"324 376 OFFCURVE",
"298 377 OFFCURVE",
"298 357 CURVE SMOOTH",
"298 331 OFFCURVE",
"316 259 OFFCURVE",
"341 259 CURVE SMOOTH",
"358 259 OFFCURVE",
"382 277 OFFCURVE",
"404 277 CURVE SMOOTH",
"425 277 OFFCURVE",
"446 234 OFFCURVE",
"446 189 CURVE SMOOTH",
"446 127 OFFCURVE",
"354 99 OFFCURVE",
"297 99 CURVE SMOOTH",
"216 99 OFFCURVE",
"184 198 OFFCURVE",
"184 292 CURVE SMOOTH",
"184 375 OFFCURVE",
"204 420 OFFCURVE",
"204 457 CURVE SMOOTH",
"204 470 OFFCURVE",
"203 479 OFFCURVE",
"190 479 CURVE SMOOTH",
"162 479 OFFCURVE",
"45 362 OFFCURVE",
"45 227 CURVE SMOOTH",
"45 94 OFFCURVE",
"140 -18 OFFCURVE",
"292 -23 CURVE SMOOTH"
);
}
);
width = 694.5;
}
);
leftKerningGroup = VowelO.bn;
note = VowelO.bn;
unicode = 0993;
},
{
glyphname = VowelAu.bn;
lastChange = "2022-01-18 14:03:00 +0000";
layers = (
{
background = {
paths = (
{
closed = 1;
nodes = (
"437 -27 OFFCURVE",
"576 70 OFFCURVE",
"576 225 CURVE SMOOTH",
"576 314 OFFCURVE",
"520 344 OFFCURVE",
"506 350 CURVE",
"551 383 OFFCURVE",
"571 426 OFFCURVE",
"571 458 CURVE SMOOTH",
"571 544 OFFCURVE",
"491 637 OFFCURVE",
"411 637 CURVE SMOOTH",
"354 637 OFFCURVE",
"269 559 OFFCURVE",
"269 508 CURVE SMOOTH",
"269 500 OFFCURVE",
"273 495 OFFCURVE",
"281 495 CURVE SMOOTH",
"297 495 OFFCURVE",
"351 525 OFFCURVE",
"369 525 CURVE SMOOTH",
"390 525 OFFCURVE",
"430 474 OFFCURVE",
"430 447 CURVE SMOOTH",
"430 418 OFFCURVE",
"397 401 OFFCURVE",
"355 390 CURVE SMOOTH",
"307 377 OFFCURVE",
"280 379 OFFCURVE",
"280 358 CURVE SMOOTH",
"280 332 OFFCURVE",
"298 258 OFFCURVE",
"324 258 CURVE SMOOTH",
"341 258 OFFCURVE",
"365 276 OFFCURVE",
"387 276 CURVE SMOOTH",
"408 276 OFFCURVE",
"428 233 OFFCURVE",
"428 189 CURVE SMOOTH",
"428 127 OFFCURVE",
"334 100 OFFCURVE",
"280 100 CURVE SMOOTH",
"201 100 OFFCURVE",
"169 199 OFFCURVE",
"169 293 CURVE SMOOTH",
"169 375 OFFCURVE",
"188 420 OFFCURVE",
"188 457 CURVE SMOOTH",
"188 470 OFFCURVE",
"187 480 OFFCURVE",
"174 480 CURVE SMOOTH",
"146 480 OFFCURVE",
"27 362 OFFCURVE",
"27 227 CURVE SMOOTH",
"27 93 OFFCURVE",
"121 -18 OFFCURVE",
"275 -23 CURVE SMOOTH"
);
},
{
closed = 1;
nodes = (
"487 336 LINE",
"487 336 OFFCURVE",
"550 298 OFFCURVE",
"619 298 CURVE SMOOTH",
"721 298 OFFCURVE",
"798 354 OFFCURVE",
"798 447 CURVE SMOOTH",
"798 541 OFFCURVE",
"628 661 OFFCURVE",
"628 694 CURVE SMOOTH",
"628 715 OFFCURVE",
"632 728 OFFCURVE",
"641 728 CURVE SMOOTH",
"653 728 OFFCURVE",
"683 713 OFFCURVE",
"693 713 CURVE SMOOTH",
"699 713 OFFCURVE",
"703 717 OFFCURVE",
"703 722 CURVE SMOOTH",
"703 742 OFFCURVE",
"664 790 OFFCURVE",
"595 790 CURVE SMOOTH",
"544 790 OFFCURVE",
"512 747 OFFCURVE",
"513 693 CURVE SMOOTH",
"514 616 OFFCURVE",
"649 500 OFFCURVE",
"649 458 CURVE SMOOTH",
"649 440 OFFCURVE",
"640 419 OFFCURVE",
"600 419 CURVE SMOOTH",
"572 419 OFFCURVE",
"547 426 OFFCURVE",
"547 426 CURVE"
);
},
{
closed = 1;
nodes = (
"428 -23 OFFCURVE",
"560 70 OFFCURVE",
"560 225 CURVE SMOOTH",
"560 308 OFFCURVE",
"498 344 OFFCURVE",
"484 350 CURVE",
"529 383 OFFCURVE",
"557 426 OFFCURVE",
"557 458 CURVE SMOOTH",
"557 544 OFFCURVE",
"479 623 OFFCURVE",
"422 623 CURVE SMOOTH",
"363 623 OFFCURVE",
"282 549 OFFCURVE",
"282 516 CURVE SMOOTH",
"282 510 OFFCURVE",
"286 507 OFFCURVE",
"292 507 CURVE SMOOTH",
"310 507 OFFCURVE",
"347 536 OFFCURVE",
"365 536 CURVE SMOOTH",
"397 536 OFFCURVE",
"452 474 OFFCURVE",
"452 447 CURVE SMOOTH",
"452 404 OFFCURVE",
"399 384 OFFCURVE",
"357 373 CURVE SMOOTH",
"309 360 OFFCURVE",
"293 360 OFFCURVE",
"293 341 CURVE SMOOTH",
"293 325 OFFCURVE",
"312 273 OFFCURVE",
"327 273 CURVE SMOOTH",
"341 273 OFFCURVE",
"371 292 OFFCURVE",
"393 292 CURVE SMOOTH",
"418 292 OFFCURVE",
"444 241 OFFCURVE",
"444 189 CURVE SMOOTH",
"444 127 OFFCURVE",
"379 84 OFFCURVE",
"286 84 CURVE SMOOTH",
"184 84 OFFCURVE",
"151 181 OFFCURVE",
"151 279 CURVE SMOOTH",
"151 375 OFFCURVE",
"183 420 OFFCURVE",
"183 460 CURVE SMOOTH",
"183 469 OFFCURVE",
"179 473 OFFCURVE",
"173 473 CURVE SMOOTH",
"145 473 OFFCURVE",
"45 362 OFFCURVE",
"45 227 CURVE SMOOTH",
"45 100 OFFCURVE",
"146 -12 OFFCURVE",
"278 -17 CURVE SMOOTH"
);
},
{
closed = 1;
nodes = (
"474 347 LINE",
"474 347 OFFCURVE",
"550 304 OFFCURVE",
"624 304 CURVE SMOOTH",
"700 304 OFFCURVE",
"781 354 OFFCURVE",
"781 447 CURVE SMOOTH",
"781 534 OFFCURVE",
"612 652 OFFCURVE",
"612 689 CURVE SMOOTH",
"612 706 OFFCURVE",
"621 735 OFFCURVE",
"631 735 CURVE SMOOTH",
"649 735 OFFCURVE",
"681 716 OFFCURVE",
"691 716 CURVE SMOOTH",
"697 716 OFFCURVE",
"698 719 OFFCURVE",
"698 723 CURVE SMOOTH",
"698 737 OFFCURVE",
"654 783 OFFCURVE",
"595 783 CURVE SMOOTH",
"559 783 OFFCURVE",
"530 748 OFFCURVE",
"531 694 CURVE SMOOTH",
"532 617 OFFCURVE",
"673 503 OFFCURVE",
"673 446 CURVE SMOOTH",
"673 427 OFFCURVE",
"657 396 OFFCURVE",
"606 396 CURVE SMOOTH",
"570 396 OFFCURVE",
"525 412 OFFCURVE",
"525 412 CURVE"
);
}
);
};
layerId = "EC1E6058-8D86-4671-8808-9A08B2A725FC";
paths = (
{
closed = 1;
nodes = (
"45 100 OFFCURVE",
"146 -12 OFFCURVE",
"278 -17 CURVE SMOOTH",
"428 -23 OFFCURVE",
"560 70 OFFCURVE",
"560 225 CURVE SMOOTH",
"560 275 OFFCURVE",
"538 308 OFFCURVE",
"517 327 CURVE",
"546 316 OFFCURVE",
"585 304 OFFCURVE",
"624 304 CURVE SMOOTH",
"700 304 OFFCURVE",
"781 354 OFFCURVE",
"781 447 CURVE SMOOTH",
"781 534 OFFCURVE",
"612 652 OFFCURVE",
"612 689 CURVE SMOOTH",
"612 706 OFFCURVE",
"621 735 OFFCURVE",
"631 735 CURVE SMOOTH",
"649 735 OFFCURVE",
"681 716 OFFCURVE",
"691 716 CURVE SMOOTH",
"697 716 OFFCURVE",
"698 719 OFFCURVE",
"698 723 CURVE SMOOTH",
"698 737 OFFCURVE",
"654 783 OFFCURVE",
"595 783 CURVE SMOOTH",
"559 783 OFFCURVE",
"530 748 OFFCURVE",
"531 694 CURVE SMOOTH",
"532 617 OFFCURVE",
"673 503 OFFCURVE",
"673 446 CURVE SMOOTH",
"673 427 OFFCURVE",
"657 396 OFFCURVE",
"606 396 CURVE SMOOTH",
"583 396 OFFCURVE",
"556 403 OFFCURVE",
"539 407 CURVE",
"551 425 OFFCURVE",
"557 443 OFFCURVE",
"557 458 CURVE SMOOTH",
"557 544 OFFCURVE",
"479 623 OFFCURVE",
"422 623 CURVE SMOOTH",
"363 623 OFFCURVE",
"282 549 OFFCURVE",
"282 516 CURVE SMOOTH",
"282 510 OFFCURVE",
"286 507 OFFCURVE",
"292 507 CURVE SMOOTH",
"310 507 OFFCURVE",
"347 536 OFFCURVE",
"365 536 CURVE SMOOTH",
"397 536 OFFCURVE",
"452 474 OFFCURVE",
"452 447 CURVE SMOOTH",
"452 404 OFFCURVE",
"399 384 OFFCURVE",
"357 373 CURVE SMOOTH",
"309 360 OFFCURVE",
"293 360 OFFCURVE",
"293 341 CURVE SMOOTH",
"293 325 OFFCURVE",
"312 273 OFFCURVE",
"327 273 CURVE SMOOTH",
"341 273 OFFCURVE",
"371 292 OFFCURVE",
"393 292 CURVE SMOOTH",
"418 292 OFFCURVE",
"444 241 OFFCURVE",
"444 189 CURVE SMOOTH",
"444 127 OFFCURVE",
"379 84 OFFCURVE",
"286 84 CURVE SMOOTH",
"184 84 OFFCURVE",
"151 181 OFFCURVE",
"151 279 CURVE SMOOTH",
"151 375 OFFCURVE",
"183 420 OFFCURVE",
"183 460 CURVE SMOOTH",
"183 469 OFFCURVE",
"179 473 OFFCURVE",
"173 473 CURVE SMOOTH",
"145 473 OFFCURVE",
"45 362 OFFCURVE",
"45 227 CURVE SMOOTH"
);
}
);
width = 835;
},
{
hints = (
{
horizontal = 1;
place = "{-21, 112}";
type = Stem;
},
{
horizontal = 1;
place = "{273, 111}";
type = Stem;
},
{
horizontal = 1;
place = "{454, 21}";
target = up;
type = BottomGhost;
},
{
horizontal = 1;
place = "{482, 102}";
type = Stem;
},
{
horizontal = 1;
place = "{668, 55}";
type = Stem;
},
{
place = "{41, 130}";
type = Stem;
},
{
place = "{410, 130}";
type = Stem;
},
{
place = "{610, 136}";
type = Stem;
},
{
horizontal = 1;
place = "{239, 105}";
type = Stem;
}
);
layerId = "959F729E-ED2F-45C2-951D-81A6BBE10EFE";
paths = (
{
closed = 1;
nodes = (
"44 94 OFFCURVE",
"139 -18 OFFCURVE",
"291 -23 CURVE SMOOTH",
"452 -27 OFFCURVE",
"590 70 OFFCURVE",
"590 225 CURVE SMOOTH",
"590 263 OFFCURVE",
"579 291 OFFCURVE",
"567 310 CURVE",
"587 303 OFFCURVE",
"611 299 OFFCURVE",
"635 299 CURVE SMOOTH",
"735 299 OFFCURVE",
"812 354 OFFCURVE",
"812 447 CURVE SMOOTH",
"812 540 OFFCURVE",
"642 660 OFFCURVE",
"642 694 CURVE SMOOTH",
"642 714 OFFCURVE",
"647 729 OFFCURVE",
"656 729 CURVE SMOOTH",
"668 729 OFFCURVE",
"698 713 OFFCURVE",
"708 713 CURVE SMOOTH",
"714 713 OFFCURVE",
"718 717 OFFCURVE",
"718 722 CURVE SMOOTH",
"718 742 OFFCURVE",
"679 789 OFFCURVE",
"611 789 CURVE SMOOTH",
"561 789 OFFCURVE",
"529 747 OFFCURVE",
"530 693 CURVE SMOOTH",
"531 616 OFFCURVE",
"667 500 OFFCURVE",
"667 457 CURVE SMOOTH",
"667 439 OFFCURVE",
"657 417 OFFCURVE",
"616 417 CURVE SMOOTH",
"602 417 OFFCURVE",
"588 420 OFFCURVE",
"578 421 CURVE",
"583 434 OFFCURVE",
"585 447 OFFCURVE",
"585 458 CURVE SMOOTH",
"585 544 OFFCURVE",
"506 636 OFFCURVE",
"428 636 CURVE SMOOTH",
"370 636 OFFCURVE",
"286 558 OFFCURVE",
"286 509 CURVE SMOOTH",
"286 501 OFFCURVE",
"290 496 OFFCURVE",
"298 496 CURVE SMOOTH",
"314 496 OFFCURVE",
"366 526 OFFCURVE",
"384 526 CURVE SMOOTH",
"406 526 OFFCURVE",
"447 474 OFFCURVE",
"447 447 CURVE SMOOTH",
"447 417 OFFCURVE",
"413 400 OFFCURVE",
"371 389 CURVE SMOOTH",
"323 376 OFFCURVE",
"297 377 OFFCURVE",
"297 357 CURVE SMOOTH",
"297 331 OFFCURVE",
"315 259 OFFCURVE",
"340 259 CURVE SMOOTH",
"357 259 OFFCURVE",
"381 277 OFFCURVE",
"403 277 CURVE SMOOTH",
"424 277 OFFCURVE",
"445 234 OFFCURVE",
"445 189 CURVE SMOOTH",
"445 127 OFFCURVE",
"353 99 OFFCURVE",
"296 99 CURVE SMOOTH",
"215 99 OFFCURVE",
"183 198 OFFCURVE",
"183 292 CURVE SMOOTH",
"183 375 OFFCURVE",
"203 420 OFFCURVE",
"203 457 CURVE SMOOTH",
"203 470 OFFCURVE",
"202 479 OFFCURVE",
"190 479 CURVE SMOOTH",
"162 479 OFFCURVE",
"44 362 OFFCURVE",
"44 227 CURVE SMOOTH"
);
}
);
width = 859.75;
}
);
leftKerningGroup = VowelO.bn;
note = VowelAu.bn;
unicode = 0994;
},
{
glyphname = Ka.bn;
lastChange = "2022-01-23 20:17:00 +0000";
layers = (
{
anchors = (
{
name = bottom;
position = "{373, -21}";
},
{
name = top;
position = "{521, 630}";
}
);
background = {
paths = (
{
closed = 1;
nodes = (
"716 76 OFFCURVE",
"806 181 OFFCURVE",
"806 262 CURVE SMOOTH",
"806 378 OFFCURVE",
"696 445 OFFCURVE",
"585 445 CURVE SMOOTH",
"514.91 445 OFFCURVE",
"448.21 438.91 OFFCURVE",
"448.21 438.91 CURVE",
"486 312 LINE",
"553 321 OFFCURVE",
"617 329 OFFCURVE",
"641 329 CURVE SMOOTH",
"676 329 OFFCURVE",
"699 309 OFFCURVE",
"698 265 CURVE SMOOTH",
"698 235 OFFCURVE",
"641 202 OFFCURVE",
"617.99 202 CURVE SMOOTH",
"605.07 202 OFFCURVE",
"584.07 244.03 OFFCURVE",
"572.07 244.03 CURVE SMOOTH",
"567.29 244.03 OFFCURVE",
"564.53 232.17 OFFCURVE",
"564.53 225.86 CURVE SMOOTH",
"565 166 OFFCURVE",
"613 75 OFFCURVE",
"657.78 75.58 CURVE SMOOTH"
);
},
{
closed = 1;
nodes = (
"403.99 541.14 LINE",
"403.99 541.14 OFFCURVE",
"376.99 340 OFFCURVE",
"370.11 170 CURVE SMOOTH",
"369.3 149.91 OFFCURVE",
"369.99 124 OFFCURVE",
"369.99 124 CURVE",
"350 124 OFFCURVE",
"235 196 OFFCURVE",
"193.99 316 CURVE",
"193.99 316 OFFCURVE",
"252.99 314.27 OFFCURVE",
"289.99 314.27 CURVE SMOOTH",
"319.99 314.27 OFFCURVE",
"386.14 316.11 OFFCURVE",
"429.13 319 CURVE",
"444.99 443 LINE",
"445 443 OFFCURVE",
"331 439 OFFCURVE",
"258 439 CURVE SMOOTH",
"206 439 OFFCURVE",
"149 442 OFFCURVE",
"97.99 442 CURVE SMOOTH",
"54.98 442 OFFCURVE",
"31.99 438 OFFCURVE",
"20.99 409 CURVE SMOOTH",
"15 393 OFFCURVE",
"-1 344 OFFCURVE",
"-1 334 CURVE SMOOTH",
"-1 326 OFFCURVE",
"5 321 OFFCURVE",
"19.99 315 CURVE SMOOTH",
"43.99 306 OFFCURVE",
"60 300 OFFCURVE",
"63.99 286 CURVE SMOOTH",
"111 132 OFFCURVE",
"291 -21 OFFCURVE",
"375.99 -21 CURVE SMOOTH",
"433 -21 OFFCURVE",
"503 95 OFFCURVE",
"507.99 174 CURVE SMOOTH",
"519.92 360.94 OFFCURVE",
"540.99 538 OFFCURVE",
"540.99 538 CURVE"
);
},
{
closed = 1;
nodes = (
"-0.01 630 LINE",
"-13 630 OFFCURVE",
"-24 628 OFFCURVE",
"-29.01 611 CURVE SMOOTH",
"-54.01 533 LINE SMOOTH",
"-59 518 OFFCURVE",
"-52.34 511 OFFCURVE",
"-33.01 511 CURVE SMOOTH",
"855.13 511 LINE",
"887 511 OFFCURVE",
"897 509 OFFCURVE",
"904.13 530 CURVE SMOOTH",
"929.13 608 LINE SMOOTH",
"934 623 OFFCURVE",
"927.32 630 OFFCURVE",
"907.99 630 CURVE SMOOTH"
);
},
{
closed = 1;
nodes = (
"708 95 OFFCURVE",
"794 193 OFFCURVE",
"794 273 CURVE SMOOTH",
"794 367 OFFCURVE",
"693 424 OFFCURVE",
"598 424 CURVE SMOOTH",
"525 424 OFFCURVE",
"449 418 OFFCURVE",
"449 418 CURVE",
"478 315 LINE",
"529 322 OFFCURVE",
"602 333 OFFCURVE",
"643 333 CURVE SMOOTH",
"682 333 OFFCURVE",
"709 316 OFFCURVE",
"709 264 CURVE SMOOTH",
"709 232 OFFCURVE",
"651 195 OFFCURVE",
"619 195 CURVE SMOOTH",
"603 195 OFFCURVE",
"589 235 OFFCURVE",
"579 235 CURVE SMOOTH",
"573 235 OFFCURVE",
"572 223 OFFCURVE",
"572 214 CURVE SMOOTH",
"572 177 OFFCURVE",
"614 95 OFFCURVE",
"659 95 CURVE SMOOTH"
);
},
{
closed = 1;
nodes = (
"0 606 LINE",
"-17 606 OFFCURVE",
"-25 602 OFFCURVE",
"-30 587 CURVE SMOOTH",
"-47 534 LINE SMOOTH",
"-52 519 OFFCURVE",
"-45 512 OFFCURVE",
"-26 512 CURVE SMOOTH",
"862 512 LINE",
"901 512 OFFCURVE",
"914 509 OFFCURVE",
"921 531 CURVE SMOOTH",
"938 584 LINE SMOOTH",
"943 599 OFFCURVE",
"936 606 OFFCURVE",
"917 606 CURVE SMOOTH"
);
},
{
closed = 1;
nodes = (
"402 539 LINE",
"405 539 OFFCURVE",
"377 331 OFFCURVE",
"370 165 CURVE SMOOTH",
"368 114 OFFCURVE",
"367 86 OFFCURVE",
"367 86 CURVE",
"267 120 OFFCURVE",
"183 233 OFFCURVE",
"163 321 CURVE",
"163 321 OFFCURVE",
"249 315 OFFCURVE",
"289 315 CURVE SMOOTH",
"318 315 OFFCURVE",
"393 316 OFFCURVE",
"428 319 CURVE",
"441 419 LINE",
"441 419 OFFCURVE",
"353 415 OFFCURVE",
"255 415 CURVE SMOOTH",
"195 415 OFFCURVE",
"149 418 OFFCURVE",
"96 418 CURVE SMOOTH",
"56 418 OFFCURVE",
"39 415 OFFCURVE",
"32 392 CURVE SMOOTH",
"27 376 OFFCURVE",
"22 363 OFFCURVE",
"17 347 CURVE SMOOTH",
"13 334 OFFCURVE",
"12 324 OFFCURVE",
"29 318 CURVE SMOOTH",
"50 311 OFFCURVE",
"59 300 OFFCURVE",
"66 279 CURVE SMOOTH",
"112 142 OFFCURVE",
"279 -21 OFFCURVE",
"373 -21 CURVE SMOOTH",
"425 -21 OFFCURVE",
"473 76 OFFCURVE",
"478 154 CURVE SMOOTH",
"490 341 OFFCURVE",
"514 536 OFFCURVE",
"514 536 CURVE"
);
}
);
};
layerId = "EC1E6058-8D86-4671-8808-9A08B2A725FC";
paths = (
{
closed = 1;
nodes = (
"-52 519 OFFCURVE",
"-45 512 OFFCURVE",
"-26 512 CURVE SMOOTH",
"400 512 LINE",
"390 417 LINE",
"355 416 OFFCURVE",
"307 415 OFFCURVE",
"255 415 CURVE SMOOTH",
"195 415 OFFCURVE",
"149 418 OFFCURVE",
"96 418 CURVE SMOOTH",
"56 418 OFFCURVE",
"39 415 OFFCURVE",
"32 392 CURVE SMOOTH",
"27 376 OFFCURVE",
"22 363 OFFCURVE",
"17 347 CURVE SMOOTH",
"13 334 OFFCURVE",
"12 324 OFFCURVE",
"29 318 CURVE SMOOTH",
"50 311 OFFCURVE",
"59 300 OFFCURVE",
"66 279 CURVE SMOOTH",
"112 142 OFFCURVE",
"279 -21 OFFCURVE",
"373 -21 CURVE SMOOTH",
"425 -21 OFFCURVE",
"473 76 OFFCURVE",
"478 154 CURVE SMOOTH",
"482 209 OFFCURVE",
"486 265 OFFCURVE",
"491 317 CURVE",
"541 324 OFFCURVE",
"605 333 OFFCURVE",
"643 333 CURVE SMOOTH",
"682 333 OFFCURVE",
"709 316 OFFCURVE",
"709 264 CURVE SMOOTH",
"709 232 OFFCURVE",
"651 195 OFFCURVE",
"619 195 CURVE SMOOTH",
"603 195 OFFCURVE",
"589 235 OFFCURVE",
"579 235 CURVE SMOOTH",
"573 235 OFFCURVE",
"572 223 OFFCURVE",
"572 214 CURVE SMOOTH",
"572 177 OFFCURVE",
"614 95 OFFCURVE",
"659 95 CURVE SMOOTH",
"708 95 OFFCURVE",
"794 193 OFFCURVE",
"794 273 CURVE SMOOTH",
"794 367 OFFCURVE",
"693 424 OFFCURVE",
"598 424 CURVE SMOOTH",
"564 424 OFFCURVE",
"529 423 OFFCURVE",
"501 421 CURVE",
"511 512 LINE",
"862 512 LINE SMOOTH",
"901 512 OFFCURVE",
"914 509 OFFCURVE",
"921 531 CURVE SMOOTH",
"938 584 LINE SMOOTH",
"943 599 OFFCURVE",
"936 606 OFFCURVE",
"917 606 CURVE SMOOTH",
"0 606 LINE SMOOTH",
"-17 606 OFFCURVE",
"-25 602 OFFCURVE",
"-30 587 CURVE SMOOTH",
"-47 534 LINE SMOOTH"
);
},
{
closed = 1;
nodes = (
"163 321 OFFCURVE",
"249 315 OFFCURVE",
"289 315 CURVE SMOOTH",
"308 315 OFFCURVE",
"346 315 OFFCURVE",
"380 317 CURVE",
"374 247 OFFCURVE",
"367 136 OFFCURVE",
"367 86 CURVE",
"267 120 OFFCURVE",
"183 233 OFFCURVE",
"163 321 CURVE"
);
}
);
width = 862;
},
{
anchors = (
{
name = bottom;
position = "{376, -21}";
},
{
name = top;
position = "{521, 643}";
}
);
hints = (
{
horizontal = 1;
place = "{69, 116}";
type = Stem;
},
{
horizontal = 1;
place = "{301, 107}";
type = Stem;
},
{
horizontal = 1;
place = "{468, 109}";
type = Stem;
},
{
place = "{640, 99}";
type = Stem;
},
{
horizontal = 1;
place = "{288, 114}";
type = Stem;
}
);
layerId = "959F729E-ED2F-45C2-951D-81A6BBE10EFE";
paths = (
{
closed = 1;
nodes = (
"-58 518 OFFCURVE",
"-51 511 OFFCURVE",
"-32 511 CURVE SMOOTH",
"400 511 LINE",
"392 439 LINE",
"353 438 OFFCURVE",
"300 437 OFFCURVE",
"258 437 CURVE SMOOTH",
"205 437 OFFCURVE",
"149 440 OFFCURVE",
"98 440 CURVE SMOOTH",
"55 440 OFFCURVE",
"33 436 OFFCURVE",
"22 408 CURVE SMOOTH",
"16 392 OFFCURVE",
"1 346 OFFCURVE",
"1 335 CURVE SMOOTH",
"0 327 OFFCURVE",
"6 321 OFFCURVE",
"21 315 CURVE SMOOTH",
"45 306 OFFCURVE",
"60 300 OFFCURVE",
"64 285 CURVE SMOOTH",
"111 133 OFFCURVE",
"290 -21 OFFCURVE",
"376 -21 CURVE SMOOTH",
"432 -21 OFFCURVE",
"501 93 OFFCURVE",
"506 172 CURVE SMOOTH",
"509 222 OFFCURVE",
"513 271 OFFCURVE",
"517 316 CURVE",
"570 323 OFFCURVE",
"620 329 OFFCURVE",
"641 329 CURVE SMOOTH",
"677 329 OFFCURVE",
"700 310 OFFCURVE",
"699 265 CURVE SMOOTH",
"699 235 OFFCURVE",
"642 201 OFFCURVE",
"618 201 CURVE SMOOTH",
"605 201 OFFCURVE",
"584 243 OFFCURVE",
"573 243 CURVE SMOOTH",
"568 243 OFFCURVE",
"566 231 OFFCURVE",
"566 225 CURVE SMOOTH",
"566 167 OFFCURVE",
"613 77 OFFCURVE",
"658 78 CURVE SMOOTH",
"715 78 OFFCURVE",
"805 182 OFFCURVE",
"805 263 CURVE SMOOTH",
"805 377 OFFCURVE",
"696 443 OFFCURVE",
"586 443 CURVE SMOOTH",
"566 443 OFFCURVE",
"546 443 OFFCURVE",
"529 442 CURVE",
"536 511 LINE",
"856 511 LINE SMOOTH",
"888 511 OFFCURVE",
"898 509 OFFCURVE",
"905 530 CURVE SMOOTH",
"930 606 LINE SMOOTH",
"935 621 OFFCURVE",
"928 628 OFFCURVE",
"909 628 CURVE SMOOTH",
"0 628 LINE SMOOTH",
"-13 628 OFFCURVE",
"-24 626 OFFCURVE",
"-29 609 CURVE SMOOTH",
"-53 533 LINE SMOOTH"
);
},
{
closed = 1;
nodes = (
"191 316 OFFCURVE",
"253 314 OFFCURVE",
"290 314 CURVE SMOOTH",
"310 314 OFFCURVE",
"345 315 OFFCURVE",
"380 316 CURVE",
"376 256 OFFCURVE",
"370 186 OFFCURVE",
"370 121 CURVE",
"343 124 OFFCURVE",
"231 199 OFFCURVE",
"191 316 CURVE"
);
}
);
width = 855.58333;
}
);
leftKerningGroup = VowelA.bn;
note = Ka.bn;
rightKerningGroup = VowelA.bn;
unicode = 0995;
},
{
glyphname = Kha.bn;
lastChange = "2022-01-23 17:37:23 +0000";
layers = (
{
anchors = (
{
name = bottom;
position = "{430, -21}";
},
{
name = top;
position = "{582, 630}";
}
);
layerId = "EC1E6058-8D86-4671-8808-9A08B2A725FC";
paths = (
{
closed = 1;
nodes = (
"460 487 OFFCURVE",
"440 319 OFFCURVE",
"432 149 CURVE SMOOTH",
"431 129 OFFCURVE",
"430 83 OFFCURVE",
"430 83 CURVE",
"384 83 OFFCURVE",
"222 146 OFFCURVE",
"178 281 CURVE",
"178 281 OFFCURVE",
"200 280 OFFCURVE",
"225 280 CURVE SMOOTH",
"312 280 OFFCURVE",
"396 367 OFFCURVE",
"396 464 CURVE SMOOTH",
"396 542 OFFCURVE",
"325 606 OFFCURVE",
"297 606 CURVE SMOOTH",
"269 606 OFFCURVE",
"222 552 OFFCURVE",
"186 552 CURVE SMOOTH",
"150 552 OFFCURVE",
"108 586 OFFCURVE",
"108 611 CURVE SMOOTH",
"108 625 OFFCURVE",
"131 647 OFFCURVE",
"131 659 CURVE SMOOTH",
"131 664 OFFCURVE",
"127 665 OFFCURVE",
"123 665 CURVE SMOOTH",
"101 665 OFFCURVE",
"25 613 OFFCURVE",
"25 550 CURVE SMOOTH",
"25 494 OFFCURVE",
"92 455 OFFCURVE",
"160 455 CURVE SMOOTH",
"224 455 OFFCURVE",
"293 525 OFFCURVE",
"293 525 CURVE",
"299 517 OFFCURVE",
"309 492 OFFCURVE",
"309 474 CURVE SMOOTH",
"309 397 OFFCURVE",
"240 371 OFFCURVE",
"186 371 CURVE SMOOTH",
"169 371 OFFCURVE",
"137 374 OFFCURVE",
"101 374 CURVE SMOOTH",
"58 374 OFFCURVE",
"35 373 OFFCURVE",
"24 344 CURVE SMOOTH",
"16 323 OFFCURVE",
"9 310 OFFCURVE",
"9 299 CURVE SMOOTH",
"9 289 OFFCURVE",
"15 281 OFFCURVE",
"30 276 CURVE SMOOTH",
"48 270 OFFCURVE",
"61 261 OFFCURVE",
"74 238 CURVE SMOOTH",
"165 70 OFFCURVE",
"321 -21 OFFCURVE",
"429.96 -21 CURVE SMOOTH",
"496 -21 OFFCURVE",
"537 85 OFFCURVE",
"542 174 CURVE SMOOTH",
"551 328 OFFCURVE",
"573 512 OFFCURVE",
"573 512 CURVE",
"650 512 LINE",
"686 512 OFFCURVE",
"692 510 OFFCURVE",
"699 531 CURVE SMOOTH",
"716 584 LINE SMOOTH",
"721 598 OFFCURVE",
"714 606 OFFCURVE",
"695 606 CURVE SMOOTH",
"598 606 LINE SMOOTH",
"521 606 OFFCURVE",
"474 587 OFFCURVE",
"462.96 511 CURVE"
);
}
);
width = 650;
},
{
anchors = (
{
name = bottom;
position = "{430, -21}";
},
{
name = top;
position = "{595, 645}";
}
);
hints = (
{
horizontal = 1;
place = "{-19, 122}";
type = Stem;
},
{
horizontal = 1;
place = "{245, 110}";
type = Stem;
},
{
horizontal = 1;
place = "{468, 109}";
type = Stem;
},
{
place = "{18, 87}";
type = Stem;
},
{
place = "{269, 113}";
type = Stem;
},
{
horizontal = 1;
place = "{413, 104}";
type = Stem;
}
);
layerId = "959F729E-ED2F-45C2-951D-81A6BBE10EFE";
paths = (
{
closed = 1;
nodes = (
"463 509 OFFCURVE",
"441 338 OFFCURVE",
"434 168 CURVE SMOOTH",
"433 148 OFFCURVE",
"433 110 OFFCURVE",
"433 110 CURVE",
"366 110 OFFCURVE",
"241 176 OFFCURVE",
"195 268 CURVE",
"195 268 OFFCURVE",
"217 268 OFFCURVE",
"242 268 CURVE SMOOTH",
"329 268 OFFCURVE",
"414 367 OFFCURVE",
"414 464 CURVE SMOOTH",
"414 542 OFFCURVE",
"332 628 OFFCURVE",
"297 629 CURVE SMOOTH",
"262 629 OFFCURVE",
"225 563 OFFCURVE",
"181 563 CURVE SMOOTH",
"150 563 OFFCURVE",
"114 595 OFFCURVE",
"114 615 CURVE SMOOTH",
"114 631 OFFCURVE",
"139 653 OFFCURVE",
"139 665 CURVE SMOOTH",
"139 670 OFFCURVE",
"136 672 OFFCURVE",
"131 672 CURVE SMOOTH",
"92 673 OFFCURVE",
"20 615 OFFCURVE",
"20 552 CURVE SMOOTH",
"20 496 OFFCURVE",
"89 451 OFFCURVE",
"161 451 CURVE SMOOTH",
"235 451 OFFCURVE",
"287 506 OFFCURVE",
"287 506 CURVE",
"291 499 OFFCURVE",
"295 485 OFFCURVE",
"295 474 CURVE SMOOTH",
"294 418 OFFCURVE",
"240 386 OFFCURVE",
"186 386 CURVE SMOOTH",
"162 386 OFFCURVE",
"148 389 OFFCURVE",
"93 389 CURVE SMOOTH",
"50 389 OFFCURVE",
"27 385 OFFCURVE",
"16 356 CURVE SMOOTH",
"8 335 OFFCURVE",
"-6 298 OFFCURVE",
"-6 287 CURVE SMOOTH",
"-6 277 OFFCURVE",
"0 269 OFFCURVE",
"15 264 CURVE SMOOTH",
"33 258 OFFCURVE",
"51 249 OFFCURVE",
"65 226 CURVE SMOOTH",
"165 64 OFFCURVE",
"321 -21 OFFCURVE",
"430 -21 CURVE SMOOTH",
"496 -21 OFFCURVE",
"565 85 OFFCURVE",
"569 174 CURVE SMOOTH",
"579 328 OFFCURVE",
"600 511 OFFCURVE",
"600 511 CURVE",
"650 511 LINE",
"682 511 OFFCURVE",
"692 509 OFFCURVE",
"699 530 CURVE SMOOTH",
"723 606 LINE SMOOTH",
"728 621 OFFCURVE",
"721 628 OFFCURVE",
"702 628 CURVE SMOOTH",
"598 628 LINE SMOOTH",
"521 628 OFFCURVE",
"474 587 OFFCURVE",
"463 511 CURVE"
);
}
);
width = 650;
}
);
note = Kha.bn;
rightKerningGroup = VowelA.bn;
unicode = 0996;
},
{
glyphname = Ga.bn;
lastChange = "2022-01-23 17:37:31 +0000";
layers = (
{
anchors = (
{
name = bottom;
position = "{402, -30}";
},
{
name = top;
position = "{551, 630}";
}
);
background = {
paths = (
{
closed = 1;
nodes = (
"226.84 287.15 OFFCURVE",
"177.97 237 OFFCURVE",
"142 237 CURVE SMOOTH",
"128.92 237 OFFCURVE",
"104.56 274.95 OFFCURVE",
"93.84 274.95 CURVE SMOOTH",
"87.33 274.95 OFFCURVE",
"85.81 271.05 OFFCURVE",
"85.81 266.4 CURVE SMOOTH",
"86 210 OFFCURVE",
"138 122 OFFCURVE",
"187.84 121.95 CURVE SMOOTH",
"265 122 OFFCURVE",
"352 226 OFFCURVE",
"351.84 316.95 CURVE SMOOTH",
"352 374 OFFCURVE",
"269 464 OFFCURVE",
"203 464 CURVE SMOOTH",
"183 464 OFFCURVE",
"165 459 OFFCURVE",
"165 459 CURVE",
"165 469 OFFCURVE",
"195 518 OFFCURVE",
"249.38 518.4 CURVE SMOOTH",
"351 518 OFFCURVE",
"416 357 OFFCURVE",
"447 263 CURVE",
"447 553 LINE",
"442 553 LINE",
"409 594 OFFCURVE",
"349 634 OFFCURVE",
"276.1 633.55 CURVE SMOOTH",
"144 634 OFFCURVE",
"26 529 OFFCURVE",
"26.4 406.05 CURVE SMOOTH",
"26.4 378 OFFCURVE",
"81 321 OFFCURVE",
"108 321 CURVE SMOOTH",
"135 321 OFFCURVE",
"120 336 OFFCURVE",
"120 344 CURVE SMOOTH",
"120 352 OFFCURVE",
"144.94 376 OFFCURVE",
"165 376 CURVE SMOOTH",
"186 376 OFFCURVE",
"226.84 345.95 OFFCURVE",
"226.84 323.95 CURVE SMOOTH"
);
},
{
closed = 1;
nodes = (
"413 358 OFFCURVE",
"418 254 OFFCURVE",
"391 53 CURVE SMOOTH",
"386.18 16.82 OFFCURVE",
"373.71 -31 OFFCURVE",
"410 -31 CURVE SMOOTH",
"472 -31 OFFCURVE",
"537 82 OFFCURVE",
"542 164 CURVE SMOOTH",
"553.93 350.94 OFFCURVE",
"572 511 OFFCURVE",
"572 511 CURVE",
"620 511 LINE",
"652 511 OFFCURVE",
"662 509 OFFCURVE",
"669 530 CURVE SMOOTH",
"694 608 LINE SMOOTH",
"699 623 OFFCURVE",
"692 630 OFFCURVE",
"673 630 CURVE SMOOTH",
"571 630 LINE SMOOTH",
"498 630 OFFCURVE",
"464 609 OFFCURVE",
"447 553 CURVE",
"442 553 LINE"
);
},
{
closed = 1;
nodes = (
"243 283 OFFCURVE",
"191 229 OFFCURVE",
"143 229 CURVE SMOOTH",
"129 229 OFFCURVE",
"115 260 OFFCURVE",
"105 260 CURVE SMOOTH",
"99 260 OFFCURVE",
"98 254 OFFCURVE",
"98 248 CURVE SMOOTH",
"98 208 OFFCURVE",
"151 131 OFFCURVE",
"188 131 CURVE SMOOTH",
"244 131 OFFCURVE",
"341 226 OFFCURVE",
"341 317 CURVE SMOOTH",
"341 374 OFFCURVE",
"253 456 OFFCURVE",
"198 456 CURVE SMOOTH",
"179 456 OFFCURVE",
"157 452 OFFCURVE",
"147 447 CURVE",
"147 458 OFFCURVE",
"176 529 OFFCURVE",
"249 529 CURVE SMOOTH",
"351 529 OFFCURVE",
"409 393 OFFCURVE",
"447 296 CURVE",
"447 535 LINE",
"439 535 LINE",
"406 570 OFFCURVE",
"347 617 OFFCURVE",
"275 617 CURVE SMOOTH",
"150 617 OFFCURVE",
"43 510 OFFCURVE",
"43 406 CURVE SMOOTH",
"43 378 OFFCURVE",
"81 338 OFFCURVE",
"108 338 CURVE SMOOTH",
"135 338 OFFCURVE",
"114 353 OFFCURVE",
"114 361 CURVE SMOOTH",
"114 369 OFFCURVE",
"145 394 OFFCURVE",
"165 394 CURVE SMOOTH",
"186 394 OFFCURVE",
"243 359 OFFCURVE",
"243 324 CURVE SMOOTH"
);
},
{
closed = 1;
nodes = (
"415 352 OFFCURVE",
"413 218 OFFCURVE",
"390 54 CURVE SMOOTH",
"385 18 OFFCURVE",
"371 -30 OFFCURVE",
"402 -30 CURVE SMOOTH",
"439 -30 OFFCURVE",
"510 85 OFFCURVE",
"515 165 CURVE SMOOTH",
"527 352 OFFCURVE",
"544 512 OFFCURVE",
"544 512 CURVE",
"598 512 LINE",
"630 512 OFFCURVE",
"636 510 OFFCURVE",
"644 531 CURVE SMOOTH",
"664 584 LINE SMOOTH",
"670 601 OFFCURVE",
"663 605 OFFCURVE",
"641 606 CURVE",
"569 606 LINE",
"510 606 OFFCURVE",
"465 589 OFFCURVE",
"447 535 CURVE",
"439 535 LINE"
);
}
);
};
layerId = "EC1E6058-8D86-4671-8808-9A08B2A725FC";
paths = (
{
closed = 1;
nodes = (
"43 378 OFFCURVE",
"81 338 OFFCURVE",
"108 338 CURVE SMOOTH",
"135 338 OFFCURVE",
"114 353 OFFCURVE",
"114 361 CURVE SMOOTH",
"114 369 OFFCURVE",
"145 394 OFFCURVE",
"165 394 CURVE SMOOTH",
"186 394 OFFCURVE",
"243 359 OFFCURVE",
"243 324 CURVE SMOOTH",
"243 283 OFFCURVE",
"191 229 OFFCURVE",
"143 229 CURVE SMOOTH",
"129 229 OFFCURVE",
"115 260 OFFCURVE",
"105 260 CURVE SMOOTH",
"99 260 OFFCURVE",
"98 254 OFFCURVE",
"98 248 CURVE SMOOTH",
"98 208 OFFCURVE",
"151 131 OFFCURVE",
"188 131 CURVE SMOOTH",
"244 131 OFFCURVE",
"341 226 OFFCURVE",
"341 317 CURVE SMOOTH",
"341 374 OFFCURVE",
"253 456 OFFCURVE",
"198 456 CURVE SMOOTH",
"179 456 OFFCURVE",
"157 452 OFFCURVE",
"147 447 CURVE",
"147 458 OFFCURVE",
"176 529 OFFCURVE",
"249 529 CURVE SMOOTH",
"330 529 OFFCURVE",
"383 444 OFFCURVE",
"420 360 CURVE",
"411 256 OFFCURVE",
"405 162 OFFCURVE",
"390 54 CURVE SMOOTH",
"385 18 OFFCURVE",
"371 -30 OFFCURVE",
"402 -30 CURVE SMOOTH",
"439 -30 OFFCURVE",
"510 85 OFFCURVE",
"515 165 CURVE SMOOTH",
"527 352 OFFCURVE",
"544 512 OFFCURVE",
"544 512 CURVE",
"598 512 LINE SMOOTH",
"630 512 OFFCURVE",
"636 510 OFFCURVE",
"644 531 CURVE SMOOTH",
"664 584 LINE SMOOTH",
"670 601 OFFCURVE",
"663 606 OFFCURVE",
"641 606 CURVE SMOOTH",
"569 606 LINE SMOOTH",
"510 606 OFFCURVE",
"465 589 OFFCURVE",
"447 535 CURVE",
"439 535 LINE",
"406 570 OFFCURVE",
"347 617 OFFCURVE",
"275 617 CURVE SMOOTH",
"150 617 OFFCURVE",
"43 510 OFFCURVE",
"43 406 CURVE SMOOTH"
);
}
);
width = 600;
},
{
anchors = (
{
name = bottom;
position = "{409, -31}";
},
{
name = top;
position = "{572, 645}";
}
);
hints = (
{
horizontal = 1;
place = "{112, 105}";
type = Stem;
},
{
horizontal = 1;
place = "{345, 81}";
type = Stem;
},
{
horizontal = 1;
place = "{475, 106}";
type = Stem;
},
{
place = "{24, 86}";
type = Stem;
},
{
place = "{208, 115}";
type = Stem;
},
{
place = "{358, 107}";
type = Stem;
},
{
horizontal = 1;
place = "{468, 109}";
type = Stem;
}
);
layerId = "959F729E-ED2F-45C2-951D-81A6BBE10EFE";
paths = (
{
closed = 1;
nodes = (
"27 378 OFFCURVE",
"81 322 OFFCURVE",
"108 322 CURVE SMOOTH",
"135 322 OFFCURVE",
"120 337 OFFCURVE",
"120 345 CURVE SMOOTH",
"120 353 OFFCURVE",
"145 378 OFFCURVE",
"165 378 CURVE SMOOTH",
"186 378 OFFCURVE",
"228 347 OFFCURVE",
"228 324 CURVE SMOOTH",
"228 287 OFFCURVE",
"179 236 OFFCURVE",
"142 236 CURVE SMOOTH",
"129 236 OFFCURVE",
"106 274 OFFCURVE",
"95 274 CURVE SMOOTH",
"88 274 OFFCURVE",
"87 270 OFFCURVE",
"87 265 CURVE SMOOTH",
"87 210 OFFCURVE",
"139 123 OFFCURVE",
"188 123 CURVE SMOOTH",
"263 123 OFFCURVE",
"351 226 OFFCURVE",
"351 317 CURVE SMOOTH",
"351 374 OFFCURVE",
"268 463 OFFCURVE",
"203 463 CURVE SMOOTH",
"183 463 OFFCURVE",
"164 458 OFFCURVE",
"164 458 CURVE",
"164 468 OFFCURVE",
"193 519 OFFCURVE",
"249 519 CURVE SMOOTH",
"326 519 OFFCURVE",
"382 428 OFFCURVE",
"418 342 CURVE",
"411 252 OFFCURVE",
"407 168 OFFCURVE",
"391 53 CURVE SMOOTH",
"386 17 OFFCURVE",
"374 -31 OFFCURVE",
"409 -31 CURVE SMOOTH",
"469 -31 OFFCURVE",
"535 82 OFFCURVE",
"540 164 CURVE SMOOTH",
"552 351 OFFCURVE",
"570 511 OFFCURVE",
"570 511 CURVE",
"618 511 LINE SMOOTH",
"650 511 OFFCURVE",
"660 509 OFFCURVE",
"667 530 CURVE SMOOTH",
"692 606 LINE SMOOTH",
"697 621 OFFCURVE",
"690 628 OFFCURVE",
"670 628 CURVE SMOOTH",
"571 628 LINE SMOOTH",
"499 628 OFFCURVE",
"464 607 OFFCURVE",
"447 552 CURVE",
"442 552 LINE",
"409 592 OFFCURVE",
"349 633 OFFCURVE",
"276 633 CURVE SMOOTH",
"145 633 OFFCURVE",
"27 527 OFFCURVE",
"27 406 CURVE SMOOTH"
);
}
);
width = 618.33333;
}
);
leftKerningGroup = Ga.bn;
note = Ga.bn;
rightKerningGroup = VowelA.bn;
unicode = 0997;
},
{
glyphname = Gha.bn;
lastChange = "2022-01-23 17:37:37 +0000";
layers = (
{
anchors = (
{
name = bottom;
position = "{400, -21}";
},
{
name = top;
position = "{553, 630}";
}
);
background = {
paths = (
{
closed = 1;
nodes = (
"0 630 LINE",
"-13 630 OFFCURVE",
"-24 628 OFFCURVE",
"-29 611 CURVE SMOOTH",
"-54 533 LINE SMOOTH",
"-59 518 OFFCURVE",
"-52.33 511 OFFCURVE",
"-33 511 CURVE SMOOTH",
"615.14 511 LINE",
"647 511 OFFCURVE",
"657 509 OFFCURVE",
"664.14 530 CURVE SMOOTH",
"689.14 608 LINE SMOOTH",
"694 623 OFFCURVE",
"687.33 630 OFFCURVE",
"668 630 CURVE SMOOTH"
);
},
{
closed = 1;
nodes = (
"432.96 516 LINE",
"432.96 516 OFFCURVE",
"410.96 340 OFFCURVE",
"404.08 170 CURVE SMOOTH",
"403.27 149.91 OFFCURVE",
"402.96 112 OFFCURVE",
"402.96 112 CURVE",
"374 112 OFFCURVE",
"266 143 OFFCURVE",
"209 206 CURVE",
"267 231 OFFCURVE",
"350 268 OFFCURVE",
"350 336 CURVE SMOOTH",
"350 357 OFFCURVE",
"343 380 OFFCURVE",
"324 380 CURVE SMOOTH",
"313 380 OFFCURVE",
"298 373 OFFCURVE",
"277 365 CURVE",
"277 365 OFFCURVE",
"210 381 OFFCURVE",
"210 428 CURVE SMOOTH",
"210 481 OFFCURVE",
"312 531 OFFCURVE",
"312 531 CURVE",
"149.8 532.18 LINE",
"105 532 OFFCURVE",
"53 488 OFFCURVE",
"53.41 421.67 CURVE SMOOTH",
"54 361 OFFCURVE",
"136 324 OFFCURVE",
"160 322 CURVE",
"160 322 OFFCURVE",
"126 316 OFFCURVE",
"96 315 CURVE SMOOTH",
"53.01 313.57 OFFCURVE",
"30 311 OFFCURVE",
"19 282 CURVE SMOOTH",
"11 260 OFFCURVE",
"-3 222 OFFCURVE",
"-3 210 CURVE SMOOTH",
"-3 200 OFFCURVE",
"2 193 OFFCURVE",
"18 188 CURVE SMOOTH",
"36 181.68 OFFCURVE",
"53.59 174.89 OFFCURVE",
"71 154 CURVE SMOOTH",
"140 71 OFFCURVE",
"281 -21 OFFCURVE",
"399.96 -21 CURVE SMOOTH",
"466 -21 OFFCURVE",
"537 91 OFFCURVE",
"541.96 174 CURVE SMOOTH",
"551.8 328.14 OFFCURVE",
"572.96 516 OFFCURVE",
"572.96 516 CURVE"
);
},
{
closed = 1;
nodes = (
"0 606 LINE",
"-15 606 OFFCURVE",
"-28 605 OFFCURVE",
"-34 587 CURVE SMOOTH",
"-51 534 LINE SMOOTH",
"-56 519 OFFCURVE",
"-49 512 OFFCURVE",
"-30 512 CURVE SMOOTH",
"600 512 LINE",
"629 512 OFFCURVE",
"642 509 OFFCURVE",
"649 531 CURVE SMOOTH",
"666 584 LINE SMOOTH",
"671 599 OFFCURVE",
"664 606 OFFCURVE",
"645 606 CURVE SMOOTH"
);
},
{
closed = 1;
nodes = (
"432.96 516 LINE",
"432.96 516 OFFCURVE",
"409 305 OFFCURVE",
"401 135 CURVE SMOOTH",
"400 115 OFFCURVE",
"400 77 OFFCURVE",
"400 77 CURVE",
"371 77 OFFCURVE",
"223 139 OFFCURVE",
"186 211 CURVE",
"244 233 OFFCURVE",
"338 278 OFFCURVE",
"338 336 CURVE SMOOTH",
"338 357 OFFCURVE",
"332 368 OFFCURVE",
"323 368 CURVE SMOOTH",
"314 368 OFFCURVE",
"298 359 OFFCURVE",
"277 351 CURVE",
"277 351 OFFCURVE",
"194 370 OFFCURVE",
"194 424 CURVE SMOOTH",
"194 481 OFFCURVE",
"296 531 OFFCURVE",
"296 531 CURVE",
"176 532 LINE",
"131 532 OFFCURVE",
"65 486 OFFCURVE",
"66 426 CURVE SMOOTH",
"67 365 OFFCURVE",
"153 332 OFFCURVE",
"185 326 CURVE",
"185 321 LINE",
"185 321 OFFCURVE",
"144 302 OFFCURVE",
"90 301 CURVE SMOOTH",
"47 300 OFFCURVE",
"44 297 OFFCURVE",
"33 268 CURVE SMOOTH",
"25 246 OFFCURVE",
"19 233 OFFCURVE",
"19 221 CURVE SMOOTH",
"19 211 OFFCURVE",
"24 204 OFFCURVE",
"40 199 CURVE SMOOTH",
"58 193 OFFCURVE",
"70 183 OFFCURVE",
"87 162 CURVE SMOOTH",
"155 78 OFFCURVE",
"294 -21 OFFCURVE",
"399.96 -21 CURVE SMOOTH",
"466 -21 OFFCURVE",
"506 85 OFFCURVE",
"510 161 CURVE SMOOTH",
"520 328 OFFCURVE",
"544 516 OFFCURVE",
"544 516 CURVE"
);
}
);
};
layerId = "EC1E6058-8D86-4671-8808-9A08B2A725FC";
paths = (
{
closed = 1;
nodes = (
"-56 519 OFFCURVE",
"-49 512 OFFCURVE",
"-30 512 CURVE SMOOTH",
"118 512 LINE",
"89 493 OFFCURVE",
"65 462 OFFCURVE",
"66 426 CURVE SMOOTH",
"67 365 OFFCURVE",
"153 332 OFFCURVE",
"185 326 CURVE",
"185 321 LINE",
"185 321 OFFCURVE",
"144 302 OFFCURVE",
"90 301 CURVE SMOOTH",
"47 300 OFFCURVE",
"44 297 OFFCURVE",
"33 268 CURVE SMOOTH",
"25 246 OFFCURVE",
"19 233 OFFCURVE",
"19 221 CURVE SMOOTH",
"19 211 OFFCURVE",
"24 204 OFFCURVE",
"40 199 CURVE SMOOTH",
"58 193 OFFCURVE",
"70 183 OFFCURVE",
"87 162 CURVE SMOOTH",
"155 78 OFFCURVE",
"294 -21 OFFCURVE",
"400 -21 CURVE SMOOTH",
"466 -21 OFFCURVE",
"506 85 OFFCURVE",
"510 161 CURVE SMOOTH",
"519 314 OFFCURVE",
"540 484 OFFCURVE",
"543 512 CURVE",
"600 512 LINE SMOOTH",
"629 512 OFFCURVE",
"642 509 OFFCURVE",
"649 531 CURVE SMOOTH",
"666 584 LINE SMOOTH",
"671 599 OFFCURVE",
"664 606 OFFCURVE",
"645 606 CURVE SMOOTH",
"0 606 LINE SMOOTH",
"-15 606 OFFCURVE",
"-28 605 OFFCURVE",
"-34 587 CURVE SMOOTH",
"-51 534 LINE SMOOTH"
);
},
{
closed = 1;
nodes = (
"244 233 OFFCURVE",
"338 278 OFFCURVE",
"338 336 CURVE SMOOTH",
"338 357 OFFCURVE",
"332 368 OFFCURVE",
"323 368 CURVE SMOOTH",
"314 368 OFFCURVE",
"298 359 OFFCURVE",
"277 351 CURVE",
"277 351 OFFCURVE",
"194 370 OFFCURVE",
"194 424 CURVE SMOOTH",
"194 460 OFFCURVE",
"234 492 OFFCURVE",
"263 512 CURVE",
"433 512 LINE",
"429 482 OFFCURVE",
"408 291 OFFCURVE",
"401 135 CURVE SMOOTH",
"400 115 OFFCURVE",
"400 77 OFFCURVE",
"400 77 CURVE",
"371 77 OFFCURVE",
"223 139 OFFCURVE",
"186 211 CURVE"
);
}
);
width = 600;
},
{
anchors = (
{
name = bottom;
position = "{400, -21}";
},
{
name = top;
position = "{563, 645}";
}
);
hints = (
{
horizontal = 1;
place = "{468, 109}";
type = Stem;
},
{
place = "{49, 144}";
type = Stem;
},
{
horizontal = 1;
place = "{468, 5}";
type = Stem;
}
);
layerId = "959F729E-ED2F-45C2-951D-81A6BBE10EFE";
paths = (
{
closed = 1;
nodes = (
"-59 518 OFFCURVE",
"-52 511 OFFCURVE",
"-33 511 CURVE SMOOTH",
"97 511 LINE",
"73 492 OFFCURVE",
"54 461 OFFCURVE",
"54 422 CURVE SMOOTH",
"55 365 OFFCURVE",
"133 333 OFFCURVE",
"162 327 CURVE",
"162 322 LINE",
"162 322 OFFCURVE",
"128 315 OFFCURVE",
"96 314 CURVE SMOOTH",
"53 313 OFFCURVE",
"31 310 OFFCURVE",
"20 281 CURVE SMOOTH",
"12 259 OFFCURVE",
"-1 223 OFFCURVE",
"-1 211 CURVE SMOOTH",
"-1 201 OFFCURVE",
"4 194 OFFCURVE",
"20 189 CURVE SMOOTH",
"38 183 OFFCURVE",
"55 176 OFFCURVE",
"72 155 CURVE SMOOTH",
"141 72 OFFCURVE",
"282 -21 OFFCURVE",
"400 -21 CURVE SMOOTH",
"466 -21 OFFCURVE",
"534 91 OFFCURVE",
"539 173 CURVE SMOOTH",
"548 313 OFFCURVE",
"567 480 OFFCURVE",
"570 511 CURVE",
"614 511 LINE SMOOTH",
"646 511 OFFCURVE",
"656 509 OFFCURVE",
"663 530 CURVE SMOOTH",
"687 606 LINE SMOOTH",
"692 621 OFFCURVE",
"685 628 OFFCURVE",
"666 628 CURVE SMOOTH",
"0 628 LINE SMOOTH",
"-13 628 OFFCURVE",
"-23 626 OFFCURVE",
"-29 609 CURVE SMOOTH",
"-54 533 LINE SMOOTH"
);
},
{
closed = 1;
nodes = (
"265 231 OFFCURVE",
"349 269 OFFCURVE",
"349 336 CURVE SMOOTH",
"349 357 OFFCURVE",
"342 379 OFFCURVE",
"324 379 CURVE SMOOTH",
"313 379 OFFCURVE",
"298 372 OFFCURVE",
"277 364 CURVE",
"277 364 OFFCURVE",
"209 380 OFFCURVE",
"209 428 CURVE SMOOTH",
"209 460 OFFCURVE",
"247 492 OFFCURVE",
"277 511 CURVE",
"432 511 LINE",
"429 481 OFFCURVE",
"410 320 OFFCURVE",
"404 167 CURVE SMOOTH",
"403 147 OFFCURVE",
"403 109 OFFCURVE",
"403 109 CURVE",
"374 109 OFFCURVE",
"262 143 OFFCURVE",
"207 206 CURVE"
);
}
);
width = 613.75;
}
);
leftKerningGroup = VowelA.bn;
note = Gha.bn;
rightKerningGroup = VowelA.bn;
unicode = 0998;
},
{
glyphname = Nga.bn;
lastChange = "2022-01-23 17:37:41 +0000";
layers = (
{
anchors = (
{
name = bottom;
position = "{211, -18}";
},
{
name = top;
position = "{485, 645}";
}
);
background = {
paths = (
{
closed = 1;
nodes = (
"238 223 OFFCURVE",
"285 185 OFFCURVE",
"300.04 185.1 CURVE SMOOTH",
"320 185 OFFCURVE",
"310 219 OFFCURVE",
"323.5 227.56 CURVE SMOOTH",
"334 234 OFFCURVE",
"364.62 247.96 OFFCURVE",
"379.6 247.96 CURVE SMOOTH",
"399.54 247.96 OFFCURVE",
"419.38 211.24 OFFCURVE",
"419.38 186.76 CURVE SMOOTH",
"419 135 OFFCURVE",
"316 85 OFFCURVE",
"263.21 85.21 CURVE SMOOTH",
"199 85 OFFCURVE",
"162 169 OFFCURVE",
"162.34 262.23 CURVE SMOOTH",
"162.34 322.72 OFFCURVE",
"172.54 345.9 OFFCURVE",
"172.54 386.67 CURVE SMOOTH",
"172.54 393.19 OFFCURVE",
"172.24 401.02 OFFCURVE",
"158.8 401.02 CURVE SMOOTH",
"131 401 OFFCURVE",
"35 301 OFFCURVE",
"35 191 CURVE SMOOTH",
"35 67 OFFCURVE",
"128 -29 OFFCURVE",
"260.98 -29.44 CURVE SMOOTH",
"418 -30 OFFCURVE",
"586 85 OFFCURVE",
"585.64 226.54 CURVE SMOOTH",
"586 278 OFFCURVE",
"540 370 OFFCURVE",
"488.74 370.36 CURVE SMOOTH",
"448.26 370.36 OFFCURVE",
"373.48 346.9 OFFCURVE",
"373.48 346.9 CURVE",
"373.48 346.9 OFFCURVE",
"388 396 OFFCURVE",
"398 422 CURVE SMOOTH",
"423 489 OFFCURVE",
"447 558 OFFCURVE",
"483.64 558.04 CURVE SMOOTH",
"493.51 558.04 OFFCURVE",
"503.02 552.94 OFFCURVE",
"503.02 541.72 CURVE SMOOTH",
"503 509 OFFCURVE",
"462 498 OFFCURVE",
"417.34 497.86 CURVE SMOOTH",
"358 498 OFFCURVE",
"224 523 OFFCURVE",
"224.15 565.05 CURVE SMOOTH",
"224.15 582.69 OFFCURVE",
"237.2 601.05 OFFCURVE",
"237.2 607.17 CURVE SMOOTH",
"237.2 611.31 OFFCURVE",
"235.16 613.29 OFFCURVE",
"230.06 613.29 CURVE SMOOTH",
"202 613 OFFCURVE",
"157 550 OFFCURVE",
"156.9 508.68 CURVE SMOOTH",
"157 425 OFFCURVE",
"309 396 OFFCURVE",
"400.01 395.86 CURVE SMOOTH",
"503 396 OFFCURVE",
"593 454 OFFCURVE",
"592.79 544.78 CURVE SMOOTH",
"593 607 OFFCURVE",
"547 641 OFFCURVE",
"475.49 640.66 CURVE SMOOTH",
"341 641 OFFCURVE",
"238 418 OFFCURVE",
"238 274 CURVE SMOOTH"
);
}
);
};
layerId = "EC1E6058-8D86-4671-8808-9A08B2A725FC";
paths = (
{
closed = 1;
nodes = (
"203 237 OFFCURVE",
"234 199 OFFCURVE",
"249 199 CURVE SMOOTH",
"264 199 OFFCURVE",
"254 235 OFFCURVE",
"268 244 CURVE SMOOTH",
"278 250 OFFCURVE",
"321 268 OFFCURVE",
"340 268 CURVE SMOOTH",
"367 268 OFFCURVE",
"393 216 OFFCURVE",
"393 189 CURVE SMOOTH",
"393 129 OFFCURVE",
"291 68 OFFCURVE",
"213 68 CURVE SMOOTH",
"149 68 OFFCURVE",
"98 126 OFFCURVE",
"98 252 CURVE SMOOTH",
"98 313 OFFCURVE",
"117 352 OFFCURVE",
"117 380 CURVE SMOOTH",
"117 386 OFFCURVE",
"115 394 OFFCURVE",
"107 394 CURVE SMOOTH",
"79 394 OFFCURVE",
"2 301 OFFCURVE",
"2 191 CURVE SMOOTH",
"2 67 OFFCURVE",
"89 -18 OFFCURVE",
"211 -18 CURVE SMOOTH",
"368 -18 OFFCURVE",
"520 85 OFFCURVE",
"520 227 CURVE SMOOTH",
"520 278 OFFCURVE",
"477 356 OFFCURVE",
"436 356 CURVE SMOOTH",
"384 356 OFFCURVE",
"305 326 OFFCURVE",
"305 326 CURVE",
"305 326 OFFCURVE",
"320 396 OFFCURVE",
"330 422 CURVE SMOOTH",
"357 494 OFFCURVE",
"391 566 OFFCURVE",
"434 566 CURVE SMOOTH",
"451 566 OFFCURVE",
"462 555 OFFCURVE",
"462 540 CURVE SMOOTH",
"462 509 OFFCURVE",
"431 484 OFFCURVE",
"367 484 CURVE SMOOTH",
"308 484 OFFCURVE",
"170 511 OFFCURVE",
"170 547 CURVE SMOOTH",
"170 564 OFFCURVE",
"179 586 OFFCURVE",
"179 593 CURVE SMOOTH",
"179 596 OFFCURVE",
"177 598 OFFCURVE",
"174 598 CURVE SMOOTH",
"159 598 OFFCURVE",
"120 550 OFFCURVE",
"120 509 CURVE SMOOTH",
"120 444 OFFCURVE",
"259 410 OFFCURVE",
"350 410 CURVE SMOOTH",
"432 410 OFFCURVE",
"530 454 OFFCURVE",
"530 545 CURVE SMOOTH",
"530 593 OFFCURVE",
"494 627 OFFCURVE",
"428 627 CURVE SMOOTH",
"306 627 OFFCURVE",
"203 418 OFFCURVE",
"203 274 CURVE SMOOTH"
);
}
);
width = 600;
},
{
anchors = (
{
name = bottom;
position = "{257, -28}";
},
{
name = top;
position = "{595, 645}";
}
);
hints = (
{
horizontal = 1;
place = "{-27, 105}";
type = Stem;
},
{
horizontal = 1;
place = "{512, 76}";
type = Stem;
},
{
place = "{32, 117}";
type = Stem;
},
{
place = "{384, 152}";
type = Stem;
},
{
place = "{144, 62}";
type = Stem;
},
{
place = "{461, 82}";
type = Stem;
}
);
layerId = "959F729E-ED2F-45C2-951D-81A6BBE10EFE";
paths = (
{
closed = 1;
nodes = (
"235 224 OFFCURVE",
"281 186 OFFCURVE",
"296 186 CURVE SMOOTH",
"315 186 OFFCURVE",
"305 220 OFFCURVE",
"319 229 CURVE SMOOTH",
"329 235 OFFCURVE",
"361 250 OFFCURVE",
"376 250 CURVE SMOOTH",
"397 250 OFFCURVE",
"417 212 OFFCURVE",
"417 187 CURVE SMOOTH",
"417 135 OFFCURVE",
"314 84 OFFCURVE",
"259 84 CURVE SMOOTH",
"195 84 OFFCURVE",
"157 165 OFFCURVE",
"157 261 CURVE SMOOTH",
"157 322 OFFCURVE",
"168 346 OFFCURVE",
"168 386 CURVE SMOOTH",
"168 393 OFFCURVE",
"167 400 OFFCURVE",
"154 400 CURVE SMOOTH",
"127 400 OFFCURVE",
"32 301 OFFCURVE",
"32 191 CURVE SMOOTH",
"32 67 OFFCURVE",
"125 -28 OFFCURVE",
"257 -28 CURVE SMOOTH",
"414 -29 OFFCURVE",
"581 85 OFFCURVE",
"580 227 CURVE SMOOTH",
"581 278 OFFCURVE",
"535 369 OFFCURVE",
"484 369 CURVE SMOOTH",
"443 369 OFFCURVE",
"368 345 OFFCURVE",
"368 345 CURVE",
"368 345 OFFCURVE",
"382 396 OFFCURVE",
"392 422 CURVE SMOOTH",
"418 489 OFFCURVE",
"442 559 OFFCURVE",
"480 559 CURVE SMOOTH",
"490 559 OFFCURVE",
"500 553 OFFCURVE",
"500 542 CURVE SMOOTH",
"500 509 OFFCURVE",
"459 497 OFFCURVE",
"413 497 CURVE SMOOTH",
"354 497 OFFCURVE",
"220 522 OFFCURVE",
"220 564 CURVE SMOOTH",
"220 581 OFFCURVE",
"232 600 OFFCURVE",
"232 606 CURVE SMOOTH",
"232 610 OFFCURVE",
"230 612 OFFCURVE",
"225 612 CURVE SMOOTH",
"198 612 OFFCURVE",
"154 550 OFFCURVE",
"154 509 CURVE SMOOTH",
"154 427 OFFCURVE",
"305 397 OFFCURVE",
"396 397 CURVE SMOOTH",
"497 397 OFFCURVE",
"588 454 OFFCURVE",
"588 545 CURVE SMOOTH",
"588 606 OFFCURVE",
"543 640 OFFCURVE",
"472 640 CURVE SMOOTH",
"338 640 OFFCURVE",
"235 418 OFFCURVE",
"235 274 CURVE SMOOTH"
);
}
);
width = 687.08333;
}
);
leftKerningGroup = Nga.bn;
note = Nga.bn;
rightKerningGroup = Nga.bn;
unicode = 0999;
},
{
glyphname = Ca.bn;
lastChange = "2022-01-24 13:34:03 +0000";
layers = (
{
anchors = (
{
name = bottom;
position = "{147, -14}";
},
{
name = top;
position = "{371, 630}";
}
);
background = {
paths = (
{
closed = 1;
nodes = (
"0 630 LINE",
"-15 630 OFFCURVE",
"-25 628 OFFCURVE",
"-30 611 CURVE SMOOTH",
"-55 533 LINE SMOOTH",
"-60 518 OFFCURVE",
"-53.33 511 OFFCURVE",
"-34 511 CURVE SMOOTH",
"590.14 511 LINE",
"622 511 OFFCURVE",
"632 509 OFFCURVE",
"639.14 530 CURVE SMOOTH",
"664.14 608 LINE SMOOTH",
"669 623 OFFCURVE",
"662.33 630 OFFCURVE",
"643 630 CURVE SMOOTH"
);
},
{
closed = 1;
nodes = (
"47.44 537.86 LINE",
"47.44 537.86 OFFCURVE",
"37 361 OFFCURVE",
"16 174 CURVE SMOOTH",
"8 106 OFFCURVE",
"80 -21 OFFCURVE",
"148 -21 CURVE SMOOTH",
"260 -21 OFFCURVE",
"461 120 OFFCURVE",
"506 283 CURVE SMOOTH",
"510 297 OFFCURVE",
"516.39 307.05 OFFCURVE",
"527 312 CURVE SMOOTH",
"542 319 OFFCURVE",
"547 328 OFFCURVE",
"547 339 CURVE SMOOTH",
"547 347 OFFCURVE",
"535.33 381.4 OFFCURVE",
"526 406 CURVE SMOOTH",
"515 435 OFFCURVE",
"492.01 441 OFFCURVE",
"449 441 CURVE SMOOTH",
"398 441 OFFCURVE",
"315.23 444.56 OFFCURVE",
"263 448 CURVE SMOOTH",
"172 454 OFFCURVE",
"139 464 OFFCURVE",
"139 464 CURVE",
"140 337 LINE",
"140 337 OFFCURVE",
"190 327 OFFCURVE",
"259 321.27 CURVE SMOOTH",
"316.05 316.53 OFFCURVE",
"374 317 OFFCURVE",
"374 317 CURVE",
"344 203 OFFCURVE",
"219 120 OFFCURVE",
"149 120 CURVE",
"149 120 OFFCURVE",
"152.04 149.97 OFFCURVE",
"153.88 170 CURVE SMOOTH",
"173 377 OFFCURVE",
"185 541 OFFCURVE",
"185 541 CURVE"
);
},
{
closed = 1;
nodes = (
"0 606 LINE",
"-15 606 OFFCURVE",
"-28 609 OFFCURVE",
"-35 587 CURVE SMOOTH",
"-51 534 LINE SMOOTH",
"-56 519 OFFCURVE",
"-49 512 OFFCURVE",
"-30 512 CURVE SMOOTH",
"580 512 LINE",
"609 512 OFFCURVE",
"622 509 OFFCURVE",
"629 531 CURVE SMOOTH",
"646 584 LINE SMOOTH",
"651 599 OFFCURVE",
"644 606 OFFCURVE",
"625 606 CURVE SMOOTH"
);
},
{
closed = 1;
nodes = (
"65 538 LINE",
"65 538 OFFCURVE",
"55 361 OFFCURVE",
"35 182 CURVE SMOOTH",
"24 86 OFFCURVE",
"95 -14 OFFCURVE",
"147 -14 CURVE SMOOTH",
"254 -14 OFFCURVE",
"444 112 OFFCURVE",
"492 283 CURVE SMOOTH",
"496 297 OFFCURVE",
"501 310 OFFCURVE",
"512 315 CURVE SMOOTH",
"527 322 OFFCURVE",
"532 328 OFFCURVE",
"532 339 CURVE SMOOTH",
"532 347 OFFCURVE",
"523 372 OFFCURVE",
"513 397 CURVE SMOOTH",
"501 426 OFFCURVE",
"479 424 OFFCURVE",
"436 424 CURVE SMOOTH",
"385 424 OFFCURVE",
"316 428 OFFCURVE",
"264 431 CURVE SMOOTH",
"173 436 OFFCURVE",
"140 447 OFFCURVE",
"140 447 CURVE",
"140 353 LINE",
"140 353 OFFCURVE",
"196 342 OFFCURVE",
"265 336 CURVE SMOOTH",
"322 331 OFFCURVE",
"395 332 OFFCURVE",
"395 332 CURVE",
"375 180 OFFCURVE",
"231 90 OFFCURVE",
"135 90 CURVE",
"135 90 OFFCURVE",
"138 120 OFFCURVE",
"140 140 CURVE SMOOTH",
"160 336 OFFCURVE",
"172 541 OFFCURVE",
"172 541 CURVE"
);
},
{
closed = 1;
nodes = (
"0 606 LINE",
"-15 606 OFFCURVE",
"-28 609 OFFCURVE",
"-35 587 CURVE SMOOTH",
"-51 534 LINE SMOOTH",
"-56 519 OFFCURVE",
"-49 512 OFFCURVE",
"-30 512 CURVE SMOOTH",
"580 512 LINE",
"609 512 OFFCURVE",
"622 509 OFFCURVE",
"629 531 CURVE SMOOTH",
"646 584 LINE SMOOTH",
"651 599 OFFCURVE",
"644 606 OFFCURVE",
"625 606 CURVE SMOOTH"
);
}
);
};
layerId = "EC1E6058-8D86-4671-8808-9A08B2A725FC";
paths = (
{
closed = 1;
nodes = (
"-56 519 OFFCURVE",
"-49 512 OFFCURVE",
"-30 512 CURVE SMOOTH",
"63 512 LINE",
"60 456 OFFCURVE",
"50 320 OFFCURVE",
"35 182 CURVE SMOOTH",
"24 86 OFFCURVE",
"95 -14 OFFCURVE",
"147 -14 CURVE SMOOTH",
"254 -14 OFFCURVE",
"444 112 OFFCURVE",
"492 283 CURVE SMOOTH",
"496 297 OFFCURVE",
"501 310 OFFCURVE",
"512 315 CURVE SMOOTH",
"527 322 OFFCURVE",
"532 328 OFFCURVE",
"532 339 CURVE SMOOTH",
"532 347 OFFCURVE",
"523 372 OFFCURVE",
"513 397 CURVE SMOOTH",
"501 426 OFFCURVE",
"479 424 OFFCURVE",
"436 424 CURVE SMOOTH",
"385 424 OFFCURVE",
"316 428 OFFCURVE",
"264 431 CURVE SMOOTH",
"217 434 OFFCURVE",
"185 438 OFFCURVE",
"165 441 CURVE",
"170 512 LINE",
"580 512 LINE SMOOTH",
"609 512 OFFCURVE",
"622 509 OFFCURVE",
"629 531 CURVE SMOOTH",
"646 584 LINE SMOOTH",
"651 599 OFFCURVE",
"644 606 OFFCURVE",
"625 606 CURVE SMOOTH",
"0 606 LINE SMOOTH",
"-15 606 OFFCURVE",
"-28 609 OFFCURVE",
"-35 587 CURVE SMOOTH",
"-51 534 LINE SMOOTH"
);
},
{
closed = 1;
nodes = (
"145 185 OFFCURVE",
"151 258 OFFCURVE",
"159 350 CURVE",
"181 346 OFFCURVE",
"220 340 OFFCURVE",
"265 336 CURVE SMOOTH",
"322 331 OFFCURVE",
"395 332 OFFCURVE",
"395 332 CURVE",
"375 180 OFFCURVE",
"231 90 OFFCURVE",
"135 90 CURVE"
);
}
);
width = 580;
},
{
anchors = (
{
name = bottom;
position = "{148, -20}";
},
{
name = top;
position = "{425, 645}";
}
);
hints = (
{
horizontal = 1;
place = "{468, 109}";
type = Stem;
}
);
layerId = "959F729E-ED2F-45C2-951D-81A6BBE10EFE";
paths = (
{
closed = 1;
nodes = (
"-60 518 OFFCURVE",
"-53 511 OFFCURVE",
"-34 511 CURVE SMOOTH",
"47 511 LINE",
"44 455 OFFCURVE",
"34 317 OFFCURVE",
"18 175 CURVE SMOOTH",
"9 104 OFFCURVE",
"81 -20 OFFCURVE",
"148 -20 CURVE SMOOTH",
"260 -20 OFFCURVE",
"460 119 OFFCURVE",
"505 283 CURVE SMOOTH",
"509 297 OFFCURVE",
"515 307 OFFCURVE",
"526 312 CURVE SMOOTH",
"541 319 OFFCURVE",
"546 328 OFFCURVE",
"546 339 CURVE SMOOTH",
"546 347 OFFCURVE",
"534 380 OFFCURVE",
"525 405 CURVE SMOOTH",
"514 434 OFFCURVE",
"491 440 OFFCURVE",
"448 440 CURVE SMOOTH",
"397 440 OFFCURVE",
"315 444 OFFCURVE",
"263 447 CURVE SMOOTH",
"225 449 OFFCURVE",
"197 453 OFFCURVE",
"177 455 CURVE",
"182 511 LINE",
"589 511 LINE SMOOTH",
"621 511 OFFCURVE",
"631 509 OFFCURVE",
"638 530 CURVE SMOOTH",
"663 606 LINE SMOOTH",
"668 621 OFFCURVE",
"661 628 OFFCURVE",
"642 628 CURVE SMOOTH",
"0 628 LINE SMOOTH",
"-15 628 OFFCURVE",
"-24 626 OFFCURVE",
"-30 609 CURVE SMOOTH",
"-55 533 LINE SMOOTH"
);
},
{
closed = 1;
nodes = (
"151 141 OFFCURVE",
"159 242 OFFCURVE",
"167 334 CURVE",
"189 330 OFFCURVE",
"221 325 OFFCURVE",
"260 322 CURVE SMOOTH",
"317 318 OFFCURVE",
"376 318 OFFCURVE",
"376 318 CURVE",
"347 201 OFFCURVE",
"220 118 OFFCURVE",
"148 118 CURVE"
);
}
);
width = 589.16667;
}
);
leftKerningGroup = VowelA.bn;
note = Ca.bn;
rightKerningGroup = VowelA.bn;
unicode = 099A;
},
{
glyphname = Cha.bn;
lastChange = "2022-01-23 17:38:46 +0000";
layers = (
{
anchors = (
{
name = bottom;
position = "{181, -97}";
},
{
name = top;
position = "{371, 630}";
}
);
background = {
paths = (
{
closed = 1;
nodes = (
"0 630 LINE",
"-15 630 OFFCURVE",
"-25 628 OFFCURVE",
"-30 611 CURVE SMOOTH",
"-55 533 LINE SMOOTH",
"-60.33 518.33 OFFCURVE",
"-53.33 511 OFFCURVE",
"-34 511 CURVE SMOOTH",
"650.14 511 LINE",
"682 511 OFFCURVE",
"692 509 OFFCURVE",
"699.14 530 CURVE SMOOTH",
"724.14 608 LINE SMOOTH",
"729.38 622.67 OFFCURVE",
"722.33 630 OFFCURVE",
"703 630 CURVE SMOOTH"
);
},
{
closed = 1;
nodes = (
"426 312 OFFCURVE",
"446 291 OFFCURVE",
"446 271 CURVE SMOOTH",
"446 217 OFFCURVE",
"267 102 OFFCURVE",
"210 102 CURVE SMOOTH",
"169 102 OFFCURVE",
"126 143 OFFCURVE",
"102 143 CURVE SMOOTH",
"81 143 OFFCURVE",
"56 62 OFFCURVE",
"56 32 CURVE SMOOTH",
"56 2 OFFCURVE",
"97 10 OFFCURVE",
"119 -17 CURVE SMOOTH",
"191 -105 OFFCURVE",
"327 -183 OFFCURVE",
"398 -183 CURVE SMOOTH",
"441 -183 OFFCURVE",
"505 -90 OFFCURVE",
"505 -42 CURVE SMOOTH",
"505 -33 OFFCURVE",
"496 33 OFFCURVE",
"480 33 CURVE SMOOTH",
"470 33 OFFCURVE",
"448 -42 OFFCURVE",
"422 -42 CURVE SMOOTH",
"389 -42 OFFCURVE",
"331 -16 OFFCURVE",
"301 2 CURVE",
"400 38 OFFCURVE",
"584 132 OFFCURVE",
"584 260 CURVE SMOOTH",
"584 343 OFFCURVE",
"484 472 OFFCURVE",
"387 472 CURVE SMOOTH",
"327 472 OFFCURVE",
"215 467 OFFCURVE",
"148 480 CURVE",
"157 367 LINE",
"214 358 OFFCURVE",
"280 361 OFFCURVE",
"319 363 CURVE",
"306 325 OFFCURVE",
"248 276 OFFCURVE",
"194 276 CURVE",
"194 276 OFFCURVE",
"195 297 OFFCURVE",
"198 317 CURVE SMOOTH",
"210 394 OFFCURVE",
"216 529 OFFCURVE",
"216 529 CURVE",
"78 526 LINE",
"78 526 OFFCURVE",
"75 451 OFFCURVE",
"61 329 CURVE SMOOTH",
"52 252 OFFCURVE",
"131 142 OFFCURVE",
"198 142 CURVE SMOOTH",
"269 142 OFFCURVE",
"403 231 OFFCURVE",
"426 312 CURVE SMOOTH"
);
},
{
closed = 1;
nodes = (
"0 606 LINE",
"-15 606 OFFCURVE",
"-28 609 OFFCURVE",
"-35 587 CURVE SMOOTH",
"-51 534 LINE SMOOTH",
"-56 519 OFFCURVE",
"-49 512 OFFCURVE",
"-30 512 CURVE SMOOTH",
"640 512 LINE",
"669 512 OFFCURVE",
"682 509 OFFCURVE",
"689 531 CURVE SMOOTH",
"706 584 LINE SMOOTH",
"711 599 OFFCURVE",
"704 606 OFFCURVE",
"685 606 CURVE SMOOTH"
);
},
{
closed = 1;
nodes = (
"423 337 OFFCURVE",
"462 309 OFFCURVE",
"462 268 CURVE SMOOTH",
"462 213 OFFCURVE",
"285 89 OFFCURVE",
"210 89 CURVE SMOOTH",
"169 89 OFFCURVE",
"126 125 OFFCURVE",
"108 125 CURVE SMOOTH",
"94 125 OFFCURVE",
"74 64 OFFCURVE",
"74 42 CURVE SMOOTH",
"74 19 OFFCURVE",
"98 31 OFFCURVE",
"120 4 CURVE SMOOTH",
"192 -84 OFFCURVE",
"342 -168 OFFCURVE",
"398 -168 CURVE SMOOTH",
"424 -168 OFFCURVE",
"489 -90 OFFCURVE",
"489 -42 CURVE SMOOTH",
"489 -33 OFFCURVE",
"486 10 OFFCURVE",
"475 10 CURVE SMOOTH",
"465 10 OFFCURVE",
"442 -57 OFFCURVE",
"416 -57 CURVE SMOOTH",
"373 -57 OFFCURVE",
"301 -15 OFFCURVE",
"271 5 CURVE",
"370 41 OFFCURVE",
"572 132 OFFCURVE",
"572 260 CURVE SMOOTH",
"572 343 OFFCURVE",
"465 460 OFFCURVE",
"388 460 CURVE SMOOTH",
"328 460 OFFCURVE",
"216 455 OFFCURVE",
"149 468 CURVE",
"157 382 LINE",
"214 373 OFFCURVE",
"310 377 OFFCURVE",
"349 379 CURVE",
"336 341 OFFCURVE",
"284 256 OFFCURVE",
"176 256 CURVE",
"176 256 OFFCURVE",
"179 277 OFFCURVE",
"181 297 CURVE SMOOTH",
"189 372 OFFCURVE",
"200 529 OFFCURVE",
"200 529 CURVE",
"97 526 LINE",
"97 526 OFFCURVE",
"92 451 OFFCURVE",
"80 329 CURVE SMOOTH",
"72 245 OFFCURVE",
"152 160 OFFCURVE",
"198 160 CURVE SMOOTH",
"278 160 OFFCURVE",
"400 256 OFFCURVE",
"423 337 CURVE SMOOTH"
);
}
);
};
layerId = "EC1E6058-8D86-4671-8808-9A08B2A725FC";
paths = (
{
closed = 1;
nodes = (
"-56 519 OFFCURVE",
"-49 512 OFFCURVE",
"-30 512 CURVE SMOOTH",
"96 512 LINE",
"94 485 OFFCURVE",
"89 420 OFFCURVE",
"80 329 CURVE SMOOTH",
"72 245 OFFCURVE",
"152 160 OFFCURVE",
"198 160 CURVE SMOOTH",
"278 160 OFFCURVE",
"400 256 OFFCURVE",
"423 337 CURVE",
"423 337 OFFCURVE",
"462 309 OFFCURVE",
"462 268 CURVE SMOOTH",
"462 213 OFFCURVE",
"285 89 OFFCURVE",
"210 89 CURVE SMOOTH",
"169 89 OFFCURVE",
"126 125 OFFCURVE",
"108 125 CURVE SMOOTH",
"94 125 OFFCURVE",
"74 64 OFFCURVE",
"74 42 CURVE SMOOTH",
"74 19 OFFCURVE",
"98 31 OFFCURVE",
"120 4 CURVE SMOOTH",
"192 -84 OFFCURVE",
"342 -168 OFFCURVE",
"398 -168 CURVE SMOOTH",
"424 -168 OFFCURVE",
"489 -90 OFFCURVE",
"489 -42 CURVE SMOOTH",
"489 -33 OFFCURVE",
"486 10 OFFCURVE",
"475 10 CURVE SMOOTH",
"465 10 OFFCURVE",
"442 -57 OFFCURVE",
"416 -57 CURVE SMOOTH",
"373 -57 OFFCURVE",
"301 -15 OFFCURVE",
"271 5 CURVE",
"370 41 OFFCURVE",
"572 132 OFFCURVE",
"572 260 CURVE SMOOTH",
"572 343 OFFCURVE",
"465 460 OFFCURVE",
"388 460 CURVE SMOOTH",
"340 460 OFFCURVE",
"260 457 OFFCURVE",
"195 462 CURVE",
"199 512 LINE",
"640 512 LINE SMOOTH",
"669 512 OFFCURVE",
"682 509 OFFCURVE",
"689 531 CURVE SMOOTH",
"706 584 LINE SMOOTH",
"711 599 OFFCURVE",
"704 606 OFFCURVE",
"685 606 CURVE SMOOTH",
"0 606 LINE SMOOTH",
"-15 606 OFFCURVE",
"-28 609 OFFCURVE",
"-35 587 CURVE SMOOTH",
"-51 534 LINE SMOOTH"
);
},
{
closed = 1;
nodes = (
"181 296 OFFCURVE",
"186 343 OFFCURVE",
"188 378 CURVE",
"245 374 OFFCURVE",
"317 377 OFFCURVE",
"349 379 CURVE",
"336 341 OFFCURVE",
"284 256 OFFCURVE",
"176 256 CURVE"
);
}
);
width = 640;
},
{
anchors = (
{
name = bottom;
position = "{193, -129}";
},
{
name = top;
position = "{454, 646}";
}
);
hints = (
{
horizontal = 1;
place = "{-168, 129}";
type = Stem;
},
{
horizontal = 1;
place = "{331, 100}";
type = Stem;
},
{
horizontal = 1;
place = "{468, 109}";
type = Stem;
},
{
place = "{409, 127}";
type = Stem;
}
);
layerId = "959F729E-ED2F-45C2-951D-81A6BBE10EFE";
paths = (
{
closed = 1;
nodes = (
"-60 518 OFFCURVE",
"-53 511 OFFCURVE",
"-34 511 CURVE SMOOTH",
"79 511 LINE",
"78 483 OFFCURVE",
"73 419 OFFCURVE",
"63 329 CURVE SMOOTH",
"54 251 OFFCURVE",
"133 144 OFFCURVE",
"198 144 CURVE SMOOTH",
"270 144 OFFCURVE",
"403 233 OFFCURVE",
"426 314 CURVE",
"426 314 OFFCURVE",
"447 293 OFFCURVE",
"447 271 CURVE SMOOTH",
"447 217 OFFCURVE",
"269 101 OFFCURVE",
"210 101 CURVE SMOOTH",
"169 101 OFFCURVE",
"126 142 OFFCURVE",
"103 142 CURVE SMOOTH",
"82 142 OFFCURVE",
"58 62 OFFCURVE",
"58 33 CURVE SMOOTH",
"58 3 OFFCURVE",
"97 12 OFFCURVE",
"119 -15 CURVE SMOOTH",
"191 -103 OFFCURVE",
"328 -182 OFFCURVE",
"398 -182 CURVE SMOOTH",
"440 -182 OFFCURVE",
"504 -90 OFFCURVE",
"504 -42 CURVE SMOOTH",
"504 -33 OFFCURVE",
"495 31 OFFCURVE",
"480 31 CURVE SMOOTH",
"470 31 OFFCURVE",
"448 -43 OFFCURVE",
"422 -43 CURVE SMOOTH",
"388 -43 OFFCURVE",
"329 -16 OFFCURVE",
"299 2 CURVE",
"398 38 OFFCURVE",
"583 132 OFFCURVE",
"583 260 CURVE SMOOTH",
"583 343 OFFCURVE",
"482 471 OFFCURVE",
"387 471 CURVE SMOOTH",
"344 471 OFFCURVE",
"273 468 OFFCURVE",
"212 472 CURVE",
"214 511 LINE",
"649 511 LINE SMOOTH",
"681 511 OFFCURVE",
"691 509 OFFCURVE",
"698 530 CURVE SMOOTH",
"723 606 LINE SMOOTH",
"728 621 OFFCURVE",
"721 628 OFFCURVE",
"702 628 CURVE SMOOTH",
"0 628 LINE SMOOTH",
"-15 628 OFFCURVE",
"-24 626 OFFCURVE",
"-30 609 CURVE SMOOTH",
"-55 533 LINE SMOOTH"
);
},
{
closed = 1;
nodes = (
"196 306 OFFCURVE",
"199 332 OFFCURVE",
"203 363 CURVE",
"247 361 OFFCURVE",
"292 363 OFFCURVE",
"322 364 CURVE",
"309 326 OFFCURVE",
"251 274 OFFCURVE",
"193 274 CURVE"
);
}
);
width = 649.16667;
}
);
leftKerningGroup = VowelA.bn;
note = Cha.bn;
rightKerningGroup = VowelA.bn;
unicode = 099B;
},
{
glyphname = Ja.bn;
lastChange = "2022-01-23 17:38:33 +0000";
layers = (
{
anchors = (
{
name = bottom;
position = "{247, -9}";
},
{
name = top;
position = "{501, 630}";
}
);
background = {
paths = (
{
closed = 1;
nodes = (
"0 630 LINE",
"-15 630 OFFCURVE",
"-26 628 OFFCURVE",
"-31 611 CURVE SMOOTH",
"-56 533 LINE SMOOTH",
"-61.33 518.33 OFFCURVE",
"-54.33 511 OFFCURVE",
"-35 511 CURVE SMOOTH",
"780.14 511 LINE",
"812 511 OFFCURVE",
"822 509 OFFCURVE",
"829.14 530 CURVE SMOOTH",
"854.14 608 LINE SMOOTH",
"859.38 622.67 OFFCURVE",
"852.33 630 OFFCURVE",
"833 630 CURVE SMOOTH"
);
},
{
closed = 1;
nodes = (
"649 24 OFFCURVE",
"649 75 CURVE SMOOTH",
"649 198 OFFCURVE",
"732 269 OFFCURVE",
"732 290 CURVE SMOOTH",
"732 316 OFFCURVE",
"679 409 OFFCURVE",
"646 415 CURVE SMOOTH",
"513 439 OFFCURVE",
"453 465 OFFCURVE",
"378 495 CURVE",
"338 405 LINE",
"383 372 OFFCURVE",
"487 326 OFFCURVE",
"595 290 CURVE",
"544 207 OFFCURVE",
"513 127 OFFCURVE",
"513 17 CURVE SMOOTH",
"513 -37 OFFCURVE",
"579 -59 OFFCURVE",
"641 -59 CURVE SMOOTH",
"669 -59 OFFCURVE",
"700 -52 OFFCURVE",
"699.67 -41.68 CURVE SMOOTH",
"699.67 -34.99 OFFCURVE",
"695.2 -33.94 OFFCURVE",
"681 -26.99 CURVE SMOOTH",
"654 -14 OFFCURVE"
);
},
{
closed = 1;
nodes = (
"317 575.01 LINE",
"250.32 490.14 OFFCURVE",
"196 353.2 OFFCURVE",
"196 231.01 CURVE SMOOTH",
"196 202 OFFCURVE",
"227 162 OFFCURVE",
"250.99 161.22 CURVE SMOOTH",
"265 161 OFFCURVE",
"263 191 OFFCURVE",
"274 198.01 CURVE SMOOTH",
"287 207 OFFCURVE",
"308 211 OFFCURVE",
"324 211 CURVE SMOOTH",
"343 211 OFFCURVE",
"354 177 OFFCURVE",
"354 157 CURVE SMOOTH",
"354 118 OFFCURVE",
"292 83 OFFCURVE",
"248 83.01 CURVE SMOOTH",
"185 83 OFFCURVE",
"143 190 OFFCURVE",
"143.21 284.85 CURVE SMOOTH",
"143 367 OFFCURVE",
"162 412 OFFCURVE",
"161.76 457.4 CURVE SMOOTH",
"161.76 463.99 OFFCURVE",
"161 472 OFFCURVE",
"148.16 471.89 CURVE SMOOTH",
"111 472 OFFCURVE",
"1 348 OFFCURVE",
"1 218 CURVE SMOOTH",
"1 84 OFFCURVE",
"99 -32 OFFCURVE",
"243 -32 CURVE SMOOTH",
"379 -32 OFFCURVE",
"500 65 OFFCURVE",
"500.08 193.83 CURVE SMOOTH",
"500 245 OFFCURVE",
"459 323 OFFCURVE",
"404.18 322.65 CURVE SMOOTH",
"372.44 322.65 OFFCURVE",
"322.18 301.65 OFFCURVE",
"322.18 301.65 CURVE",
"322.18 356.01 OFFCURVE",
"369 475.01 OFFCURVE",
"405.18 523.65 CURVE"
);
},
{
closed = 1;
nodes = (
"0 606 LINE",
"-15 606 OFFCURVE",
"-28 609 OFFCURVE",
"-35 587 CURVE SMOOTH",
"-51 534 LINE SMOOTH",
"-56 519 OFFCURVE",
"-49 512 OFFCURVE",
"-30 512 CURVE SMOOTH",
"770 512 LINE",
"799 512 OFFCURVE",
"812 509 OFFCURVE",
"819 531 CURVE SMOOTH",
"836 584 LINE SMOOTH",
"841 599 OFFCURVE",
"834 606 OFFCURVE",
"815 606 CURVE SMOOTH"
);
},
{
closed = 1;
nodes = (
"641 -15 OFFCURVE",
"639 24 OFFCURVE",
"639 75 CURVE SMOOTH",
"639 198 OFFCURVE",
"718 269 OFFCURVE",
"718 290 CURVE SMOOTH",
"718 313 OFFCURVE",
"669 400 OFFCURVE",
"641 405 CURVE SMOOTH",
"513 429 OFFCURVE",
"437 458 OFFCURVE",
"362 491 CURVE",
"325 424 LINE",
"370 391 OFFCURVE",
"493 333 OFFCURVE",
"611 297 CURVE",
"560 214 OFFCURVE",
"523 127 OFFCURVE",
"523 17 CURVE SMOOTH",
"523 -25 OFFCURVE",
"579 -54 OFFCURVE",
"641 -54 CURVE SMOOTH",
"669 -54 OFFCURVE",
"691 -49 OFFCURVE",
"691 -43 CURVE SMOOTH",
"691 -38 OFFCURVE",
"684 -36 OFFCURVE",
"670 -29 CURVE SMOOTH"
);
},
{
closed = 1;
nodes = (
"329 567 LINE",
"262 482 OFFCURVE",
"209 357 OFFCURVE",
"209 235 CURVE SMOOTH",
"209 206 OFFCURVE",
"234 170 OFFCURVE",
"251 170 CURVE SMOOTH",
"265 170 OFFCURVE",
"260 205 OFFCURVE",
"271 212 CURVE SMOOTH",
"284 220 OFFCURVE",
"315 225 OFFCURVE",
"331 225 CURVE SMOOTH",
"350 225 OFFCURVE",
"370 183 OFFCURVE",
"370 157 CURVE SMOOTH",
"370 118 OFFCURVE",
"314 67 OFFCURVE",
"248 67 CURVE SMOOTH",
"164 67 OFFCURVE",
"129 190 OFFCURVE",
"129 285 CURVE SMOOTH",
"129 367 OFFCURVE",
"157 415 OFFCURVE",
"157 450 CURVE SMOOTH",
"157 457 OFFCURVE",
"155 465 OFFCURVE",
"146 465 CURVE SMOOTH",
"116 465 OFFCURVE",
"17 348 OFFCURVE",
"17 218 CURVE SMOOTH",
"17 84 OFFCURVE",
"124 -18 OFFCURVE",
"243 -18 CURVE SMOOTH",
"365 -18 OFFCURVE",
"487 70 OFFCURVE",
"487 194 CURVE SMOOTH",
"487 245 OFFCURVE",
"441 313 OFFCURVE",
"404 313 CURVE SMOOTH",
"361 313 OFFCURVE",
"306 286 OFFCURVE",
"306 286 CURVE",
"306 340 OFFCURVE",
"358 481 OFFCURVE",
"394 530 CURVE"
);
}
);
};
layerId = "EC1E6058-8D86-4671-8808-9A08B2A725FC";
paths = (
{
closed = 1;
nodes = (
"-56 519 OFFCURVE",
"-49 512 OFFCURVE",
"-30 512 CURVE SMOOTH",
"291 512 LINE",
"243 433 OFFCURVE",
"209 333 OFFCURVE",
"209 235 CURVE SMOOTH",
"209 206 OFFCURVE",
"234 170 OFFCURVE",
"251 170 CURVE SMOOTH",
"265 170 OFFCURVE",
"260 205 OFFCURVE",
"271 212 CURVE SMOOTH",
"284 220 OFFCURVE",
"315 225 OFFCURVE",
"331 225 CURVE SMOOTH",
"350 225 OFFCURVE",
"370 183 OFFCURVE",
"370 157 CURVE SMOOTH",
"370 118 OFFCURVE",
"314 67 OFFCURVE",
"248 67 CURVE SMOOTH",
"164 67 OFFCURVE",
"129 190 OFFCURVE",
"129 285 CURVE SMOOTH",
"129 367 OFFCURVE",
"157 415 OFFCURVE",
"157 450 CURVE SMOOTH",
"157 457 OFFCURVE",
"155 465 OFFCURVE",
"146 465 CURVE SMOOTH",
"116 465 OFFCURVE",
"17 348 OFFCURVE",
"17 218 CURVE SMOOTH",
"17 84 OFFCURVE",
"124 -18 OFFCURVE",
"243 -18 CURVE SMOOTH",
"365 -18 OFFCURVE",
"487 70 OFFCURVE",
"487 194 CURVE SMOOTH",
"487 245 OFFCURVE",
"441 313 OFFCURVE",
"404 313 CURVE SMOOTH",
"361 313 OFFCURVE",
"306 286 OFFCURVE",
"306 286 CURVE",
"306 314 OFFCURVE",
"320 365 OFFCURVE",
"338 415 CURVE",
"391 381 OFFCURVE",
"503 330 OFFCURVE",
"611 297 CURVE",
"560 214 OFFCURVE",
"523 127 OFFCURVE",
"523 17 CURVE SMOOTH",
"523 -25 OFFCURVE",
"579 -54 OFFCURVE",
"641 -54 CURVE SMOOTH",
"669 -54 OFFCURVE",
"691 -49 OFFCURVE",
"691 -43 CURVE SMOOTH",
"691 -38 OFFCURVE",
"684 -36 OFFCURVE",
"670 -29 CURVE SMOOTH",
"641 -15 OFFCURVE",
"639 24 OFFCURVE",
"639 75 CURVE SMOOTH",
"639 198 OFFCURVE",
"718 269 OFFCURVE",
"718 290 CURVE SMOOTH",
"718 313 OFFCURVE",
"669 400 OFFCURVE",
"641 405 CURVE SMOOTH",
"517 428 OFFCURVE",
"442 456 OFFCURVE",
"369 488 CURVE",
"382 512 LINE",
"770 512 LINE SMOOTH",
"799 512 OFFCURVE",
"812 509 OFFCURVE",
"819 531 CURVE SMOOTH",
"836 584 LINE SMOOTH",
"841 599 OFFCURVE",
"834 606 OFFCURVE",
"815 606 CURVE SMOOTH",
"0 606 LINE SMOOTH",
"-15 606 OFFCURVE",
"-28 609 OFFCURVE",
"-35 587 CURVE SMOOTH",
"-51 534 LINE SMOOTH"
);
}
);
width = 770;
},
{
anchors = (
{
name = bottom;
position = "{243, -31}";
},
{
name = top;
position = "{484, 646}";
}
);
hints = (
{
horizontal = 1;
place = "{-30, 106}";
type = Stem;
},
{
horizontal = 1;
place = "{454, -20}";
target = down;
type = TopGhost;
},
{
horizontal = 1;
place = "{468, 109}";
type = Stem;
},
{
place = "{1, 130}";
type = Stem;
},
{
place = "{180, 116}";
type = Stem;
}
);
layerId = "959F729E-ED2F-45C2-951D-81A6BBE10EFE";
paths = (
{
closed = 1;
nodes = (
"-61 518 OFFCURVE",
"-54 511 OFFCURVE",
"-35 511 CURVE SMOOTH",
"276 511 LINE",
"230 430 OFFCURVE",
"197 327 OFFCURVE",
"197 231 CURVE SMOOTH",
"197 202 OFFCURVE",
"228 163 OFFCURVE",
"251 162 CURVE SMOOTH",
"265 162 OFFCURVE",
"263 192 OFFCURVE",
"274 199 CURVE SMOOTH",
"287 208 OFFCURVE",
"309 212 OFFCURVE",
"325 212 CURVE SMOOTH",
"344 212 OFFCURVE",
"355 178 OFFCURVE",
"355 157 CURVE SMOOTH",
"355 118 OFFCURVE",
"294 82 OFFCURVE",
"248 82 CURVE SMOOTH",
"183 82 OFFCURVE",
"142 190 OFFCURVE",
"142 285 CURVE SMOOTH",
"142 367 OFFCURVE",
"162 412 OFFCURVE",
"162 456 CURVE SMOOTH",
"162 463 OFFCURVE",
"161 471 OFFCURVE",
"148 471 CURVE SMOOTH",
"111 471 OFFCURVE",
"2 348 OFFCURVE",
"2 218 CURVE SMOOTH",
"2 84 OFFCURVE",
"101 -31 OFFCURVE",
"243 -31 CURVE SMOOTH",
"378 -31 OFFCURVE",
"499 65 OFFCURVE",
"499 194 CURVE SMOOTH",
"499 245 OFFCURVE",
"458 322 OFFCURVE",
"404 322 CURVE SMOOTH",
"371 322 OFFCURVE",
"321 301 OFFCURVE",
"321 301 CURVE",
"321 325 OFFCURVE",
"330 363 OFFCURVE",
"344 401 CURVE",
"393 369 OFFCURVE",
"493 325 OFFCURVE",
"596 291 CURVE",
"545 208 OFFCURVE",
"514 127 OFFCURVE",
"514 17 CURVE SMOOTH",
"514 -36 OFFCURVE",
"579 -59 OFFCURVE",
"641 -59 CURVE SMOOTH",
"669 -59 OFFCURVE",
"699 -52 OFFCURVE",
"699 -42 CURVE SMOOTH",
"699 -35 OFFCURVE",
"694 -34 OFFCURVE",
"680 -27 CURVE SMOOTH",
"653 -14 OFFCURVE",
"648 24 OFFCURVE",
"648 75 CURVE SMOOTH",
"648 198 OFFCURVE",
"731 269 OFFCURVE",
"731 290 CURVE SMOOTH",
"731 316 OFFCURVE",
"678 408 OFFCURVE",
"646 414 CURVE SMOOTH",
"517 437 OFFCURVE",
"456 462 OFFCURVE",
"384 492 CURVE",
"396 511 LINE",
"779 511 LINE SMOOTH",
"811 511 OFFCURVE",
"821 509 OFFCURVE",
"828 530 CURVE SMOOTH",
"853 606 LINE SMOOTH",
"858 621 OFFCURVE",
"851 628 OFFCURVE",
"832 628 CURVE SMOOTH",
"0 628 LINE SMOOTH",
"-15 628 OFFCURVE",
"-25 626 OFFCURVE",
"-31 609 CURVE SMOOTH",
"-56 533 LINE SMOOTH"
);
}
);
width = 779.16667;
}
);
leftKerningGroup = VowelA.bn;
note = Ja.bn;
rightKerningGroup = VowelA.bn;
unicode = 099C;
},
{
glyphname = Jha.bn;
lastChange = "2022-01-23 17:38:27 +0000";
layers = (
{
anchors = (
{
name = bottom;
position = "{417, -21}";
},
{
name = top;
position = "{521, 630}";
}
);
background = {
paths = (
{
closed = 1;
nodes = (
"0 630 LINE",
"-15 630 OFFCURVE",
"-26 628 OFFCURVE",
"-31 611 CURVE SMOOTH",
"-56 533 LINE SMOOTH",
"-61 518 OFFCURVE",
"-54.33 511 OFFCURVE",
"-35 511 CURVE SMOOTH",
"497.14 511 LINE",
"529 511 OFFCURVE",
"539 509 OFFCURVE",
"546.14 530 CURVE SMOOTH",
"571.14 608 LINE SMOOTH",
"576 623 OFFCURVE",
"569.33 630 OFFCURVE",
"550 630 CURVE SMOOTH"
);
},
{
closed = 1;
nodes = (
"457 630 LINE",
"457 630 OFFCURVE",
"421 340 OFFCURVE",
"414.12 170 CURVE SMOOTH",
"413.31 149.91 OFFCURVE",
"414 124 OFFCURVE",
"414 124 CURVE",
"342 142 OFFCURVE",
"244 227 OFFCURVE",
"210 319 CURVE",
"310 314 OFFCURVE",
"414 313 OFFCURVE",
"473.14 319 CURVE",
"489 443 LINE",
"489 443 OFFCURVE",
"450 439 OFFCURVE",
"302 439 CURVE SMOOTH",
"226 439 OFFCURVE",
"179 442 OFFCURVE",
"122 442 CURVE SMOOTH",
"78.99 442 OFFCURVE",
"56 438 OFFCURVE",
"45 409 CURVE SMOOTH",
"37 387 OFFCURVE",
"23 349 OFFCURVE",
"23 337 CURVE SMOOTH",
"23 328 OFFCURVE",
"29 321 OFFCURVE",
"44 315 CURVE SMOOTH",
"68 306 OFFCURVE",
"83 300 OFFCURVE",
"88 286 CURVE SMOOTH",
"131 157 OFFCURVE",
"306 -21 OFFCURVE",
"420 -21 CURVE SMOOTH",
"477 -21 OFFCURVE",
"547 95 OFFCURVE",
"552 174 CURVE SMOOTH",
"561.84 328.14 OFFCURVE",
"592 608 OFFCURVE",
"592 608 CURVE",
"594 625 OFFCURVE",
"584.19 630 OFFCURVE",
"564.86 630 CURVE SMOOTH"
);
},
{
closed = 1;
nodes = (
"855 511 LINE",
"887 511 OFFCURVE",
"897 509 OFFCURVE",
"904 530 CURVE SMOOTH",
"929 608 LINE SMOOTH",
"938 636 OFFCURVE",
"917 630 OFFCURVE",
"802 630 CURVE SMOOTH",
"725 630 OFFCURVE",
"678 587 OFFCURVE",
"667 511 CURVE SMOOTH",
"642 328 OFFCURVE",
"648 247 OFFCURVE",
"626 83 CURVE SMOOTH",
"621.18 46.82 OFFCURVE",
"608.71 -1 OFFCURVE",
"645 -1 CURVE SMOOTH",
"708 -1 OFFCURVE",
"772 114 OFFCURVE",
"777 194 CURVE SMOOTH",
"788.93 380.94 OFFCURVE",
"807 511 OFFCURVE",
"807 511 CURVE"
);
},
{
closed = 1;
nodes = (
"552 209 LINE",
"583 188 OFFCURVE",
"619 146 OFFCURVE",
"630 102 CURVE",
"648 102 LINE",
"648 273 LINE",
"638 273 LINE",
"584 326 OFFCURVE",
"537 340 OFFCURVE",
"537 340 CURVE"
);
},
{
closed = 1;
nodes = (
"0 606 LINE",
"-17 606 OFFCURVE",
"-25 602 OFFCURVE",
"-30 587 CURVE SMOOTH",
"-47 534 LINE SMOOTH",
"-52 519 OFFCURVE",
"-45 512 OFFCURVE",
"-26 512 CURVE SMOOTH",
"472 512 LINE",
"501 512 OFFCURVE",
"514 509 OFFCURVE",
"521 531 CURVE SMOOTH",
"538 584 LINE SMOOTH",
"543 599 OFFCURVE",
"536 606 OFFCURVE",
"517 606 CURVE SMOOTH"
);
},
{
closed = 1;
nodes = (
"454 606 LINE",
"457 606 OFFCURVE",
"419 334 OFFCURVE",
"414 165 CURVE SMOOTH",
"412 114 OFFCURVE",
"411 86 OFFCURVE",
"411 86 CURVE",
"311 120 OFFCURVE",
"208 233 OFFCURVE",
"188 321 CURVE",
"336 313 OFFCURVE",
"360 313 OFFCURVE",
"472 319 CURVE",
"485 419 LINE",
"485 419 OFFCURVE",
"378 415 OFFCURVE",
"280 415 CURVE SMOOTH",
"220 415 OFFCURVE",
"174 418 OFFCURVE",
"121 418 CURVE SMOOTH",
"81 418 OFFCURVE",
"64 415 OFFCURVE",
"57 392 CURVE SMOOTH",
"52 376 OFFCURVE",
"47 363 OFFCURVE",
"42 347 CURVE SMOOTH",
"38 334 OFFCURVE",
"37 324 OFFCURVE",
"54 318 CURVE SMOOTH",
"75 311 OFFCURVE",
"84 300 OFFCURVE",
"91 279 CURVE SMOOTH",
"137 142 OFFCURVE",
"323 -21 OFFCURVE",
"417 -21 CURVE SMOOTH",
"469 -21 OFFCURVE",
"517 76 OFFCURVE",
"522 154 CURVE",
"532 303 OFFCURVE",
"557 528 OFFCURVE",
"564 581 CURVE SMOOTH",
"567 605 OFFCURVE",
"559 606 OFFCURVE",
"544 606 CURVE SMOOTH"
);
},
{
closed = 1;
nodes = (
"843 512 LINE",
"875 512 OFFCURVE",
"881 510 OFFCURVE",
"889 531 CURVE SMOOTH",
"909 584 LINE SMOOTH",
"920 612 OFFCURVE",
"890 606 OFFCURVE",
"802 606 CURVE",
"725 606 OFFCURVE",
"678 583 OFFCURVE",
"667 507 CURVE SMOOTH",
"641 324 OFFCURVE",
"645 250 OFFCURVE",
"622 83 CURVE SMOOTH",
"617 47 OFFCURVE",
"603 -1 OFFCURVE",
"634 -1 CURVE SMOOTH",
"671 -1 OFFCURVE",
"742 114 OFFCURVE",
"747 194 CURVE SMOOTH",
"759 381 OFFCURVE",
"777 512 OFFCURVE",
"777 512 CURVE"
);
},
{
closed = 1;
nodes = (
"521 239 LINE",
"564 224 OFFCURVE",
"626 158 OFFCURVE",
"637 114 CURVE",
"648 114 LINE",
"648 253 LINE",
"635 253 LINE",
"584 306 OFFCURVE",
"535 329 OFFCURVE",
"506 339 CURVE"
);
}
);
};
layerId = "EC1E6058-8D86-4671-8808-9A08B2A725FC";
paths = (
{
closed = 1;
nodes = (
"-52 519 OFFCURVE",
"-45 512 OFFCURVE",
"-26 512 CURVE SMOOTH",
"444 512 LINE",
"434 417 LINE",
"393 416 OFFCURVE",
"335 415 OFFCURVE",
"280 415 CURVE SMOOTH",
"220 415 OFFCURVE",
"174 418 OFFCURVE",
"121 418 CURVE SMOOTH",
"81 418 OFFCURVE",
"64 415 OFFCURVE",
"57 392 CURVE SMOOTH",
"52 376 OFFCURVE",
"47 363 OFFCURVE",
"42 347 CURVE SMOOTH",
"38 334 OFFCURVE",
"37 324 OFFCURVE",
"54 318 CURVE SMOOTH",
"75 311 OFFCURVE",
"84 300 OFFCURVE",
"91 279 CURVE SMOOTH",
"137 142 OFFCURVE",
"323 -21 OFFCURVE",
"417 -21 CURVE SMOOTH",
"469 -21 OFFCURVE",
"516 76 OFFCURVE",
"522 154 CURVE SMOOTH",
"528 236 LINE",
"564 220 OFFCURVE",
"609 174 OFFCURVE",
"629 135 CURVE",
"622 83 LINE SMOOTH",
"617 47 OFFCURVE",
"603 -1 OFFCURVE",
"634 -1 CURVE SMOOTH",
"671 -1 OFFCURVE",
"742 114 OFFCURVE",
"747 194 CURVE SMOOTH",
"759 381 OFFCURVE",
"777 512 OFFCURVE",
"777 512 CURVE",
"843 512 LINE SMOOTH",
"875 512 OFFCURVE",
"881 510 OFFCURVE",
"889 531 CURVE SMOOTH",
"909 584 LINE SMOOTH",
"920 612 OFFCURVE",
"890 606 OFFCURVE",
"802 606 CURVE SMOOTH",
"725 606 OFFCURVE",
"678 583 OFFCURVE",
"667 507 CURVE SMOOTH",
"651 398 OFFCURVE",
"647 327 OFFCURVE",
"640 253 CURVE",
"635 253 LINE",
"599 290 OFFCURVE",
"564 313 OFFCURVE",
"536 326 CURVE",
"547 439 OFFCURVE",
"559 546 OFFCURVE",
"564 581 CURVE SMOOTH",
"567 605 OFFCURVE",
"559 606 OFFCURVE",
"544 606 CURVE SMOOTH",
"0 606 LINE SMOOTH",
"-17 606 OFFCURVE",
"-25 602 OFFCURVE",
"-30 587 CURVE SMOOTH",
"-47 534 LINE SMOOTH"
);
},
{
closed = 1;
nodes = (
"312 314 OFFCURVE",
"349 313 OFFCURVE",
"424 317 CURVE",
"418 253 OFFCURVE",
"415 193 OFFCURVE",
"411 86 CURVE",
"311 120 OFFCURVE",
"208 233 OFFCURVE",
"188 321 CURVE"
);
}
);
width = 843;
},
{
anchors = (
{
name = bottom;
position = "{420, -21}";
},
{
name = top;
position = "{474, 646}";
}
);
hints = (
{
horizontal = 1;
place = "{288, 114}";
type = Stem;
},
{
horizontal = 1;
place = "{468, 109}";
type = Stem;
}
);
layerId = "959F729E-ED2F-45C2-951D-81A6BBE10EFE";
paths = (
{
closed = 1;
nodes = (
"-60 518 OFFCURVE",
"-53 511 OFFCURVE",
"-34 511 CURVE SMOOTH",
"443 511 LINE",
"436 439 LINE",
"406 438 OFFCURVE",
"362 437 OFFCURVE",
"300 437 CURVE SMOOTH",
"226 437 OFFCURVE",
"179 440 OFFCURVE",
"122 440 CURVE SMOOTH",
"79 440 OFFCURVE",
"57 436 OFFCURVE",
"46 408 CURVE SMOOTH",
"38 386 OFFCURVE",
"25 350 OFFCURVE",
"25 338 CURVE SMOOTH",
"24 329 OFFCURVE",
"30 321 OFFCURVE",
"45 315 CURVE SMOOTH",
"69 306 OFFCURVE",
"83 300 OFFCURVE",
"88 285 CURVE SMOOTH",
"132 156 OFFCURVE",
"307 -21 OFFCURVE",
"420 -21 CURVE SMOOTH",
"476 -21 OFFCURVE",
"546 93 OFFCURVE",
"550 172 CURVE SMOOTH",
"552 209 LINE",
"582 190 OFFCURVE",
"616 149 OFFCURVE",
"629 108 CURVE",
"626 83 LINE SMOOTH",
"622 47 OFFCURVE",
"609 -1 OFFCURVE",
"644 -1 CURVE SMOOTH",
"705 -1 OFFCURVE",
"770 114 OFFCURVE",
"775 194 CURVE SMOOTH",
"787 381 OFFCURVE",
"805 511 OFFCURVE",
"805 511 CURVE",
"854 511 LINE SMOOTH",
"886 511 OFFCURVE",
"896 509 OFFCURVE",
"903 530 CURVE SMOOTH",
"927 606 LINE SMOOTH",
"936 634 OFFCURVE",
"915 628 OFFCURVE",
"802 628 CURVE SMOOTH",
"725 628 OFFCURVE",
"678 587 OFFCURVE",
"667 511 CURVE SMOOTH",
"653 410 OFFCURVE",
"649 341 OFFCURVE",
"644 271 CURVE",
"638 271 LINE",
"609 300 OFFCURVE",
"581 318 OFFCURVE",
"562 328 CURVE",
"575 464 OFFCURVE",
"589 603 OFFCURVE",
"590 606 CURVE SMOOTH",
"592 623 OFFCURVE",
"582 628 OFFCURVE",
"563 628 CURVE SMOOTH",
"0 628 LINE SMOOTH",
"-15 628 OFFCURVE",
"-26 626 OFFCURVE",
"-31 609 CURVE SMOOTH",
"-55 533 LINE SMOOTH"
);
},
{
closed = 1;
nodes = (
"288 315 OFFCURVE",
"364 314 OFFCURVE",
"424 316 CURVE",
"415 226 OFFCURVE",
"414 182 OFFCURVE",
"414 121 CURVE",
"339 140 OFFCURVE",
"241 228 OFFCURVE",
"208 319 CURVE"
);
}
);
width = 854;
}
);
leftKerningGroup = VowelA.bn;
note = Jha.bn;
rightKerningGroup = VowelA.bn;
unicode = 099D;
},
{
glyphname = Nya.bn;
lastChange = "2022-01-23 17:38:21 +0000";
layers = (
{
anchors = (
{
name = bottom;
position = "{238, -8}";
},
{
name = top;
position = "{581, 607}";
}
);
background = {
paths = (
{
closed = 1;
nodes = (
"632 295 OFFCURVE",
"661 301 OFFCURVE",
"661 283 CURVE SMOOTH",
"661 262 OFFCURVE",
"654 237 OFFCURVE",
"634 237 CURVE SMOOTH",
"616 237 OFFCURVE",
"574 252 OFFCURVE",
"520 272 CURVE",
"471 152 LINE",
"515 143 OFFCURVE",
"545 135 OFFCURVE",
"607 135 CURVE SMOOTH",
"701 135 OFFCURVE",
"782 194 OFFCURVE",
"782 277 CURVE SMOOTH",
"782 310 OFFCURVE",
"765 336 OFFCURVE",
"754 347 CURVE",
"772 366 OFFCURVE",
"788 398 OFFCURVE",
"788 430 CURVE SMOOTH",
"788 508 OFFCURVE",
"717 556 OFFCURVE",
"624 556 CURVE SMOOTH",
"561 556 OFFCURVE",
"520 541 OFFCURVE",
"457 520 CURVE",
"510 408 LINE",
"558 424 OFFCURVE",
"615 442 OFFCURVE",
"642 442 CURVE SMOOTH",
"663 443 OFFCURVE",
"669 435 OFFCURVE",
"669 422 CURVE SMOOTH",
"669 402 OFFCURVE",
"665 381 OFFCURVE",
"652 381 CURVE SMOOTH",
"642 381 OFFCURVE",
"622 387 OFFCURVE",
"615 387 CURVE SMOOTH",
"606 387 OFFCURVE",
"599 380 OFFCURVE",
"597 370 CURVE SMOOTH",
"595 359 OFFCURVE",
"591 330 OFFCURVE",
"591 321 CURVE SMOOTH",
"591 307 OFFCURVE",
"593 298 OFFCURVE",
"606 297 CURVE SMOOTH"
);
},
{
closed = 1;
nodes = (
"573 520 OFFCURVE",
"496 633 OFFCURVE",
"399 633 CURVE SMOOTH",
"338 633 OFFCURVE",
"218 556 OFFCURVE",
"218 503 CURVE SMOOTH",
"218 497 OFFCURVE",
"220 490 OFFCURVE",
"231 490 CURVE SMOOTH",
"243 490 OFFCURVE",
"295 512 OFFCURVE",
"312 512 CURVE SMOOTH",
"344 512 OFFCURVE",
"431 435 OFFCURVE",
"424 379 CURVE SMOOTH",
"410 269 OFFCURVE",
"395 189 OFFCURVE",
"392 122 CURVE",
"233 122 OFFCURVE",
"135 126 OFFCURVE",
"135 240 CURVE SMOOTH",
"135 302 OFFCURVE",
"148 378 OFFCURVE",
"148 413 CURVE SMOOTH",
"148 419 OFFCURVE",
"146 428 OFFCURVE",
"136 428 CURVE SMOOTH",
"106 428 OFFCURVE",
"-2 319 OFFCURVE",
"-2 203 CURVE SMOOTH",
"-2 74 OFFCURVE",
"102 -17 OFFCURVE",
"239 -17 CURVE SMOOTH",
"321 -17 OFFCURVE",
"376 14 OFFCURVE",
"395 14 CURVE SMOOTH",
"419 14 OFFCURVE",
"436 -17 OFFCURVE",
"452 -17 CURVE SMOOTH",
"467 -17 OFFCURVE",
"547 65 OFFCURVE",
"547 87 CURVE SMOOTH",
"547 104 OFFCURVE",
"523 119 OFFCURVE",
"524 143 CURVE SMOOTH",
"527 226 OFFCURVE",
"542 290 OFFCURVE",
"559 417 CURVE SMOOTH"
);
},
{
closed = 1;
nodes = (
"647 309 OFFCURVE",
"674 308 OFFCURVE",
"674 286 CURVE SMOOTH",
"674 269 OFFCURVE",
"671 224 OFFCURVE",
"640 224 CURVE SMOOTH",
"615 224 OFFCURVE",
"570 240 OFFCURVE",
"516 260 CURVE",
"475 163 LINE",
"519 152 OFFCURVE",
"554 145 OFFCURVE",
"599 145 CURVE SMOOTH",
"687 145 OFFCURVE",
"770 197 OFFCURVE",
"770 284 CURVE SMOOTH",
"770 310 OFFCURVE",
"749 341 OFFCURVE",
"738 347 CURVE",
"756 362 OFFCURVE",
"778 401 OFFCURVE",
"778 432 CURVE SMOOTH",
"778 507 OFFCURVE",
"711 540 OFFCURVE",
"631 540 CURVE SMOOTH",
"568 540 OFFCURVE",
"527 525 OFFCURVE",
"464 504 CURVE",
"502 425 LINE",
"550 441 OFFCURVE",
"627 460 OFFCURVE",
"654 460 CURVE SMOOTH",
"675 460 OFFCURVE",
"683 443 OFFCURVE",
"683 422 CURVE SMOOTH",
"683 402 OFFCURVE",
"678 367 OFFCURVE",
"659 367 CURVE SMOOTH",
"649 367 OFFCURVE",
"629 373 OFFCURVE",
"622 373 CURVE SMOOTH",
"613 373 OFFCURVE",
"607 370 OFFCURVE",
"605 360 CURVE SMOOTH",
"603 349 OFFCURVE",
"601 335 OFFCURVE",
"601 326 CURVE SMOOTH",
"601 312 OFFCURVE",
"603 309 OFFCURVE",
"615 309 CURVE SMOOTH"
);
},
{
closed = 1;
nodes = (
"561 520 OFFCURVE",
"477 623 OFFCURVE",
"398 623 CURVE SMOOTH",
"337 623 OFFCURVE",
"236 550 OFFCURVE",
"236 517 CURVE SMOOTH",
"236 510 OFFCURVE",
"239 506 OFFCURVE",
"247 506 CURVE SMOOTH",
"259 506 OFFCURVE",
"306 529 OFFCURVE",
"323 529 CURVE SMOOTH",
"355 529 OFFCURVE",
"451 450 OFFCURVE",
"442 394 CURVE SMOOTH",
"428 310 OFFCURVE",
"410 223 OFFCURVE",
"410 157 CURVE SMOOTH",
"410 139 OFFCURVE",
"414 123 OFFCURVE",
"417 112 CURVE",
"414 105 LINE",
"255 105 OFFCURVE",
"118 100 OFFCURVE",
"118 214 CURVE SMOOTH",
"118 276 OFFCURVE",
"140 368 OFFCURVE",
"140 403 CURVE SMOOTH",
"140 410 OFFCURVE",
"137 416 OFFCURVE",
"130 416 CURVE SMOOTH",
"104 416 OFFCURVE",
"15 303 OFFCURVE",
"15 203 CURVE SMOOTH",
"15 74 OFFCURVE",
"119 -8 OFFCURVE",
"238 -8 CURVE SMOOTH",
"320 -8 OFFCURVE",
"375 26 OFFCURVE",
"397 26 CURVE SMOOTH",
"418 26 OFFCURVE",
"438 -8 OFFCURVE",
"450 -8 CURVE SMOOTH",
"464 -8 OFFCURVE",
"536 70 OFFCURVE",
"536 87 CURVE SMOOTH",
"536 104 OFFCURVE",
"511 119 OFFCURVE",
"512 143 CURVE SMOOTH",
"515 226 OFFCURVE",
"530 290 OFFCURVE",
"547 417 CURVE SMOOTH"
);
}
);
};
layerId = "EC1E6058-8D86-4671-8808-9A08B2A725FC";
paths = (
{
closed = 1;
nodes = (
"15 74 OFFCURVE",
"119 -8 OFFCURVE",
"238 -8 CURVE SMOOTH",
"320 -8 OFFCURVE",
"375 26 OFFCURVE",
"397 26 CURVE SMOOTH",
"418 26 OFFCURVE",
"438 -8 OFFCURVE",
"450 -8 CURVE SMOOTH",
"464 -8 OFFCURVE",
"536 70 OFFCURVE",
"536 87 CURVE SMOOTH",
"536 107 OFFCURVE",
"512 110 OFFCURVE",
"512 154 CURVE",
"541 148 OFFCURVE",
"567 145 OFFCURVE",
"599 145 CURVE SMOOTH",
"687 145 OFFCURVE",
"770 197 OFFCURVE",
"770 284 CURVE SMOOTH",
"770 310 OFFCURVE",
"749 341 OFFCURVE",
"738 347 CURVE",
"756 362 OFFCURVE",
"778 401 OFFCURVE",
"778 432 CURVE SMOOTH",
"778 507 OFFCURVE",
"711 540 OFFCURVE",
"631 540 CURVE SMOOTH",
"592 540 OFFCURVE",
"561 534 OFFCURVE",
"528 525 CURVE",
"500 581 OFFCURVE",
"448 623 OFFCURVE",
"398 623 CURVE SMOOTH",
"337 623 OFFCURVE",
"236 550 OFFCURVE",
"236 517 CURVE SMOOTH",
"236 510 OFFCURVE",
"239 506 OFFCURVE",
"247 506 CURVE SMOOTH",
"259 506 OFFCURVE",
"306 529 OFFCURVE",
"323 529 CURVE SMOOTH",
"355 529 OFFCURVE",
"451 450 OFFCURVE",
"442 394 CURVE SMOOTH",
"428 310 OFFCURVE",
"410 223 OFFCURVE",
"410 157 CURVE SMOOTH",
"410 139 OFFCURVE",
"414 123 OFFCURVE",
"417 112 CURVE",
"414 105 LINE",
"255 105 OFFCURVE",
"118 100 OFFCURVE",
"118 214 CURVE SMOOTH",
"118 276 OFFCURVE",
"140 368 OFFCURVE",
"140 403 CURVE SMOOTH",
"140 410 OFFCURVE",
"137 416 OFFCURVE",
"130 416 CURVE SMOOTH",
"104 416 OFFCURVE",
"15 303 OFFCURVE",
"15 203 CURVE SMOOTH"
);
},
{
closed = 1;
nodes = (
"533 323 OFFCURVE",
"548 418 OFFCURVE",
"549 439 CURVE",
"590 450 OFFCURVE",
"635 460 OFFCURVE",
"654 460 CURVE SMOOTH",
"675 460 OFFCURVE",
"683 443 OFFCURVE",
"683 422 CURVE SMOOTH",
"683 402 OFFCURVE",
"678 367 OFFCURVE",
"659 367 CURVE SMOOTH",
"649 367 OFFCURVE",
"629 373 OFFCURVE",
"622 373 CURVE SMOOTH",
"613 373 OFFCURVE",
"607 370 OFFCURVE",
"605 360 CURVE SMOOTH",
"603 349 OFFCURVE",
"601 335 OFFCURVE",
"601 326 CURVE SMOOTH",
"601 312 OFFCURVE",
"603 309 OFFCURVE",
"615 309 CURVE SMOOTH",
"647 309 OFFCURVE",
"674 308 OFFCURVE",
"674 286 CURVE SMOOTH",
"674 269 OFFCURVE",
"671 224 OFFCURVE",
"640 224 CURVE SMOOTH",
"616 224 OFFCURVE",
"574 239 OFFCURVE",
"523 257 CURVE"
);
}
);
width = 838;
},
{
anchors = (
{
name = bottom;
position = "{250, -16}";
},
{
name = top;
position = "{596, 607}";
}
);
hints = (
{
horizontal = 1;
place = "{-16, 127}";
type = Stem;
},
{
horizontal = 1;
place = "{272, 82}";
type = Stem;
},
{
horizontal = 1;
place = "{449, 21}";
target = up;
type = BottomGhost;
},
{
horizontal = 1;
place = "{469, 112}";
type = Stem;
},
{
place = "{10, 125}";
type = Stem;
}
);
layerId = "959F729E-ED2F-45C2-951D-81A6BBE10EFE";
paths = (
{
closed = 1;
nodes = (
"10 74 OFFCURVE",
"114 -16 OFFCURVE",
"250 -16 CURVE SMOOTH",
"332 -16 OFFCURVE",
"387 15 OFFCURVE",
"406 15 CURVE SMOOTH",
"430 15 OFFCURVE",
"447 -16 OFFCURVE",
"463 -16 CURVE SMOOTH",
"478 -16 OFFCURVE",
"557 65 OFFCURVE",
"557 87 CURVE SMOOTH",
"557 104 OFFCURVE",
"534 117 OFFCURVE",
"534 142 CURVE",
"558 139 OFFCURVE",
"583 136 OFFCURVE",
"617 136 CURVE SMOOTH",
"711 136 OFFCURVE",
"792 194 OFFCURVE",
"792 278 CURVE SMOOTH",
"792 310 OFFCURVE",
"775 336 OFFCURVE",
"764 347 CURVE",
"782 366 OFFCURVE",
"798 398 OFFCURVE",
"798 430 CURVE SMOOTH",
"798 508 OFFCURVE",
"728 555 OFFCURVE",
"636 555 CURVE SMOOTH",
"601 555 OFFCURVE",
"573 551 OFFCURVE",
"544 542 CURVE",
"515 594 OFFCURVE",
"465 632 OFFCURVE",
"410 632 CURVE SMOOTH",
"349 632 OFFCURVE",
"231 556 OFFCURVE",
"231 504 CURVE SMOOTH",
"231 498 OFFCURVE",
"233 491 OFFCURVE",
"243 491 CURVE SMOOTH",
"255 491 OFFCURVE",
"307 513 OFFCURVE",
"324 513 CURVE SMOOTH",
"356 513 OFFCURVE",
"444 436 OFFCURVE",
"437 380 CURVE SMOOTH",
"420 280 OFFCURVE",
"411 219 OFFCURVE",
"408 174 CURVE SMOOTH",
"407 154 OFFCURVE",
"411 133 OFFCURVE",
"414 126 CURVE",
"412 121 LINE",
"243 121 OFFCURVE",
"145 124 OFFCURVE",
"145 238 CURVE SMOOTH",
"145 300 OFFCURVE",
"158 377 OFFCURVE",
"158 412 CURVE SMOOTH",
"158 418 OFFCURVE",
"156 427 OFFCURVE",
"147 427 CURVE SMOOTH",
"117 427 OFFCURVE",
"10 303 OFFCURVE",
"10 213 CURVE SMOOTH"
);
},
{
closed = 1;
nodes = (
"552 307 OFFCURVE",
"561 357 OFFCURVE",
"570 425 CURVE",
"604 435 OFFCURVE",
"636 444 OFFCURVE",
"654 444 CURVE SMOOTH",
"675 444 OFFCURVE",
"681 436 OFFCURVE",
"681 422 CURVE SMOOTH",
"681 402 OFFCURVE",
"677 380 OFFCURVE",
"664 380 CURVE SMOOTH",
"654 380 OFFCURVE",
"634 386 OFFCURVE",
"627 386 CURVE SMOOTH",
"618 386 OFFCURVE",
"611 379 OFFCURVE",
"609 369 CURVE SMOOTH",
"607 358 OFFCURVE",
"603 330 OFFCURVE",
"603 321 CURVE SMOOTH",
"603 307 OFFCURVE",
"605 299 OFFCURVE",
"618 298 CURVE SMOOTH",
"644 296 OFFCURVE",
"673 302 OFFCURVE",
"673 283 CURVE SMOOTH",
"673 263 OFFCURVE",
"666 236 OFFCURVE",
"646 236 CURVE SMOOTH",
"629 236 OFFCURVE",
"592 248 OFFCURVE",
"546 265 CURVE"
);
}
);
width = 867.33333;
}
);
leftKerningGroup = VowelE.bn;
note = Nya.bn;
rightKerningGroup = Nya.bn;
unicode = 099E;
},
{
glyphname = Tta.bn;
lastChange = "2022-01-23 17:38:14 +0000";
layers = (
{
anchors = (
{
name = bottom;
position = "{158, -21}";
},
{
name = top;
position = "{521, 630}";
}
);
background = {
paths = (
{
closed = 1;
nodes = (
"0 630 LINE",
"-15 630 OFFCURVE",
"-26 628 OFFCURVE",
"-31 611 CURVE SMOOTH",
"-56 533 LINE SMOOTH",
"-61.33 518.33 OFFCURVE",
"-54.33 511 OFFCURVE",
"-35 511 CURVE SMOOTH",
"565.14 511 LINE",
"597 511 OFFCURVE",
"607 509 OFFCURVE",
"614.14 530 CURVE SMOOTH",
"639.14 608 LINE SMOOTH",
"644.38 622.67 OFFCURVE",
"637.33 630 OFFCURVE",
"618 630 CURVE SMOOTH"
);
},
{
closed = 1;
nodes = (
"275 -21 OFFCURVE",
"514 134 OFFCURVE",
"514 281 CURVE SMOOTH",
"514 366 OFFCURVE",
"486 462 OFFCURVE",
"406.01 462 CURVE SMOOTH",
"365.53 462 OFFCURVE",
"301.15 452.98 OFFCURVE",
"279.86 439.82 CURVE SMOOTH",
"247.02 419.51 OFFCURVE",
"242.01 347.77 OFFCURVE",
"242.01 321.8 CURVE SMOOTH",
"242 302 OFFCURVE",
"255 251 OFFCURVE",
"270.15 250.77 CURVE SMOOTH",
"283.15 250.77 OFFCURVE",
"283.67 300.15 OFFCURVE",
"297.01 310 CURVE SMOOTH",
"306.55 317.05 OFFCURVE",
"337.97 336.42 OFFCURVE",
"359.97 336.42 CURVE SMOOTH",
"379.97 336.42 OFFCURVE",
"391.49 295.25 OFFCURVE",
"391 266 CURVE SMOOTH",
"391 212 OFFCURVE",
"226 138 OFFCURVE",
"159.01 123 CURVE",
"159.01 123 OFFCURVE",
"162.05 149.97 OFFCURVE",
"163.89 170 CURVE SMOOTH",
"183.01 377 OFFCURVE",
"195.01 541 OFFCURVE",
"195.01 541 CURVE",
"57.45 539.86 LINE",
"57.45 539.86 OFFCURVE",
"47.01 361 OFFCURVE",
"26.01 174 CURVE SMOOTH",
"18 106 OFFCURVE",
"90 -21 OFFCURVE",
"158.01 -21 CURVE SMOOTH"
);
},
{
closed = 1;
nodes = (
"472 685 OFFCURVE",
"472 735 CURVE SMOOTH",
"472 784 OFFCURVE",
"435 818 OFFCURVE",
"375 818 CURVE SMOOTH",
"319 818 OFFCURVE",
"190 788 OFFCURVE",
"166 788 CURVE SMOOTH",
"150 788 OFFCURVE",
"129 807 OFFCURVE",
"129 821 CURVE SMOOTH",
"129 833 OFFCURVE",
"162 853 OFFCURVE",
"162 860 CURVE SMOOTH",
"162 866 OFFCURVE",
"142 867 OFFCURVE",
"131 867 CURVE SMOOTH",
"84 867 OFFCURVE",
"38 817 OFFCURVE",
"38 775 CURVE SMOOTH",
"38 712 OFFCURVE",
"102 677 OFFCURVE",
"175 677 CURVE SMOOTH",
"208 677 OFFCURVE",
"298 688 OFFCURVE",
"323 688 CURVE SMOOTH",
"351 688 OFFCURVE",
"356 673 OFFCURVE",
"356 665 CURVE SMOOTH",
"356 655 OFFCURVE",
"344 634 OFFCURVE",
"322 620 CURVE",
"419 620 LINE",
"448 650 OFFCURVE"
);
},
{
closed = 1;
nodes = (
"59 536 OFFCURVE",
"42 341 OFFCURVE",
"24 154 CURVE SMOOTH",
"16 76 OFFCURVE",
"98 -21 OFFCURVE",
"150 -21 CURVE SMOOTH",
"255 -21 OFFCURVE",
"432 142 OFFCURVE",
"478 279 CURVE SMOOTH",
"485 300 OFFCURVE",
"494 311 OFFCURVE",
"515 318 CURVE SMOOTH",
"532 324 OFFCURVE",
"531 334 OFFCURVE",
"527 347 CURVE SMOOTH",
"522 363 OFFCURVE",
"517 376 OFFCURVE",
"512 392 CURVE SMOOTH",
"505 415 OFFCURVE",
"488 418 OFFCURVE",
"448 418 CURVE SMOOTH",
"395 418 OFFCURVE",
"328 415 OFFCURVE",
"268 415 CURVE SMOOTH",
"170 415 OFFCURVE",
"82 419 OFFCURVE",
"82 419 CURVE",
"95 319 LINE",
"130 316 OFFCURVE",
"205 315 OFFCURVE",
"234 315 CURVE SMOOTH",
"274 315 OFFCURVE",
"381 321 OFFCURVE",
"381 321 CURVE",
"361 233 OFFCURVE",
"256 120 OFFCURVE",
"156 86 CURVE",
"156 86 OFFCURVE",
"125 114 OFFCURVE",
"132 165 CURVE SMOOTH",
"155 331 OFFCURVE",
"168 539 OFFCURVE",
"171 539 CURVE",
"59 536 LINE"
);
},
{
closed = 1;
nodes = (
"0 606 LINE",
"-17 606 OFFCURVE",
"-25 602 OFFCURVE",
"-30 587 CURVE SMOOTH",
"-47 534 LINE SMOOTH",
"-53 517 OFFCURVE",
"-46 512 OFFCURVE",
"-26 512 CURVE SMOOTH",
"600 512 LINE",
"629 512 OFFCURVE",
"642 509 OFFCURVE",
"649 531 CURVE SMOOTH",
"666 584 LINE SMOOTH",
"671 599 OFFCURVE",
"664 606 OFFCURVE",
"645 606 CURVE SMOOTH"
);
},
{
closed = 1;
nodes = (
"408 615 OFFCURVE",
"461 672 OFFCURVE",
"461 729 CURVE SMOOTH",
"461 771 OFFCURVE",
"438 803 OFFCURVE",
"381 803 CURVE SMOOTH",
"314 803 OFFCURVE",
"203 774 OFFCURVE",
"166 774 CURVE SMOOTH",
"140 774 OFFCURVE",
"117 799 OFFCURVE",
"117 817 CURVE SMOOTH",
"117 836 OFFCURVE",
"161 855 OFFCURVE",
"161 862 CURVE SMOOTH",
"161 866 OFFCURVE",
"148 867 OFFCURVE",
"138 867 CURVE SMOOTH",
"90 867 OFFCURVE",
"52 826 OFFCURVE",
"52 782 CURVE SMOOTH",
"52 740 OFFCURVE",
"98 690 OFFCURVE",
"167 690 CURVE SMOOTH",
"214 690 OFFCURVE",
"308 701 OFFCURVE",
"333 701 CURVE SMOOTH",
"361 701 OFFCURVE",
"368 685 OFFCURVE",
"368 674 CURVE SMOOTH",
"368 651 OFFCURVE",
"333 613 OFFCURVE",
"311 599 CURVE",
"392 600 LINE"
);
},
{
closed = 1;
nodes = (
"251 -21 OFFCURVE",
"496 134 OFFCURVE",
"496 281 CURVE SMOOTH",
"496 366 OFFCURVE",
"466 447 OFFCURVE",
"406 447 CURVE SMOOTH",
"366 447 OFFCURVE",
"300 438 OFFCURVE",
"280 423 CURVE SMOOTH",
"260 408 OFFCURVE",
"253 348 OFFCURVE",
"253 322 CURVE SMOOTH",
"253 302 OFFCURVE",
"260 268 OFFCURVE",
"271 268 CURVE SMOOTH",
"284 268 OFFCURVE",
"285 317 OFFCURVE",
"297 326 CURVE SMOOTH",
"310 336 OFFCURVE",
"338 353 OFFCURVE",
"364 353 CURVE SMOOTH",
"389 353 OFFCURVE",
"404 295 OFFCURVE",
"404 258 CURVE SMOOTH",
"404 195 OFFCURVE",
"203 88 OFFCURVE",
"136 73 CURVE",
"136 73 OFFCURVE",
"140 109 OFFCURVE",
"142 129 CURVE SMOOTH",
"163 336 OFFCURVE",
"173 541 OFFCURVE",
"173 541 CURVE",
"75 540 LINE",
"75 540 OFFCURVE",
"65 361 OFFCURVE",
"44 174 CURVE SMOOTH",
"36 106 OFFCURVE",
"90 -21 OFFCURVE",
"158.01 -21 CURVE SMOOTH"
);
}
);
};
layerId = "EC1E6058-8D86-4671-8808-9A08B2A725FC";
paths = (
{
closed = 1;
nodes = (
"-53 517 OFFCURVE",
"-46 512 OFFCURVE",
"-26 512 CURVE SMOOTH",
"73 512 LINE",
"70 455 OFFCURVE",
"60 317 OFFCURVE",
"44 174 CURVE SMOOTH",
"36 106 OFFCURVE",
"90 -21 OFFCURVE",
"158 -21 CURVE SMOOTH",
"251 -21 OFFCURVE",
"496 134 OFFCURVE",
"496 281 CURVE SMOOTH",
"496 366 OFFCURVE",
"466 447 OFFCURVE",
"406 447 CURVE SMOOTH",
"366 447 OFFCURVE",
"300 438 OFFCURVE",
"280 423 CURVE SMOOTH",
"260 408 OFFCURVE",
"253 348 OFFCURVE",
"253 322 CURVE SMOOTH",
"253 302 OFFCURVE",
"260 268 OFFCURVE",
"271 268 CURVE SMOOTH",
"284 268 OFFCURVE",
"285 317 OFFCURVE",
"297 326 CURVE SMOOTH",
"310 336 OFFCURVE",
"338 353 OFFCURVE",
"364 353 CURVE SMOOTH",
"389 353 OFFCURVE",
"404 295 OFFCURVE",
"404 258 CURVE SMOOTH",
"404 195 OFFCURVE",
"203 88 OFFCURVE",
"136 73 CURVE",
"142 129 LINE SMOOTH",
"159 289 OFFCURVE",
"168 448 OFFCURVE",
"171 512 CURVE",
"600 512 LINE SMOOTH",
"629 512 OFFCURVE",
"642 509 OFFCURVE",
"649 531 CURVE SMOOTH",
"666 584 LINE SMOOTH",
"671 599 OFFCURVE",
"664 606 OFFCURVE",
"645 606 CURVE SMOOTH",
"398 606 LINE",
"418 627 OFFCURVE",
"461 678 OFFCURVE",
"461 729 CURVE SMOOTH",
"461 771 OFFCURVE",
"438 803 OFFCURVE",
"381 803 CURVE SMOOTH",
"314 803 OFFCURVE",
"203 774 OFFCURVE",
"166 774 CURVE SMOOTH",
"140 774 OFFCURVE",
"117 799 OFFCURVE",
"117 817 CURVE SMOOTH",
"117 836 OFFCURVE",
"161 855 OFFCURVE",
"161 862 CURVE SMOOTH",
"161 866 OFFCURVE",
"148 867 OFFCURVE",
"138 867 CURVE SMOOTH",
"90 867 OFFCURVE",
"52 826 OFFCURVE",
"52 782 CURVE SMOOTH",
"52 740 OFFCURVE",
"98 690 OFFCURVE",
"167 690 CURVE SMOOTH",
"214 690 OFFCURVE",
"308 701 OFFCURVE",
"333 701 CURVE SMOOTH",
"361 701 OFFCURVE",
"368 685 OFFCURVE",
"368 674 CURVE SMOOTH",
"368 654 OFFCURVE",
"342 623 OFFCURVE",
"321 606 CURVE",
"0 606 LINE SMOOTH",
"-17 606 OFFCURVE",
"-25 602 OFFCURVE",
"-30 587 CURVE SMOOTH",
"-47 534 LINE SMOOTH"
);
}
);
width = 600;
},
{
anchors = (
{
name = bottom;
position = "{158, -21}";
},
{
name = top;
position = "{496, 649}";
}
);
hints = (
{
horizontal = 1;
place = "{308, 115}";
type = Stem;
},
{
horizontal = 1;
place = "{568, 9}";
type = Stem;
},
{
place = "{34, 84}";
type = Stem;
},
{
horizontal = 1;
place = "{468, 109}";
type = Stem;
},
{
horizontal = 1;
place = "{630, 120}";
type = Stem;
},
{
place = "{325, 106}";
type = Stem;
},
{
horizontal = 1;
place = "{621, 102}";
type = Stem;
},
{
place = "{359, 112}";
type = Stem;
}
);
layerId = "959F729E-ED2F-45C2-951D-81A6BBE10EFE";
paths = (
{
closed = 1;
nodes = (
"-60 518 OFFCURVE",
"-53 511 OFFCURVE",
"-34 511 CURVE SMOOTH",
"57 511 LINE",
"54 453 OFFCURVE",
"44 316 OFFCURVE",
"28 174 CURVE SMOOTH",
"20 106 OFFCURVE",
"90 -21 OFFCURVE",
"158 -21 CURVE SMOOTH",
"273 -21 OFFCURVE",
"513 134 OFFCURVE",
"513 281 CURVE SMOOTH",
"513 366 OFFCURVE",
"484 461 OFFCURVE",
"406 461 CURVE SMOOTH",
"366 461 OFFCURVE",
"301 452 OFFCURVE",
"280 439 CURVE SMOOTH",
"248 419 OFFCURVE",
"243 348 OFFCURVE",
"243 322 CURVE SMOOTH",
"243 302 OFFCURVE",
"255 252 OFFCURVE",
"270 252 CURVE SMOOTH",
"283 252 OFFCURVE",
"284 301 OFFCURVE",
"297 311 CURVE SMOOTH",
"307 319 OFFCURVE",
"338 337 OFFCURVE",
"360 337 CURVE SMOOTH",
"381 337 OFFCURVE",
"392 295 OFFCURVE",
"392 265 CURVE SMOOTH",
"392 211 OFFCURVE",
"224 134 OFFCURVE",
"157 119 CURVE",
"162 167 LINE SMOOTH",
"178 321 OFFCURVE",
"186 454 OFFCURVE",
"191 511 CURVE",
"568 511 LINE SMOOTH",
"600 511 OFFCURVE",
"610 509 OFFCURVE",
"617 530 CURVE SMOOTH",
"641 606 LINE SMOOTH",
"646 621 OFFCURVE",
"639 628 OFFCURVE",
"620 628 CURVE SMOOTH",
"426 628 LINE",
"450 655 OFFCURVE",
"471 689 OFFCURVE",
"471 735 CURVE SMOOTH",
"471 783 OFFCURVE",
"435 817 OFFCURVE",
"376 817 CURVE SMOOTH",
"319 817 OFFCURVE",
"191 787 OFFCURVE",
"166 787 CURVE SMOOTH",
"149 787 OFFCURVE",
"128 806 OFFCURVE",
"128 821 CURVE SMOOTH",
"128 833 OFFCURVE",
"162 853 OFFCURVE",
"162 860 CURVE SMOOTH",
"162 866 OFFCURVE",
"143 867 OFFCURVE",
"132 867 CURVE SMOOTH",
"85 867 OFFCURVE",
"39 818 OFFCURVE",
"39 776 CURVE SMOOTH",
"39 714 OFFCURVE",
"102 678 OFFCURVE",
"174 678 CURVE SMOOTH",
"209 678 OFFCURVE",
"299 689 OFFCURVE",
"324 689 CURVE SMOOTH",
"352 689 OFFCURVE",
"357 674 OFFCURVE",
"357 666 CURVE SMOOTH",
"357 657 OFFCURVE",
"348 641 OFFCURVE",
"334 628 CURVE",
"0 628 LINE SMOOTH",
"-15 628 OFFCURVE",
"-26 626 OFFCURVE",
"-31 609 CURVE SMOOTH",
"-55 533 LINE SMOOTH"
);
}
);
width = 567.91667;
}
);
leftKerningGroup = VowelA.bn;
note = Tta.bn;
rightKerningGroup = VowelA.bn;
unicode = 099F;
},
{
glyphname = Ttha.bn;
lastChange = "2022-01-23 17:38:10 +0000";
layers = (
{
anchors = (
{
name = bottom;
position = "{285, -15}";
},
{
name = top;
position = "{431, 630}";
}
);
background = {
paths = (
{
closed = 1;
nodes = (
"351 441 OFFCURVE",
"302 518 OFFCURVE",
"302 518 CURVE",
"205.41 516.88 LINE",
"205.41 516.88 OFFCURVE",
"255.82 471.76 OFFCURVE",
"255.82 438.8 CURVE SMOOTH",
"255.82 410 OFFCURVE",
"181 356.2 OFFCURVE",
"145.96 356.2 CURVE SMOOTH",
"120.96 356.2 OFFCURVE",
"99 358.42 OFFCURVE",
"76.72 358.42 CURVE SMOOTH",
"39.71 358.42 OFFCURVE",
"29.34 358.37 OFFCURVE",
"19.73 340.47 CURVE SMOOTH",
"5 314 OFFCURVE",
"-13 277 OFFCURVE",
"-13 264 CURVE SMOOTH",
"-13 256 OFFCURVE",
"-9 250 OFFCURVE",
"4 243 CURVE SMOOTH",
"21 234 OFFCURVE",
"37 223 OFFCURVE",
"47.65 197.71 CURVE SMOOTH",
"67.57 151.1 OFFCURVE",
"157.36 -25.29 OFFCURVE",
"285.36 -25.29 CURVE SMOOTH",
"404.01 -25.29 OFFCURVE",
"537.42 112 OFFCURVE",
"537.42 232.61 CURVE SMOOTH",
"537.42 334.61 OFFCURVE",
"303.18 571.36 OFFCURVE",
"256.09 681.05 CURVE SMOOTH",
"246 705 OFFCURVE",
"241 729 OFFCURVE",
"241 748 CURVE SMOOTH",
"241 803 OFFCURVE",
"345 813 OFFCURVE",
"345.4 832.25 CURVE SMOOTH",
"346 849 OFFCURVE",
"290 868 OFFCURVE",
"256 868 CURVE SMOOTH",
"202 865 OFFCURVE",
"107 826 OFFCURVE",
"107 780 CURVE SMOOTH",
"107 752 OFFCURVE",
"110 716 OFFCURVE",
"129 668 CURVE SMOOTH",
"177 545 OFFCURVE",
"401 292 OFFCURVE",
"400.61 234.37 CURVE SMOOTH",
"400.61 186.01 OFFCURVE",
"343.99 106.81 OFFCURVE",
"295.68 106.81 CURVE SMOOTH",
"226.68 106.81 OFFCURVE",
"172.37 242.16 OFFCURVE",
"172.37 242.16 CURVE",
"221 242 OFFCURVE",
"351 300 OFFCURVE",
"350.97 399.17 CURVE SMOOTH"
);
},
{
closed = 1;
nodes = (
"0 630.01 LINE",
"-15 630 OFFCURVE",
"-25 628 OFFCURVE",
"-30 611.01 CURVE SMOOTH",
"-55 533.01 LINE SMOOTH",
"-60.33 518.34 OFFCURVE",
"-53.33 511.01 OFFCURVE",
"-34 511.01 CURVE SMOOTH",
"615.14 511.01 LINE",
"647 511 OFFCURVE",
"657 509 OFFCURVE",
"664.14 530.01 CURVE SMOOTH",
"689.14 608.01 LINE SMOOTH",
"694.38 622.68 OFFCURVE",
"687.33 630.01 OFFCURVE",
"668 630.01 CURVE SMOOTH"
);
},
{
closed = 1;
nodes = (
"0 606 LINE",
"-17 606 OFFCURVE",
"-25 602 OFFCURVE",
"-30 587 CURVE SMOOTH",
"-47 534 LINE SMOOTH",
"-53 517 OFFCURVE",
"-46 512 OFFCURVE",
"-26 512 CURVE SMOOTH",
"600 512 LINE",
"629 512 OFFCURVE",
"642 509 OFFCURVE",
"649 531 CURVE SMOOTH",
"666 584 LINE SMOOTH",
"671 599 OFFCURVE",
"664 606 OFFCURVE",
"645 606 CURVE SMOOTH"
);
},
{
closed = 1;
nodes = (
"342 442 OFFCURVE",
"294 518 OFFCURVE",
"294 518 CURVE",
"226 517 LINE",
"226 517 OFFCURVE",
"272 466 OFFCURVE",
"272 439 CURVE SMOOTH",
"272 396 OFFCURVE",
"191 341 OFFCURVE",
"146 341 CURVE SMOOTH",
"121 341 OFFCURVE",
"109 342 OFFCURVE",
"87 342 CURVE SMOOTH",
"50 342 OFFCURVE",
"40 341 OFFCURVE",
"30 324 CURVE SMOOTH",
"15 297 OFFCURVE",
"3 275 OFFCURVE",
"3 265 CURVE SMOOTH",
"3 257 OFFCURVE",
"8 253 OFFCURVE",
"21 246 CURVE SMOOTH",
"38 237 OFFCURVE",
"49 228 OFFCURVE",
"60 203 CURVE SMOOTH",
"81 156 OFFCURVE",
"173 -15 OFFCURVE",
"285 -15 CURVE SMOOTH",
"404 -15 OFFCURVE",
"536 112 OFFCURVE",
"536 233 CURVE SMOOTH",
"536 335 OFFCURVE",
"302 571 OFFCURVE",
"255 681 CURVE SMOOTH",
"245 705 OFFCURVE",
"234 731 OFFCURVE",
"234 750 CURVE SMOOTH",
"234 805 OFFCURVE",
"331 811 OFFCURVE",
"331 827 CURVE SMOOTH",
"331 842 OFFCURVE",
"290 854 OFFCURVE",
"256 854 CURVE SMOOTH",
"202 851 OFFCURVE",
"121 809 OFFCURVE",
"121 774 CURVE SMOOTH",
"121 746 OFFCURVE",
"131 716 OFFCURVE",
"150 668 CURVE SMOOTH",
"198 545 OFFCURVE",
"426 292 OFFCURVE",
"426 234 CURVE SMOOTH",
"426 152 OFFCURVE",
"361 82 OFFCURVE",
"296 82 CURVE SMOOTH",
"212 82 OFFCURVE",
"147 249 OFFCURVE",
"147 249 CURVE",
"196 249 OFFCURVE",
"342 306 OFFCURVE",
"342 399 CURVE SMOOTH"
);
}
);
};
layerId = "EC1E6058-8D86-4671-8808-9A08B2A725FC";
paths = (
{
closed = 1;
nodes = (
"-53 517 OFFCURVE",
"-46 512 OFFCURVE",
"-26 512 CURVE SMOOTH",
"230 512 LINE",
"242 499 OFFCURVE",
"272 461 OFFCURVE",
"272 439 CURVE SMOOTH",
"272 396 OFFCURVE",
"191 341 OFFCURVE",
"146 341 CURVE SMOOTH",
"121 341 OFFCURVE",
"109 342 OFFCURVE",
"87 342 CURVE SMOOTH",
"50 342 OFFCURVE",
"40 341 OFFCURVE",
"30 324 CURVE SMOOTH",
"15 297 OFFCURVE",
"3 275 OFFCURVE",
"3 265 CURVE SMOOTH",
"3 257 OFFCURVE",
"8 253 OFFCURVE",
"21 246 CURVE SMOOTH",
"38 237 OFFCURVE",
"49 228 OFFCURVE",
"60 203 CURVE SMOOTH",
"81 156 OFFCURVE",
"173 -15 OFFCURVE",
"285 -15 CURVE SMOOTH",
"404 -15 OFFCURVE",
"536 112 OFFCURVE",
"536 233 CURVE SMOOTH",
"536 296 OFFCURVE",
"448 409 OFFCURVE",
"369 512 CURVE",
"600 512 LINE SMOOTH",
"629 512 OFFCURVE",
"642 509 OFFCURVE",
"649 531 CURVE SMOOTH",
"666 584 LINE SMOOTH",
"671 599 OFFCURVE",
"664 606 OFFCURVE",
"645 606 CURVE SMOOTH",
"299 606 LINE",
"267 653 OFFCURVE",
"234 715 OFFCURVE",
"234 750 CURVE SMOOTH",
"234 805 OFFCURVE",
"331 811 OFFCURVE",
"331 827 CURVE SMOOTH",
"331 842 OFFCURVE",
"290 854 OFFCURVE",
"256 854 CURVE SMOOTH",
"202 851 OFFCURVE",
"121 809 OFFCURVE",
"121 774 CURVE SMOOTH",
"121 732 OFFCURVE",
"150 659 OFFCURVE",
"182 606 CURVE",
"0 606 LINE SMOOTH",
"-17 606 OFFCURVE",
"-25 602 OFFCURVE",
"-30 587 CURVE SMOOTH",
"-47 534 LINE SMOOTH"
);
},
{
closed = 1;
nodes = (
"193 249 OFFCURVE",
"322 298 OFFCURVE",
"340 380 CURVE",
"388 314 OFFCURVE",
"426 258 OFFCURVE",
"426 234 CURVE SMOOTH",
"426 152 OFFCURVE",
"361 82 OFFCURVE",
"296 82 CURVE SMOOTH",
"212 82 OFFCURVE",
"147 249 OFFCURVE",
"147 249 CURVE"
);
}
);
width = 600;
},
{
anchors = (
{
name = bottom;
position = "{285, -24}";
},
{
name = top;
position = "{454, 646}";
}
);
hints = (
{
horizontal = 1;
place = "{-23, 121}";
type = Stem;
},
{
horizontal = 1;
place = "{468, 6}";
type = Stem;
},
{
place = "{367, 125}";
type = Stem;
},
{
horizontal = 1;
place = "{468, 109}";
type = Stem;
}
);
layerId = "959F729E-ED2F-45C2-951D-81A6BBE10EFE";
paths = (
{
closed = 1;
nodes = (
"-59 518 OFFCURVE",
"-52 511 OFFCURVE",
"-33 511 CURVE SMOOTH",
"214 511 LINE",
"226 498 OFFCURVE",
"257 465 OFFCURVE",
"257 439 CURVE SMOOTH",
"257 409 OFFCURVE",
"182 355 OFFCURVE",
"146 355 CURVE SMOOTH",
"121 355 OFFCURVE",
"100 357 OFFCURVE",
"78 357 CURVE SMOOTH",
"41 357 OFFCURVE",
"30 357 OFFCURVE",
"21 339 CURVE SMOOTH",
"6 313 OFFCURVE",
"-12 277 OFFCURVE",
"-12 264 CURVE SMOOTH",
"-12 256 OFFCURVE",
"-8 250 OFFCURVE",
"5 243 CURVE SMOOTH",
"22 234 OFFCURVE",
"38 223 OFFCURVE",
"49 198 CURVE SMOOTH",
"69 151 OFFCURVE",
"158 -24 OFFCURVE",
"285 -24 CURVE SMOOTH",
"404 -24 OFFCURVE",
"537 112 OFFCURVE",
"537 233 CURVE SMOOTH",
"537 295 OFFCURVE",
"450 408 OFFCURVE",
"371 511 CURVE",
"614 511 LINE SMOOTH",
"646 511 OFFCURVE",
"656 509 OFFCURVE",
"663 530 CURVE SMOOTH",
"687 606 LINE SMOOTH",
"692 621 OFFCURVE",
"685 628 OFFCURVE",
"666 628 CURVE SMOOTH",
"286 628 LINE",
"262 665 OFFCURVE",
"240 706 OFFCURVE",
"240 748 CURVE SMOOTH",
"240 803 OFFCURVE",
"344 813 OFFCURVE",
"344 832 CURVE SMOOTH",
"345 848 OFFCURVE",
"290 867 OFFCURVE",
"256 867 CURVE SMOOTH",
"202 864 OFFCURVE",
"108 825 OFFCURVE",
"108 780 CURVE SMOOTH",
"108 730 OFFCURVE",
"123 678 OFFCURVE",
"150 628 CURVE",
"0 628 LINE SMOOTH",
"-15 628 OFFCURVE",
"-25 626 OFFCURVE",
"-30 609 CURVE SMOOTH",
"-54 533 LINE SMOOTH"
);
},
{
closed = 1;
nodes = (
"210 243 OFFCURVE",
"306 282 OFFCURVE",
"339 351 CURVE",
"376 298 OFFCURVE",
"403 254 OFFCURVE",
"403 234 CURVE SMOOTH",
"403 183 OFFCURVE",
"345 105 OFFCURVE",
"296 105 CURVE SMOOTH",
"226 105 OFFCURVE",
"170 243 OFFCURVE",
"170 243 CURVE"
);
}
);
width = 613.75;
}
);
leftKerningGroup = VowelA.bn;
note = Ttha.bn;
rightKerningGroup = VowelA.bn;
unicode = 09A0;
},
{
glyphname = Dda.bn;
lastChange = "2022-01-23 17:38:06 +0000";
layers = (
{
anchors = (
{
name = bottom;
position = "{273, -10}";
},
{
name = top;
position = "{401, 630}";
}
);
background = {
paths = (
{
closed = 1;
nodes = (
"0 606 LINE",
"-17 606 OFFCURVE",
"-25 602 OFFCURVE",
"-30 587 CURVE SMOOTH",
"-47 534 LINE SMOOTH",
"-53 517 OFFCURVE",
"-46 512 OFFCURVE",
"-26 512 CURVE SMOOTH",
"600 512 LINE",
"629 512 OFFCURVE",
"642 509 OFFCURVE",
"649 531 CURVE SMOOTH",
"666 584 LINE SMOOTH",
"671 599 OFFCURVE",
"664 606 OFFCURVE",
"645 606 CURVE SMOOTH"
);
},
{
closed = 1;
nodes = (
"396 534 LINE",
"283 537 LINE",
"283 537 OFFCURVE",
"270 433 OFFCURVE",
"260 309 CURVE SMOOTH",
"258 283 OFFCURVE",
"296 244 OFFCURVE",
"306 244 CURVE SMOOTH",
"316 244 OFFCURVE",
"314 285 OFFCURVE",
"330 292 CURVE SMOOTH",
"337 295 OFFCURVE",
"375 306 OFFCURVE",
"389 306 CURVE SMOOTH",
"420 306 OFFCURVE",
"439 230 OFFCURVE",
"439 191 CURVE SMOOTH",
"439 139 OFFCURVE",
"359 79 OFFCURVE",
"279 79 CURVE SMOOTH",
"199 79 OFFCURVE",
"161 163 OFFCURVE",
"161 271 CURVE SMOOTH",
"161 344 OFFCURVE",
"192 432 OFFCURVE",
"192 464 CURVE SMOOTH",
"192 473 OFFCURVE",
"189 479 OFFCURVE",
"181 479 CURVE SMOOTH",
"155 479 OFFCURVE",
"46 335 OFFCURVE",
"46 225 CURVE SMOOTH",
"46 110 OFFCURVE",
"128 -10 OFFCURVE",
"273 -10 CURVE SMOOTH",
"439 -10 OFFCURVE",
"570 119 OFFCURVE",
"570 257 CURVE SMOOTH",
"570 325 OFFCURVE",
"519 408 OFFCURVE",
"482 408 CURVE SMOOTH",
"441 408 OFFCURVE",
"378 369 OFFCURVE",
"378 369 CURVE"
);
}
);
};
layerId = "EC1E6058-8D86-4671-8808-9A08B2A725FC";
paths = (
{
closed = 1;
nodes = (
"-53 517 OFFCURVE",
"-46 512 OFFCURVE",
"-26 512 CURVE SMOOTH",
"280 512 LINE",
"276 474 OFFCURVE",
"267 396 OFFCURVE",
"260 309 CURVE SMOOTH",
"258 283 OFFCURVE",
"296 244 OFFCURVE",
"306 244 CURVE SMOOTH",
"316 244 OFFCURVE",
"314 285 OFFCURVE",
"330 292 CURVE SMOOTH",
"337 295 OFFCURVE",
"375 306 OFFCURVE",
"389 306 CURVE SMOOTH",
"420 306 OFFCURVE",
"439 230 OFFCURVE",
"439 191 CURVE SMOOTH",
"439 139 OFFCURVE",
"359 79 OFFCURVE",
"279 79 CURVE SMOOTH",
"199 79 OFFCURVE",
"161 163 OFFCURVE",
"161 271 CURVE SMOOTH",
"161 344 OFFCURVE",
"192 432 OFFCURVE",
"192 464 CURVE SMOOTH",
"192 473 OFFCURVE",
"189 479 OFFCURVE",
"181 479 CURVE SMOOTH",
"155 479 OFFCURVE",
"46 335 OFFCURVE",
"46 225 CURVE SMOOTH",
"46 110 OFFCURVE",
"128 -10 OFFCURVE",
"273 -10 CURVE SMOOTH",
"439 -10 OFFCURVE",
"570 119 OFFCURVE",
"570 257 CURVE SMOOTH",
"570 325 OFFCURVE",
"519 408 OFFCURVE",
"482 408 CURVE SMOOTH",
"441 408 OFFCURVE",
"378 369 OFFCURVE",
"378 369 CURVE",
"394 512 LINE",
"600 512 LINE SMOOTH",
"629 512 OFFCURVE",
"642 509 OFFCURVE",
"649 531 CURVE SMOOTH",
"666 584 LINE SMOOTH",
"671 599 OFFCURVE",
"664 606 OFFCURVE",
"645 606 CURVE SMOOTH",
"0 606 LINE SMOOTH",
"-17 606 OFFCURVE",
"-25 602 OFFCURVE",
"-30 587 CURVE SMOOTH",
"-47 534 LINE SMOOTH"
);
}
);
width = 600;
},
{
anchors = (
{
name = bottom;
position = "{273, -24}";
},
{
name = top;
position = "{424, 646}";
}
);
hints = (
{
horizontal = 1;
place = "{-23, 110}";
type = Stem;
},
{
horizontal = 1;
place = "{468, 109}";
type = Stem;
},
{
place = "{29, 130}";
type = Stem;
},
{
place = "{385, 150}";
type = Stem;
}
);
layerId = "959F729E-ED2F-45C2-951D-81A6BBE10EFE";
paths = (
{
closed = 1;
nodes = (
"-59 518 OFFCURVE",
"-52 511 OFFCURVE",
"-33 511 CURVE SMOOTH",
"269 511 LINE",
"264 472 OFFCURVE",
"256 395 OFFCURVE",
"249 309 CURVE SMOOTH",
"249 283 OFFCURVE",
"289 235 OFFCURVE",
"306 235 CURVE SMOOTH",
"322 235 OFFCURVE",
"314 271 OFFCURVE",
"330 278 CURVE SMOOTH",
"337 281 OFFCURVE",
"370 292 OFFCURVE",
"384 292 CURVE SMOOTH",
"404 292 OFFCURVE",
"423 230 OFFCURVE",
"423 193 CURVE SMOOTH",
"423 143 OFFCURVE",
"332 94 OFFCURVE",
"279 94 CURVE SMOOTH",
"208 94 OFFCURVE",
"172 195 OFFCURVE",
"172 290 CURVE SMOOTH",
"172 372 OFFCURVE",
"192 420 OFFCURVE",
"192 464 CURVE SMOOTH",
"192 471 OFFCURVE",
"191 479 OFFCURVE",
"180 479 CURVE SMOOTH",
"148 479 OFFCURVE",
"32 353 OFFCURVE",
"32 222 CURVE SMOOTH",
"32 93 OFFCURVE",
"128 -24 OFFCURVE",
"273 -24 CURVE SMOOTH",
"439 -24 OFFCURVE",
"584 97 OFFCURVE",
"584 265 CURVE SMOOTH",
"584 321 OFFCURVE",
"535 422 OFFCURVE",
"483 422 CURVE SMOOTH",
"443 422 OFFCURVE",
"393 393 OFFCURVE",
"393 393 CURVE",
"406 511 LINE",
"646 511 LINE SMOOTH",
"678 511 OFFCURVE",
"688 509 OFFCURVE",
"695 530 CURVE SMOOTH",
"719 606 LINE SMOOTH",
"724 621 OFFCURVE",
"717 628 OFFCURVE",
"698 628 CURVE SMOOTH",
"0 628 LINE SMOOTH",
"-13 628 OFFCURVE",
"-23 630 OFFCURVE",
"-30 609 CURVE SMOOTH",
"-54 533 LINE SMOOTH"
);
}
);
width = 645.83333;
}
);
leftKerningGroup = VowelA.bn;
note = Dda.bn;
rightKerningGroup = VowelA.bn;
unicode = 09A1;
},
{
glyphname = Ddha.bn;
lastChange = "2022-01-23 17:38:01 +0000";
layers = (
{
anchors = (
{
name = bottom;
position = "{158, -21}";
},
{
name = top;
position = "{241, 630}";
}
);
background = {
paths = (
{
closed = 1;
nodes = (
"0 606 LINE",
"-17 606 OFFCURVE",
"-25 602 OFFCURVE",
"-30 587 CURVE SMOOTH",
"-47 534 LINE SMOOTH",
"-53 517 OFFCURVE",
"-46 512 OFFCURVE",
"-26 512 CURVE SMOOTH",
"600 512 LINE",
"629 512 OFFCURVE",
"642 509 OFFCURVE",
"649 531 CURVE SMOOTH",
"666 584 LINE SMOOTH",
"671 599 OFFCURVE",
"664 606 OFFCURVE",
"645 606 CURVE SMOOTH"
);
},
{
closed = 1;
nodes = (
"251 -21 OFFCURVE",
"496 134 OFFCURVE",
"496 281 CURVE SMOOTH",
"496 366 OFFCURVE",
"466 447 OFFCURVE",
"406 447 CURVE SMOOTH",
"366 447 OFFCURVE",
"300 438 OFFCURVE",
"280 423 CURVE SMOOTH",
"260 408 OFFCURVE",
"253 348 OFFCURVE",
"253 322 CURVE SMOOTH",
"253 302 OFFCURVE",
"260 268 OFFCURVE",
"271 268 CURVE SMOOTH",
"284 268 OFFCURVE",
"285 317 OFFCURVE",
"297 326 CURVE SMOOTH",
"310 336 OFFCURVE",
"338 353 OFFCURVE",
"364 353 CURVE SMOOTH",
"389 353 OFFCURVE",
"404 295 OFFCURVE",
"404 258 CURVE SMOOTH",
"404 195 OFFCURVE",
"203 88 OFFCURVE",
"136 73 CURVE",
"136 73 OFFCURVE",
"140 109 OFFCURVE",
"142 129 CURVE SMOOTH",
"163 336 OFFCURVE",
"173 541 OFFCURVE",
"173 541 CURVE",
"75 540 LINE",
"75 540 OFFCURVE",
"65 361 OFFCURVE",
"44 174 CURVE SMOOTH",
"36 106 OFFCURVE",
"90 -21 OFFCURVE",
"158.01 -21 CURVE SMOOTH"
);
}
);
};
layerId = "EC1E6058-8D86-4671-8808-9A08B2A725FC";
paths = (
{
closed = 1;
nodes = (
"-53 517 OFFCURVE",
"-46 512 OFFCURVE",
"-26 512 CURVE SMOOTH",
"73 512 LINE",
"70 455 OFFCURVE",
"60 317 OFFCURVE",
"44 174 CURVE SMOOTH",
"36 106 OFFCURVE",
"90 -21 OFFCURVE",
"158 -21 CURVE SMOOTH",
"251 -21 OFFCURVE",
"496 134 OFFCURVE",
"496 281 CURVE SMOOTH",
"496 366 OFFCURVE",
"466 447 OFFCURVE",
"406 447 CURVE SMOOTH",
"366 447 OFFCURVE",
"300 438 OFFCURVE",
"280 423 CURVE SMOOTH",
"260 408 OFFCURVE",
"253 348 OFFCURVE",
"253 322 CURVE SMOOTH",
"253 302 OFFCURVE",
"260 268 OFFCURVE",
"271 268 CURVE SMOOTH",
"284 268 OFFCURVE",
"285 317 OFFCURVE",
"297 326 CURVE SMOOTH",
"310 336 OFFCURVE",
"338 353 OFFCURVE",
"364 353 CURVE SMOOTH",
"389 353 OFFCURVE",
"404 295 OFFCURVE",
"404 258 CURVE SMOOTH",
"404 195 OFFCURVE",
"203 88 OFFCURVE",
"136 73 CURVE",
"142 129 LINE SMOOTH",
"159 289 OFFCURVE",
"168 448 OFFCURVE",
"171 512 CURVE",
"600 512 LINE SMOOTH",
"629 512 OFFCURVE",
"642 509 OFFCURVE",
"649 531 CURVE SMOOTH",
"666 584 LINE SMOOTH",
"671 599 OFFCURVE",
"664 606 OFFCURVE",
"645 606 CURVE SMOOTH",
"0 606 LINE SMOOTH",
"-17 606 OFFCURVE",
"-25 602 OFFCURVE",
"-30 587 CURVE SMOOTH",
"-47 534 LINE SMOOTH"
);
}
);
width = 600;
},
{
anchors = (
{
name = bottom;
position = "{181, -21}";
},
{
name = top;
position = "{404, 646}";
}
);
hints = (
{
horizontal = 1;
place = "{308, 115}";
type = Stem;
},
{
horizontal = 1;
place = "{468, 109}";
type = Stem;
},
{
place = "{382, 112}";
type = Stem;
}
);
layerId = "959F729E-ED2F-45C2-951D-81A6BBE10EFE";
paths = (
{
closed = 1;
nodes = (
"-60 518 OFFCURVE",
"-53 511 OFFCURVE",
"-34 511 CURVE SMOOTH",
"79 511 LINE",
"76 453 OFFCURVE",
"67 316 OFFCURVE",
"50 174 CURVE SMOOTH",
"42 106 OFFCURVE",
"113 -21 OFFCURVE",
"181 -21 CURVE SMOOTH",
"296 -21 OFFCURVE",
"535 134 OFFCURVE",
"535 281 CURVE SMOOTH",
"535 366 OFFCURVE",
"507 461 OFFCURVE",
"429 461 CURVE SMOOTH",
"389 461 OFFCURVE",
"324 452 OFFCURVE",
"303 439 CURVE SMOOTH",
"271 419 OFFCURVE",
"266 348 OFFCURVE",
"266 322 CURVE SMOOTH",
"266 302 OFFCURVE",
"278 252 OFFCURVE",
"293 252 CURVE SMOOTH",
"306 252 OFFCURVE",
"307 302 OFFCURVE",
"320 311 CURVE SMOOTH",
"330 319 OFFCURVE",
"361 337 OFFCURVE",
"383 337 CURVE SMOOTH",
"404 337 OFFCURVE",
"415 295 OFFCURVE",
"415 265 CURVE SMOOTH",
"415 211 OFFCURVE",
"247 134 OFFCURVE",
"180 119 CURVE",
"185 167 LINE SMOOTH",
"201 321 OFFCURVE",
"210 454 OFFCURVE",
"214 511 CURVE",
"600 511 LINE SMOOTH",
"632 511 OFFCURVE",
"642 509 OFFCURVE",
"649 530 CURVE SMOOTH",
"673 606 LINE SMOOTH",
"678 621 OFFCURVE",
"671 628 OFFCURVE",
"652 628 CURVE SMOOTH",
"0 628 LINE SMOOTH",
"-15 628 OFFCURVE",
"-26 626 OFFCURVE",
"-31 609 CURVE SMOOTH",
"-55 533 LINE SMOOTH"
);
}
);
width = 600;
}
);
leftKerningGroup = VowelA.bn;
note = Ddha.bn;
rightKerningGroup = VowelA.bn;
unicode = 09A2;
},
